<svg width="315" height="40" viewBox="0 0 315 40" fill="none" xmlns="http://www.w3.org/2000/svg">
<path d="M2.648 31.144L1.23379 29.7298L1.23378 29.7298L2.648 31.144ZM16.616 30.952V32.952H20.6754L18.2018 29.7333L16.616 30.952ZM8.648 20.584L7.048 21.784L7.05505 21.7934L7.06221 21.8027L8.648 20.584ZM8.648 19.864L10.1665 21.1656L10.1998 21.1267L10.2311 21.0863L8.648 19.864ZM16.616 9.544L18.1991 10.7663L20.6869 7.544H16.616V9.544ZM2.648 9.352L1.048 10.552L1.13328 10.6657L1.23379 10.7662L2.648 9.352ZM2.648 3.592L1.23379 2.17779L1.13328 2.27829L1.048 2.392L2.648 3.592ZM22.472 12.28L24.0558 13.5013L24.1201 13.4179L24.1753 13.3282L22.472 12.28ZM16.328 20.248L14.7442 19.0267L13.8025 20.248L14.7442 21.4693L16.328 20.248ZM22.472 28.216L24.0895 27.0397L24.073 27.017L24.0558 26.9947L22.472 28.216ZM2.648 36.856L1.048 38.056L1.13328 38.1697L1.23379 38.2702L2.648 36.856ZM4.504 36.424V31.528H0.504V36.424H4.504ZM4.504 31.528C4.504 31.6477 4.48588 31.819 4.41266 32.0142C4.33713 32.2157 4.21753 32.4029 4.06222 32.5582L1.23378 29.7298C0.696316 30.2673 0.504 30.9395 0.504 31.528H4.504ZM4.06221 32.5582C3.97814 32.6423 3.84734 32.7463 3.66428 32.8276C3.47655 32.9111 3.27541 32.952 3.08 32.952V28.952C2.31817 28.952 1.68316 29.2804 1.23379 29.7298L4.06221 32.5582ZM3.08 32.952H16.616V28.952H3.08V32.952ZM18.2018 29.7333L10.2338 19.3653L7.06221 21.8027L15.0302 32.1707L18.2018 29.7333ZM10.248 19.384C10.3257 19.4876 10.504 19.7751 10.504 20.212C10.504 20.672 10.3073 21.0014 10.1665 21.1656L7.12949 18.5624C6.79675 18.9506 6.504 19.512 6.504 20.212C6.504 20.8889 6.7783 21.4244 7.048 21.784L10.248 19.384ZM10.2311 21.0863L18.1991 10.7663L15.0329 8.32173L7.06494 18.6417L10.2311 21.0863ZM16.616 7.544H3.08V11.544H16.616V7.544ZM3.08 7.544C3.27542 7.544 3.47655 7.58494 3.66428 7.66838C3.84734 7.74974 3.97814 7.85371 4.06222 7.93779L1.23379 10.7662C1.68316 11.2156 2.31817 11.544 3.08 11.544V7.544ZM4.248 8.152C4.32196 8.25061 4.38979 8.3728 4.43737 8.51554C4.48495 8.65828 4.504 8.79673 4.504 8.92H0.504C0.504 9.51274 0.692356 10.0778 1.048 10.552L4.248 8.152ZM4.504 8.92V4.024H0.504V8.92H4.504ZM4.504 4.024C4.504 4.14727 4.48495 4.28571 4.43737 4.42845C4.38979 4.57119 4.32196 4.69338 4.248 4.792L1.048 2.392C0.692356 2.86619 0.504 3.43126 0.504 4.024H4.504ZM4.06222 5.00621C3.97814 5.09029 3.84734 5.19426 3.66428 5.27562C3.47655 5.35906 3.27542 5.4 3.08 5.4V1.4C2.31817 1.4 1.68316 1.72841 1.23379 2.17779L4.06222 5.00621ZM3.08 5.4H22.28V1.4H3.08V5.4ZM22.28 5.4C22.1208 5.4 21.6457 5.34943 21.2424 4.91256C20.867 4.50593 20.856 4.08633 20.856 4.024H24.856C24.856 3.54566 24.749 2.81406 24.1816 2.19944C23.5863 1.55456 22.8232 1.4 22.28 1.4V5.4ZM20.856 4.024V11.032H24.856V4.024H20.856ZM20.856 11.032C20.856 11.033 20.856 11.0353 20.8553 11.0399C20.8545 11.0445 20.8528 11.0536 20.8484 11.0678C20.8398 11.096 20.8187 11.1505 20.7687 11.2318L24.1753 13.3282C24.5911 12.6526 24.856 11.8784 24.856 11.032H20.856ZM20.8882 11.0587L14.7442 19.0267L17.9118 21.4693L24.0558 13.5013L20.8882 11.0587ZM14.7442 21.4693L20.8882 29.4373L24.0558 26.9947L17.9118 19.0267L14.7442 21.4693ZM20.8545 29.3923C20.859 29.3984 20.8598 29.4005 20.8588 29.3986C20.8578 29.3966 20.8563 29.3933 20.8552 29.3895C20.854 29.3859 20.854 29.3847 20.8544 29.3875C20.8548 29.3904 20.856 29.3995 20.856 29.416H24.856C24.856 28.5586 24.6018 27.7441 24.0895 27.0397L20.8545 29.3923ZM20.856 29.416V36.424H24.856V29.416H20.856ZM20.856 36.424C20.856 36.3617 20.867 35.9421 21.2424 35.5354C21.6457 35.0986 22.1208 35.048 22.28 35.048V39.048C22.8232 39.048 23.5863 38.8934 24.1816 38.2486C24.749 37.6339 24.856 36.9023 24.856 36.424H20.856ZM22.28 35.048H3.08V39.048H22.28V35.048ZM3.08 35.048C3.27542 35.048 3.47655 35.0889 3.66428 35.1724C3.84734 35.2537 3.97814 35.3577 4.06221 35.4418L1.23379 38.2702C1.68316 38.7196 2.31817 39.048 3.08 39.048V35.048ZM4.248 35.656C4.32196 35.7546 4.38979 35.8768 4.43737 36.0195C4.48495 36.1623 4.504 36.3007 4.504 36.424H0.504C0.504 37.0167 0.692356 37.5818 1.048 38.056L4.248 35.656ZM29.9293 3.592L28.515 2.17779L28.515 2.17779L29.9293 3.592ZM47.5453 4.696L46.7574 6.53429L46.7574 6.53429L47.5453 4.696ZM52.8253 8.248L51.411 9.66221L51.4186 9.66981L51.4263 9.67734L52.8253 8.248ZM56.4253 13.48L54.5976 14.2923L54.6055 14.3099L54.6136 14.3274L56.4253 13.48ZM57.8653 19.864L55.8655 19.8922L55.8656 19.9051L55.866 19.918L57.8653 19.864ZM56.5693 26.536L54.7428 25.7211L54.7375 25.7329L54.7324 25.7448L56.5693 26.536ZM52.8733 32.008L54.2728 33.4367L54.2802 33.4295L54.2875 33.4222L52.8733 32.008ZM47.3533 35.656L46.5721 33.8148L46.562 33.8192L47.3533 35.656ZM29.9293 36.856L28.3292 38.056L28.5007 38.2846L28.7293 38.456L29.9293 36.856ZM35.9293 30.904H33.9293V32.904H35.9293V30.904ZM45.1933 30.088L45.9755 31.9287L45.9864 31.924L45.9972 31.9193L45.1933 30.088ZM48.6013 27.784L50.0155 29.1982L50.0155 29.1982L48.6013 27.784ZM50.9053 24.376L49.074 23.572L49.0692 23.5828L49.0646 23.5937L50.9053 24.376ZM50.9053 16.072L49.0578 16.838L49.0692 16.8656L49.0814 16.8927L50.9053 16.072ZM48.6013 12.664L47.164 14.0548L47.1868 14.0784L47.2104 14.1012L48.6013 12.664ZM45.1933 10.36L44.3725 12.1838L44.3997 12.1961L44.4272 12.2075L45.1933 10.36ZM35.9293 9.496V7.496H33.9293V9.496H35.9293ZM31.7853 3.976C31.7853 4.09573 31.7671 4.26698 31.6939 4.46224C31.6184 4.66365 31.4988 4.85089 31.3435 5.00621L28.515 2.17779C27.9776 2.71526 27.7853 3.38749 27.7853 3.976H31.7853ZM31.3435 5.00621C31.2594 5.09029 31.1286 5.19426 30.9455 5.27562C30.7578 5.35906 30.5567 5.4 30.3613 5.4V1.4C29.5994 1.4 28.9644 1.72841 28.515 2.17779L31.3435 5.00621ZM30.3613 5.4H41.0653V1.4H30.3613V5.4ZM41.0653 5.4C43.1123 5.4 45.0028 5.78233 46.7574 6.53429L48.3331 2.85771C46.0557 1.88166 43.6262 1.4 41.0653 1.4V5.4ZM46.7574 6.53429C48.547 7.30125 50.0926 8.34376 51.411 9.66221L54.2395 6.83378C52.5499 5.14423 50.5755 3.81875 48.3331 2.85771L46.7574 6.53429ZM51.4263 9.67734C52.7411 10.9641 53.7992 12.4959 54.5976 14.2923L58.2529 12.6677C57.2593 10.4321 55.9174 8.47588 54.2242 6.81866L51.4263 9.67734ZM54.6136 14.3274C55.4171 16.0451 55.8373 17.8926 55.8655 19.8922L59.8651 19.8358C59.8292 17.2914 59.2894 14.8829 58.2369 12.6326L54.6136 14.3274ZM55.866 19.918C55.9222 21.9994 55.544 23.9252 54.7428 25.7211L58.3957 27.3509C59.4505 24.9868 59.9363 22.4646 59.8645 19.81L55.866 19.918ZM54.7324 25.7448C53.9344 27.5973 52.8441 29.2087 51.459 30.5938L54.2875 33.4222C56.0384 31.6713 57.4121 29.6347 58.4061 27.3272L54.7324 25.7448ZM51.4737 30.5793C50.0923 31.9325 48.4646 33.012 46.5722 33.8148L48.1344 37.4972C50.4659 36.508 52.5182 35.1555 54.2728 33.4367L51.4737 30.5793ZM46.562 33.8192C44.7433 34.6026 42.7898 35 40.6813 35V39C43.3087 39 45.8032 38.5014 48.1445 37.4928L46.562 33.8192ZM40.6813 35H30.3613V39H40.6813V35ZM30.3613 35C30.4845 35 30.623 35.0191 30.7657 35.0666C30.9084 35.1142 31.0306 35.182 31.1293 35.256L28.7293 38.456C29.2034 38.8116 29.7685 39 30.3613 39V35ZM31.5293 35.656C31.6032 35.7546 31.671 35.8768 31.7186 36.0195C31.7662 36.1623 31.7853 36.3007 31.7853 36.424H27.7853C27.7853 37.0167 27.9736 37.5818 28.3292 38.056L31.5293 35.656ZM31.7853 36.424V3.976H27.7853V36.424H31.7853ZM35.9293 32.904H41.0653V28.904H35.9293V32.904ZM41.0653 32.904C42.7901 32.904 44.4339 32.5839 45.9755 31.9287L44.411 28.2473C43.3926 28.6801 42.2844 28.904 41.0653 28.904V32.904ZM45.9972 31.9193C47.524 31.249 48.8701 30.3435 50.0155 29.1982L47.187 26.3698C46.4124 27.1445 45.4865 27.775 44.3893 28.2567L45.9972 31.9193ZM50.0155 29.1982C51.1872 28.0265 52.1007 26.6764 52.7459 25.1583L49.0646 23.5937C48.6218 24.6356 47.9993 25.5575 47.187 26.3698L50.0155 29.1982ZM52.7365 25.18C53.4269 23.6075 53.7693 21.941 53.7693 20.2H49.7693C49.7693 21.403 49.5356 22.5205 49.074 23.572L52.7365 25.18ZM53.7693 20.2C53.7693 18.4591 53.4269 16.8018 52.7291 15.2513L49.0814 16.8927C49.5356 17.9022 49.7693 18.9969 49.7693 20.2H53.7693ZM52.7527 15.306C52.1071 13.7489 51.1863 12.3825 49.9921 11.2268L47.2104 14.1012C48.0002 14.8655 48.6154 15.7711 49.0578 16.838L52.7527 15.306ZM50.0385 11.2732C48.8828 10.0789 47.5164 9.15815 45.9593 8.51251L44.4272 12.2075C45.4941 12.6498 46.3997 13.2651 47.164 14.0548L50.0385 11.2732ZM46.014 8.53616C44.4634 7.8384 42.8061 7.496 41.0653 7.496V11.496C42.2684 11.496 43.3631 11.7296 44.3725 12.1838L46.014 8.53616ZM41.0653 7.496H35.9293V11.496H41.0653V7.496ZM33.9293 9.496V30.904H37.9293V9.496H33.9293ZM77.0386 3.592L75.6244 2.17779L75.6244 2.17779L77.0386 3.592ZM94.6546 4.696L93.8668 6.53429L93.8668 6.53429L94.6546 4.696ZM99.9346 8.248L98.5204 9.66221L98.528 9.66981L98.5357 9.67734L99.9346 8.248ZM103.535 13.48L101.707 14.2923L101.715 14.3099L101.723 14.3274L103.535 13.48ZM104.975 19.864L102.975 19.8922L102.975 19.9051L102.975 19.918L104.975 19.864ZM103.679 26.536L101.852 25.7211L101.847 25.7329L101.842 25.7448L103.679 26.536ZM99.9826 32.008L101.382 33.4367L101.39 33.4295L101.397 33.4222L99.9826 32.008ZM94.4626 35.656L93.6815 33.8148L93.6714 33.8192L94.4626 35.656ZM77.0386 36.856L75.4386 38.056L75.6101 38.2846L75.8386 38.456L77.0386 36.856ZM83.0386 30.904H81.0386V32.904H83.0386V30.904ZM92.3026 30.088L93.0849 31.9287L93.0958 31.924L93.1066 31.9193L92.3026 30.088ZM95.7106 27.784L97.1248 29.1982L97.1248 29.1982L95.7106 27.784ZM98.0146 24.376L96.1833 23.572L96.1786 23.5828L96.174 23.5937L98.0146 24.376ZM98.0146 16.072L96.1671 16.838L96.1786 16.8656L96.1908 16.8927L98.0146 16.072ZM95.7106 12.664L94.2734 14.0548L94.2962 14.0784L94.3198 14.1012L95.7106 12.664ZM92.3026 10.36L91.4819 12.1838L91.5091 12.1961L91.5366 12.2075L92.3026 10.36ZM83.0386 9.496V7.496H81.0386V9.496H83.0386ZM78.8946 3.976C78.8946 4.09573 78.8765 4.26698 78.8033 4.46224C78.7278 4.66365 78.6082 4.85089 78.4528 5.00621L75.6244 2.17779C75.0869 2.71526 74.8946 3.38749 74.8946 3.976H78.8946ZM78.4528 5.00621C78.3688 5.09029 78.238 5.19426 78.0549 5.27562C77.8672 5.35906 77.666 5.4 77.4706 5.4V1.4C76.7088 1.4 76.0738 1.72841 75.6244 2.17779L78.4528 5.00621ZM77.4706 5.4H88.1746V1.4H77.4706V5.4ZM88.1746 5.4C90.2217 5.4 92.1122 5.78233 93.8668 6.53429L95.4425 2.85771C93.165 1.88166 90.7356 1.4 88.1746 1.4V5.4ZM93.8668 6.53429C95.6564 7.30125 97.202 8.34376 98.5204 9.66221L101.349 6.83378C99.6593 5.14423 97.6849 3.81875 95.4425 2.85771L93.8668 6.53429ZM98.5357 9.67734C99.8505 10.9641 100.909 12.4959 101.707 14.2923L105.362 12.6677C104.369 10.4321 103.027 8.47588 101.334 6.81866L98.5357 9.67734ZM101.723 14.3274C102.526 16.0451 102.947 17.8926 102.975 19.8922L106.974 19.8358C106.939 17.2914 106.399 14.8829 105.346 12.6326L101.723 14.3274ZM102.975 19.918C103.032 21.9994 102.653 23.9252 101.852 25.7211L105.505 27.3509C106.56 24.9868 107.046 22.4646 106.974 19.81L102.975 19.918ZM101.842 25.7448C101.044 27.5973 99.9535 29.2087 98.5684 30.5938L101.397 33.4222C103.148 31.6713 104.521 29.6347 105.515 27.3272L101.842 25.7448ZM98.5831 30.5793C97.2016 31.9325 95.574 33.012 93.6815 33.8148L95.2437 37.4972C97.5753 36.508 99.6276 35.1555 101.382 33.4367L98.5831 30.5793ZM93.6714 33.8192C91.8526 34.6026 89.8992 35 87.7906 35V39C90.4181 39 92.9126 38.5014 95.2539 37.4928L93.6714 33.8192ZM87.7906 35H77.4706V39H87.7906V35ZM77.4706 35C77.5939 35 77.7323 35.0191 77.8751 35.0666C78.0178 35.1142 78.14 35.182 78.2386 35.256L75.8386 38.456C76.3128 38.8116 76.8779 39 77.4706 39V35ZM78.6386 35.656C78.7126 35.7546 78.7804 35.8768 78.828 36.0195C78.8756 36.1623 78.8946 36.3007 78.8946 36.424H74.8946C74.8946 37.0167 75.083 37.5818 75.4386 38.056L78.6386 35.656ZM78.8946 36.424V3.976H74.8946V36.424H78.8946ZM83.0386 32.904H88.1746V28.904H83.0386V32.904ZM88.1746 32.904C89.8995 32.904 91.5432 32.5839 93.0849 31.9287L91.5203 28.2473C90.502 28.6801 89.3938 28.904 88.1746 28.904V32.904ZM93.1066 31.9193C94.6334 31.249 95.9795 30.3435 97.1248 29.1982L94.2964 26.3698C93.5217 27.1445 92.5959 27.775 91.4986 28.2567L93.1066 31.9193ZM97.1248 29.1982C98.2966 28.0265 99.2101 26.6764 99.8553 25.1583L96.174 23.5937C95.7312 24.6356 95.1087 25.5575 94.2964 26.3698L97.1248 29.1982ZM99.8459 25.18C100.536 23.6075 100.879 21.941 100.879 20.2H96.8786C96.8786 21.403 96.645 22.5205 96.1833 23.572L99.8459 25.18ZM100.879 20.2C100.879 18.4591 100.536 16.8018 99.8385 15.2513L96.1908 16.8927C96.645 17.9022 96.8786 18.9969 96.8786 20.2H100.879ZM99.8621 15.306C99.2165 13.7489 98.2957 12.3825 97.1015 11.2268L94.3198 14.1012C95.1096 14.8655 95.7248 15.7711 96.1671 16.838L99.8621 15.306ZM97.1478 11.2732C95.9921 10.0789 94.6258 9.15815 93.0687 8.51251L91.5366 12.2075C92.6035 12.6498 93.5091 13.2651 94.2734 14.0548L97.1478 11.2732ZM93.1234 8.53616C91.5728 7.8384 89.9155 7.496 88.1746 7.496V11.496C89.3778 11.496 90.4725 11.7296 91.4819 12.1838L93.1234 8.53616ZM88.1746 7.496H83.0386V11.496H88.1746V7.496ZM81.0386 9.496V30.904H85.0386V9.496H81.0386ZM110.695 3.592L109.281 2.17779L109.281 2.17779L110.695 3.592ZM116.695 9.496V7.496H114.695V9.496H116.695ZM116.695 17.176H114.695V19.176H116.695V17.176ZM116.695 23.272V21.272H114.695V23.272H116.695ZM116.695 30.904H114.695V32.904H116.695V30.904ZM133.735 31.144L131.878 31.8868L131.937 32.0356L132.02 32.173L133.735 31.144ZM133.687 31.576L132.273 30.1618L132.178 30.2565L132.097 30.3629L133.687 31.576ZM130.135 36.232L131.687 37.4932L131.706 37.4694L131.725 37.4451L130.135 36.232ZM110.695 36.856L109.095 38.056L109.266 38.2846L109.495 38.456L110.695 36.856ZM112.551 3.976C112.551 4.09573 112.533 4.26698 112.46 4.46224C112.384 4.66365 112.264 4.85089 112.109 5.00621L109.281 2.17779C108.743 2.71526 108.551 3.38749 108.551 3.976H112.551ZM112.109 5.00621C112.025 5.09029 111.894 5.19426 111.711 5.27562C111.523 5.35906 111.322 5.4 111.127 5.4V1.4C110.365 1.4 109.73 1.72841 109.281 2.17779L112.109 5.00621ZM111.127 5.4H131.863V1.4H111.127V5.4ZM131.863 5.4C131.747 5.4 131.292 5.36957 130.881 4.95821C130.469 4.54685 130.439 4.09229 130.439 3.976H134.439C134.439 3.47571 134.312 2.73314 133.709 2.12978C133.106 1.52642 132.363 1.4 131.863 1.4V5.4ZM130.439 3.976V8.92H134.439V3.976H130.439ZM130.439 8.92C130.439 8.80371 130.469 8.34914 130.881 7.93779C131.292 7.52643 131.747 7.496 131.863 7.496V11.496C132.363 11.496 133.106 11.3696 133.709 10.7662C134.312 10.1629 134.439 9.42029 134.439 8.92H130.439ZM131.863 7.496H116.695V11.496H131.863V7.496ZM114.695 9.496V17.176H118.695V9.496H114.695ZM116.695 19.176H128.695V15.176H116.695V19.176ZM128.695 19.176C128.579 19.176 128.124 19.1456 127.713 18.7342C127.301 18.3229 127.271 17.8683 127.271 17.752H131.271C131.271 17.2517 131.144 16.5091 130.541 15.9058C129.938 15.3024 129.195 15.176 128.695 15.176V19.176ZM127.271 17.752V22.648H131.271V17.752H127.271ZM127.271 22.648C127.271 22.5857 127.282 22.1661 127.657 21.7594C128.061 21.3226 128.536 21.272 128.695 21.272V25.272C129.238 25.272 130.001 25.1174 130.596 24.4726C131.164 23.8579 131.271 23.1263 131.271 22.648H127.271ZM128.695 21.272H116.695V25.272H128.695V21.272ZM114.695 23.272V30.904H118.695V23.272H114.695ZM116.695 32.904H133.351V28.904H116.695V32.904ZM133.351 32.904C133.173 32.904 132.861 32.8661 132.531 32.66C132.185 32.4439 131.98 32.1429 131.878 31.8868L135.592 30.4012C135.425 29.9851 135.125 29.5641 134.651 29.268C134.193 28.9819 133.721 28.904 133.351 28.904V32.904ZM132.02 32.173C131.908 31.9863 131.754 31.6256 131.807 31.1511C131.861 30.6687 132.097 30.337 132.273 30.1618L135.101 32.9902C135.404 32.687 135.713 32.2193 135.783 31.5929C135.851 30.9744 135.658 30.4617 135.45 30.115L132.02 32.173ZM132.097 30.3629L128.545 35.0189L131.725 37.4451L135.277 32.7891L132.097 30.3629ZM128.583 34.9708C128.558 35.0012 128.543 35.014 128.54 35.0166C128.537 35.0187 128.542 35.0142 128.554 35.0084C128.567 35.0025 128.577 34.9994 128.582 34.9984C128.586 34.9975 128.577 35 128.551 35V39C129.814 39 130.905 38.4559 131.687 37.4932L128.583 34.9708ZM128.551 35H111.127V39H128.551V35ZM111.127 35C111.25 35 111.389 35.0191 111.531 35.0666C111.674 35.1142 111.796 35.182 111.895 35.256L109.495 38.456C109.969 38.8116 110.534 39 111.127 39V35ZM112.295 35.656C112.369 35.7546 112.437 35.8768 112.484 36.0195C112.532 36.1623 112.551 36.3007 112.551 36.424H108.551C108.551 37.0167 108.739 37.5818 109.095 38.056L112.295 35.656ZM112.551 36.424V3.976H108.551V36.424H112.551ZM138.348 9.064L136.559 8.16957L136.55 8.18764L136.541 8.20588L138.348 9.064ZM140.892 5.752L139.594 4.23033L139.583 4.23992L139.572 4.24967L140.892 5.752ZM144.636 3.544L143.929 1.67305L143.922 1.6757L143.915 1.6784L144.636 3.544ZM155.676 4.072L154.794 5.86711L154.813 5.87633L154.832 5.88516L155.676 4.072ZM159.852 7.096L161.43 5.86812L161.42 5.85464L161.409 5.84134L159.852 7.096ZM159.804 7.864L158.487 6.35884L158.421 6.41673L158.36 6.48019L159.804 7.864ZM156.492 11.32L157.906 12.7342L157.921 12.7192L157.936 12.7038L156.492 11.32ZM155.58 11.272L157.141 10.0226L157.105 9.97725L157.066 9.93407L155.58 11.272ZM154.476 10.312L153.256 11.8972L153.284 11.9189L153.313 11.9395L154.476 10.312ZM152.988 9.448L152.052 11.2156L152.113 11.2477L152.175 11.2756L152.988 9.448ZM151.212 8.776L150.727 10.7163L150.727 10.7163L151.212 8.776ZM147.036 8.92L147.696 10.8077L147.722 10.7987L147.748 10.789L147.036 8.92ZM145.404 9.832L144.102 8.31348L144.102 8.31349L145.404 9.832ZM144.348 11.176L142.559 10.2816L142.559 10.2816L144.348 11.176ZM144.876 15.208L143.393 16.5498L143.393 16.5498L144.876 15.208ZM147.612 16.6L147.2 18.5571L147.215 18.5604L147.231 18.5634L147.612 16.6ZM152.316 17.512L151.935 19.4755L151.947 19.4777L152.316 17.512ZM156.348 18.904L155.376 20.6523L155.405 20.6682L155.434 20.6831L156.348 18.904ZM159.276 21.112L157.781 22.4407L157.794 22.4559L157.808 22.4708L159.276 21.112ZM161.1 24.04L159.232 24.7543L159.235 24.7637L159.239 24.773L161.1 24.04ZM160.908 31.192L159.074 30.3928L159.066 30.4128L159.057 30.4329L160.908 31.192ZM158.556 34.552L157.186 33.0943L157.175 33.1048L157.164 33.1155L158.556 34.552ZM154.764 36.952L155.479 38.8197L155.496 38.8131L155.513 38.8062L154.764 36.952ZM145.692 37.384L145.219 39.3274L145.231 39.3302L145.692 37.384ZM142.428 36.28L141.533 38.0689L141.569 38.0865L141.605 38.1027L142.428 36.28ZM139.884 34.744L138.651 36.319L138.673 36.336L138.695 36.3524L139.884 34.744ZM138.06 33.064L139.559 31.7408L139.518 31.6939L139.474 31.6498L138.06 33.064ZM138.06 32.296L136.481 31.0681L136.481 31.0681L138.06 32.296ZM141.084 28.408L142.662 29.6359L142.737 29.5405L142.799 29.437L141.084 28.408ZM141.468 28.168V30.168H141.633L141.797 30.1408L141.468 28.168ZM141.948 28.312L140.534 29.7262L140.56 29.7524L140.587 29.7776L141.948 28.312ZM143.436 29.608L142.164 31.1519L142.192 31.1748L142.221 31.1967L143.436 29.608ZM145.212 30.76L146.176 29.0076L146.176 29.0076L145.212 30.76ZM147.276 31.624L146.693 33.5373L146.693 33.5373L147.276 31.624ZM153.996 25.336L152.519 26.6845L152.549 26.7181L152.582 26.7502L153.996 25.336ZM150.972 23.848L150.572 25.8076L150.585 25.8102L150.598 25.8127L150.972 23.848ZM146.268 22.888L146.668 20.9284L146.664 20.9277L146.268 22.888ZM139.836 19.576L138.394 20.9622L138.394 20.9622L139.836 19.576ZM139.436 13.24C139.436 12.0142 139.681 10.9177 140.154 9.92211L136.541 8.20588C135.798 9.77034 135.436 11.4578 135.436 13.24H139.436ZM140.137 9.95843C140.663 8.90516 141.354 8.00874 142.212 7.25433L139.572 4.24967C138.318 5.35126 137.312 6.66283 136.559 8.16957L140.137 9.95843ZM142.19 7.27367C143.097 6.5 144.147 5.87686 145.357 5.40959L143.915 1.6784C142.308 2.29914 140.863 3.148 139.594 4.23033L142.19 7.27367ZM145.343 5.41494C146.548 4.95962 147.828 4.728 149.196 4.728V0.727998C147.364 0.727998 145.604 1.04037 143.929 1.67305L145.343 5.41494ZM149.196 4.728C151.454 4.728 153.3 5.13315 154.794 5.86711L156.558 2.27689C154.404 1.21884 151.929 0.727998 149.196 0.727998V4.728ZM154.832 5.88516C156.511 6.66675 157.617 7.51033 158.294 8.35066L161.409 5.84134C160.23 4.37767 158.553 3.20525 156.52 2.25883L154.832 5.88516ZM158.273 8.32388C158.211 8.24405 157.979 7.90897 158.012 7.37924C158.047 6.81859 158.349 6.47931 158.487 6.35884L161.121 9.36915C161.514 9.02468 161.953 8.4454 162.004 7.62875C162.053 6.84303 161.717 6.23595 161.43 5.86812L158.273 8.32388ZM158.36 6.48019L155.048 9.93619L157.936 12.7038L161.248 9.24781L158.36 6.48019ZM155.078 9.90579C155.195 9.7881 155.349 9.68068 155.533 9.60705C155.715 9.53434 155.882 9.512 156.012 9.512V13.512C156.698 13.512 157.378 13.2618 157.906 12.7342L155.078 9.90579ZM156.012 9.512C156.282 9.512 156.539 9.58371 156.755 9.70368C156.959 9.81672 157.081 9.94737 157.141 10.0226L154.018 12.5214C154.41 13.011 155.08 13.512 156.012 13.512V9.512ZM157.066 9.93407C156.659 9.48104 156.173 9.06686 155.638 8.68453L153.313 11.9395C153.674 12.1971 153.925 12.423 154.093 12.6099L157.066 9.93407ZM155.695 8.72675C155.131 8.29309 154.493 7.92832 153.8 7.62038L152.175 11.2756C152.635 11.4797 152.988 11.6909 153.256 11.8972L155.695 8.72675ZM153.924 7.68042C153.227 7.31167 152.482 7.03209 151.697 6.83571L150.727 10.7163C151.221 10.8399 151.661 11.0083 152.052 11.2156L153.924 7.68042ZM151.697 6.83572C150.895 6.63532 150.076 6.536 149.244 6.536V10.536C149.755 10.536 150.248 10.5967 150.727 10.7163L151.697 6.83572ZM149.244 6.536C148.228 6.536 147.247 6.69919 146.324 7.05102L147.748 10.789C148.168 10.6288 148.66 10.536 149.244 10.536V6.536ZM146.375 7.03228C145.535 7.32632 144.765 7.74538 144.102 8.31348L146.705 11.3505C146.939 11.1506 147.257 10.9617 147.696 10.8077L146.375 7.03228ZM144.102 8.31349C143.458 8.8655 142.938 9.52376 142.559 10.2816L146.137 12.0704C146.27 11.8042 146.453 11.5665 146.705 11.3505L144.102 8.31349ZM142.559 10.2816C142.163 11.0731 141.964 11.9235 141.964 12.808H145.964C145.964 12.5405 146.02 12.3029 146.137 12.0704L142.559 10.2816ZM141.964 12.808C141.964 14.2187 142.443 15.5005 143.393 16.5498L146.359 13.8662C146.092 13.5715 145.964 13.2533 145.964 12.808H141.964ZM143.393 16.5498C144.372 17.6321 145.721 18.2458 147.2 18.5571L148.024 14.6429C147.071 14.4422 146.596 14.1279 146.359 13.8662L143.393 16.5498ZM147.231 18.5634L151.935 19.4754L152.696 15.5486L147.992 14.6366L147.231 18.5634ZM151.947 19.4777C153.31 19.7333 154.444 20.134 155.376 20.6523L157.319 17.1557C155.948 16.394 154.393 15.8667 152.684 15.5463L151.947 19.4777ZM155.434 20.6831C156.431 21.1951 157.2 21.7872 157.781 22.4407L160.771 19.7833C159.815 18.7088 158.632 17.8289 157.261 17.1249L155.434 20.6831ZM157.808 22.4708C158.437 23.1496 158.908 23.9074 159.232 24.7543L162.968 23.3257C162.46 21.9966 161.715 20.8024 160.743 19.7532L157.808 22.4708ZM159.239 24.773C159.559 25.5856 159.724 26.4559 159.724 27.4H163.724C163.724 25.9761 163.472 24.6064 162.961 23.307L159.239 24.773ZM159.724 27.4C159.724 28.3878 159.516 29.3806 159.074 30.3928L162.741 31.9912C163.388 30.5074 163.724 28.9722 163.724 27.4H159.724ZM159.057 30.4329C158.662 31.3971 158.05 32.2834 157.186 33.0943L159.925 36.0097C161.174 34.8366 162.13 33.4829 162.758 31.9511L159.057 30.4329ZM157.164 33.1155C156.349 33.9052 155.312 34.5731 154.014 35.0978L155.513 38.8062C157.224 38.1149 158.714 37.1828 159.947 35.9885L157.164 33.1155ZM154.048 35.0843C152.816 35.5565 151.338 35.816 149.58 35.816V39.816C151.726 39.816 153.704 39.4995 155.479 38.8197L154.048 35.0843ZM149.58 35.816C148.344 35.816 147.203 35.6867 146.153 35.4378L145.231 39.3302C146.612 39.6573 148.064 39.816 149.58 39.816V35.816ZM146.164 35.4407C145.087 35.1785 144.118 34.8487 143.251 34.4573L141.605 38.1027C142.722 38.6073 143.929 39.0135 145.219 39.3273L146.164 35.4407ZM143.322 34.4911C142.448 34.0541 141.702 33.6006 141.073 33.1356L138.695 36.3524C139.538 36.9754 140.487 37.5459 141.533 38.0689L143.322 34.4911ZM141.116 33.169C140.451 32.6482 139.939 32.171 139.559 31.7408L136.56 34.3872C137.14 35.045 137.845 35.6878 138.651 36.319L141.116 33.169ZM139.474 31.6498C139.643 31.8185 139.892 32.1815 139.892 32.704C139.892 33.1752 139.686 33.4622 139.638 33.5239L136.481 31.0681C136.209 31.4178 135.892 31.9768 135.892 32.704C135.892 33.4825 136.253 34.0855 136.646 34.4782L139.474 31.6498ZM139.638 33.5239L142.662 29.6359L139.505 27.1801L136.481 31.0681L139.638 33.5239ZM142.799 29.437C142.722 29.5651 142.572 29.7616 142.312 29.924C142.039 30.0948 141.739 30.168 141.468 30.168V26.168C140.477 26.168 139.755 26.735 139.369 27.379L142.799 29.437ZM141.797 30.1408C141.641 30.1668 141.415 30.1729 141.157 30.0957C140.894 30.0167 140.683 29.8762 140.534 29.7262L143.362 26.8978C142.738 26.2742 141.912 26.0664 141.139 26.1952L141.797 30.1408ZM140.587 29.7776C141.068 30.2243 141.594 30.6824 142.164 31.1519L144.707 28.0641C144.189 27.6376 143.724 27.2317 143.309 26.8464L140.587 29.7776ZM142.221 31.1967C142.849 31.6774 143.526 32.1154 144.248 32.5124L146.176 29.0076C145.617 28.7006 145.11 28.3706 144.651 28.0193L142.221 31.1967ZM144.248 32.5124C145.015 32.9346 145.832 33.2752 146.693 33.5373L147.858 29.7107C147.247 29.5248 146.688 29.2894 146.176 29.0076L144.248 32.5124ZM146.693 33.5373C147.633 33.8233 148.614 33.96 149.628 33.96V29.96C148.977 29.96 148.391 29.8727 147.858 29.7107L146.693 33.5373ZM149.628 33.96C151.645 33.96 153.515 33.5239 154.935 32.3488L152.385 29.2672C151.948 29.6281 151.131 29.96 149.628 29.96V33.96ZM154.935 32.3488C156.327 31.1967 157.052 29.6374 157.052 27.832H153.052C153.052 28.4586 152.848 28.8833 152.385 29.2672L154.935 32.3488ZM157.052 27.832C157.052 26.32 156.474 24.9853 155.41 23.9218L152.582 26.7502C152.926 27.0947 153.052 27.424 153.052 27.832H157.052ZM155.473 23.9875C154.418 22.8325 152.959 22.1906 151.346 21.8833L150.598 25.8127C151.673 26.0174 152.229 26.3675 152.519 26.6845L155.473 23.9875ZM151.372 21.8884L146.668 20.9284L145.868 24.8476L150.572 25.8076L151.372 21.8884ZM146.664 20.9277C144.298 20.4489 142.546 19.509 141.277 18.1898L138.394 20.9622C140.326 22.971 142.861 24.2391 145.871 24.8483L146.664 20.9277ZM141.277 18.1898C140.076 16.9404 139.436 15.3445 139.436 13.24H135.436C135.436 16.2555 136.395 18.8836 138.394 20.9622L141.277 18.1898ZM166.757 36.856L165.157 38.056L165.329 38.2846L165.557 38.456L166.757 36.856ZM166.757 3.592L165.343 2.17779L165.343 2.17779L166.757 3.592ZM167.189 5.4H172.133V1.4H167.189V5.4ZM172.133 5.4C172.071 5.4 171.651 5.38895 171.245 5.0136C170.808 4.61034 170.757 4.13523 170.757 3.976H174.757C174.757 3.43277 174.603 2.66966 173.958 2.07439C173.343 1.50705 172.612 1.4 172.133 1.4V5.4ZM170.757 3.976V36.424H174.757V3.976H170.757ZM170.757 36.424C170.757 36.2648 170.808 35.7897 171.245 35.3864C171.651 35.011 172.071 35 172.133 35V39C172.612 39 173.343 38.893 173.958 38.3256C174.603 37.7303 174.757 36.9672 174.757 36.424H170.757ZM172.133 35H167.189V39H172.133V35ZM167.189 35C167.313 35 167.451 35.0191 167.594 35.0666C167.737 35.1142 167.859 35.182 167.957 35.256L165.557 38.456C166.032 38.8116 166.597 39 167.189 39V35ZM168.357 35.656C168.431 35.7546 168.499 35.8768 168.547 36.0195C168.594 36.1623 168.613 36.3007 168.613 36.424H164.613C164.613 37.0167 164.802 37.5818 165.157 38.056L168.357 35.656ZM168.613 36.424V3.976H164.613V36.424H168.613ZM168.613 3.976C168.613 4.09573 168.595 4.26698 168.522 4.46224C168.447 4.66365 168.327 4.85089 168.172 5.00621L165.343 2.17779C164.806 2.71526 164.613 3.38749 164.613 3.976H168.613ZM168.172 5.00621C168.088 5.09029 167.957 5.19426 167.774 5.27562C167.586 5.35906 167.385 5.4 167.189 5.4V1.4C166.428 1.4 165.793 1.72841 165.343 2.17779L168.172 5.00621ZM179.836 3.592L178.421 2.17779L178.421 2.17779L179.836 3.592ZM186.412 4.168L187.997 2.94858L187.981 2.92748L187.964 2.90681L186.412 4.168ZM203.692 26.632L202.106 27.8514L205.692 32.5122V26.632H203.692ZM203.068 36.232L201.481 37.4493L201.498 37.4715L201.515 37.4932L203.068 36.232ZM185.836 13.768L187.422 12.5507L183.836 7.87477V13.768H185.836ZM179.836 36.856L178.235 38.056L178.407 38.2846L178.636 38.456L179.836 36.856ZM181.692 36.424V3.976H177.692V36.424H181.692ZM181.692 3.976C181.692 4.09573 181.673 4.26698 181.6 4.46224C181.525 4.66365 181.405 4.85089 181.25 5.00621L178.421 2.17779C177.884 2.71526 177.692 3.38749 177.692 3.976H181.692ZM181.25 5.00621C181.166 5.09029 181.035 5.19426 180.852 5.27562C180.664 5.35906 180.463 5.4 180.268 5.4V1.4C179.506 1.4 178.871 1.72841 178.421 2.17779L181.25 5.00621ZM180.268 5.4H184.828V1.4H180.268V5.4ZM184.828 5.4C184.854 5.4 184.862 5.40253 184.858 5.40162C184.854 5.40058 184.843 5.39755 184.831 5.39163C184.819 5.38577 184.814 5.38132 184.816 5.38342C184.819 5.38597 184.835 5.39878 184.859 5.42918L187.964 2.90681C187.181 1.94405 186.091 1.4 184.828 1.4V5.4ZM184.826 5.38742L202.106 27.8514L205.277 25.4126L187.997 2.94858L184.826 5.38742ZM205.692 26.632V3.976H201.692V26.632H205.692ZM205.692 3.976C205.692 4.09229 205.661 4.54685 205.25 4.95821C204.838 5.36957 204.384 5.4 204.268 5.4V1.4C203.767 1.4 203.025 1.52642 202.421 2.12978C201.818 2.73314 201.692 3.47571 201.692 3.976H205.692ZM204.268 5.4H209.212V1.4H204.268V5.4ZM209.212 5.4C209.095 5.4 208.641 5.36957 208.229 4.95821C207.818 4.54685 207.788 4.09229 207.788 3.976H211.788C211.788 3.47571 211.661 2.73314 211.058 2.12978C210.454 1.52642 209.712 1.4 209.212 1.4V5.4ZM207.788 3.976V36.424H211.788V3.976H207.788ZM207.788 36.424C207.788 36.3077 207.818 35.8531 208.229 35.4418C208.641 35.0304 209.095 35 209.212 35V39C209.712 39 210.454 38.8736 211.058 38.2702C211.661 37.6669 211.788 36.9243 211.788 36.424H207.788ZM209.212 35H204.652V39H209.212V35ZM204.652 35C204.625 35 204.617 34.9975 204.621 34.9984C204.625 34.9994 204.636 35.0025 204.648 35.0084C204.66 35.0142 204.665 35.0187 204.663 35.0166C204.66 35.014 204.644 35.0012 204.62 34.9708L201.515 37.4932C202.298 38.4559 203.388 39 204.652 39V35ZM204.654 35.0147L187.422 12.5507L184.249 14.9853L201.481 37.4493L204.654 35.0147ZM183.836 13.768V36.424H187.836V13.768H183.836ZM183.836 36.424C183.836 36.2648 183.886 35.7897 184.323 35.3864C184.73 35.011 185.149 35 185.212 35V39C185.69 39 186.421 38.893 187.036 38.3256C187.681 37.7303 187.836 36.9672 187.836 36.424H183.836ZM185.212 35H180.268V39H185.212V35ZM180.268 35C180.391 35 180.529 35.0191 180.672 35.0666C180.815 35.1142 180.937 35.182 181.036 35.256L178.636 38.456C179.11 38.8116 179.675 39 180.268 39V35ZM181.436 35.656C181.509 35.7546 181.577 35.8768 181.625 36.0195C181.672 36.1623 181.692 36.3007 181.692 36.424H177.692C177.692 37.0167 177.88 37.5818 178.235 38.056L181.436 35.656ZM216.723 13.192L214.887 12.3976L214.884 12.4042L214.882 12.4109L216.723 13.192ZM220.419 7.672L221.833 9.08621L221.833 9.08621L220.419 7.672ZM225.939 4.024L226.696 5.87509L226.708 5.8702L226.72 5.86516L225.939 4.024ZM232.755 2.728L232.782 0.728185L232.781 0.728171L232.755 2.728ZM239.331 4.072L238.553 5.91473L238.566 5.91991L238.578 5.92493L239.331 4.072ZM244.707 7.576L246.121 6.16178L246.114 6.15434L246.106 6.14698L244.707 7.576ZM244.755 8.344L243.25 7.02699L243.209 7.07364L243.171 7.12274L244.755 8.344ZM241.683 12.328L240.099 11.1067L240.028 11.199L239.968 11.299L241.683 12.328ZM241.251 12.616V14.616H241.416L241.58 14.5888L241.251 12.616ZM240.819 12.376L242.38 11.1266L242.357 11.0967L242.331 11.0677L240.819 12.376ZM232.515 8.536V10.536H232.534L232.554 10.5356L232.515 8.536ZM228.243 9.496L229.103 11.3017L229.103 11.3017L228.243 9.496ZM224.739 12.04L223.281 10.6706L223.281 10.6706L224.739 12.04ZM222.387 15.784L224.238 16.5413L224.241 16.534L224.244 16.5268L222.387 15.784ZM222.435 24.76L220.599 25.5529L220.599 25.5529L222.435 24.76ZM224.883 28.456L226.319 27.0637L224.883 28.456ZM228.435 30.952L227.61 32.7742L227.61 32.7742L228.435 30.952ZM232.755 31.864V33.864H232.78L232.806 33.8633L232.755 31.864ZM236.307 31.144L235.582 29.28L235.573 29.2835L235.564 29.287L236.307 31.144ZM239.427 29.32L238.177 27.7583L238.164 27.7686L238.152 27.7792L239.427 29.32ZM241.875 26.632L243.547 27.7293L243.555 27.7176L243.562 27.7058L241.875 26.632ZM243.363 23.224L245.297 23.733L245.957 21.224H243.363V23.224ZM233.619 23.032L231.762 23.7748L231.86 24.0204L232.019 24.232L233.619 23.032ZM233.667 22.552L232.014 21.4264L231.981 21.4738L231.952 21.523L233.667 22.552ZM236.739 18.04L235.117 16.869L235.101 16.8915L235.086 16.9144L236.739 18.04ZM249.747 17.176L251.716 16.8284L251.425 15.176H249.747V17.176ZM249.939 18.76L247.943 18.8848L247.947 18.9466L247.954 19.0081L249.939 18.76ZM249.987 20.344L247.99 20.2266L247.988 20.2721L247.987 20.3177L249.987 20.344ZM248.547 27.16L246.716 26.3555L246.711 26.3671L246.706 26.3789L248.547 27.16ZM244.803 32.68L243.403 31.2516L243.396 31.2586L243.389 31.2658L244.803 32.68ZM239.283 36.376L240.04 38.2271L240.052 38.2222L240.064 38.2172L239.283 36.376ZM225.699 36.328L224.884 38.1545L224.901 38.162L224.918 38.1692L225.699 36.328ZM220.275 32.584L218.832 33.9691L218.839 33.9763L218.846 33.9836L220.275 32.584ZM216.675 26.968L214.82 27.7156L214.82 27.7156L216.675 26.968ZM217.379 20.056C217.379 17.8403 217.78 15.8202 218.564 13.9731L214.882 12.4109C213.873 14.7878 213.379 17.3437 213.379 20.056H217.379ZM218.558 13.9864C219.394 12.0561 220.488 10.4309 221.833 9.08621L219.005 6.25779C217.277 7.98506 215.908 10.0399 214.887 12.3976L218.558 13.9864ZM221.833 9.08621C223.208 7.71151 224.823 6.64152 226.696 5.87509L225.181 2.1729C222.831 3.13448 220.766 4.49648 219.005 6.25779L221.833 9.08621ZM226.72 5.86516C228.561 5.08388 230.557 4.69925 232.728 4.72782L232.781 0.728171C230.089 0.692747 227.54 1.17212 225.158 2.18283L226.72 5.86516ZM232.727 4.72781C234.819 4.75646 236.755 5.156 238.553 5.91473L240.108 2.22927C237.811 1.25999 235.363 0.763533 232.782 0.728185L232.727 4.72781ZM238.578 5.92493C240.392 6.66185 241.963 7.68821 243.308 9.00502L246.106 6.14698C244.379 4.45578 242.366 3.14615 240.084 2.21906L238.578 5.92493ZM243.293 8.99021C243.217 8.91448 242.948 8.61069 242.915 8.08475C242.88 7.53193 243.131 7.16214 243.25 7.02699L246.26 9.66101C246.602 9.26986 246.957 8.64407 246.907 7.83524C246.858 7.05331 246.453 6.49351 246.121 6.16178L243.293 8.99021ZM243.171 7.12274L240.099 11.1067L243.267 13.5493L246.339 9.56526L243.171 7.12274ZM239.968 11.299C240.06 11.1453 240.2 10.9847 240.393 10.8559C240.585 10.7284 240.774 10.6679 240.922 10.6432L241.58 14.5888C242.321 14.4652 242.986 14.0438 243.398 13.357L239.968 11.299ZM241.251 10.616C241.521 10.616 241.778 10.6877 241.994 10.8077C242.198 10.9207 242.32 11.0514 242.38 11.1266L239.257 13.6254C239.649 14.115 240.319 14.616 241.251 14.616V10.616ZM242.331 11.0677C241.127 9.67484 239.677 8.56673 238.001 7.74723L236.244 11.3408C237.448 11.9293 238.463 12.7092 239.306 13.6843L242.331 11.0677ZM238.001 7.74723C236.27 6.90105 234.419 6.49827 232.476 6.53638L232.554 10.5356C233.874 10.5097 235.095 10.7789 236.244 11.3408L238.001 7.74723ZM232.515 6.536C230.716 6.536 228.998 6.92101 227.383 7.69028L229.103 11.3017C230.175 10.791 231.305 10.536 232.515 10.536V6.536ZM227.383 7.69028C225.82 8.43428 224.448 9.42826 223.281 10.6706L226.196 13.4093C227.013 12.5397 227.977 11.8377 229.103 11.3017L227.383 7.69028ZM223.281 10.6706C222.106 11.9212 221.192 13.3857 220.53 15.0412L224.244 16.5268C224.734 15.3023 225.387 14.2708 226.196 13.4093L223.281 10.6706ZM220.536 15.0267C219.856 16.6874 219.523 18.45 219.523 20.296H223.523C223.523 18.942 223.765 17.6966 224.238 16.5413L220.536 15.0267ZM219.523 20.296C219.523 22.1304 219.88 23.8888 220.599 25.5529L224.271 23.9671C223.773 22.8152 223.523 21.5976 223.523 20.296H219.523ZM220.599 25.5529C221.299 27.1737 222.247 28.611 223.447 29.8483L226.319 27.0637C225.47 26.189 224.787 25.1623 224.271 23.9671L220.599 25.5529ZM223.447 29.8483C224.646 31.0853 226.038 32.0629 227.61 32.7742L229.259 29.1298C228.143 28.6251 227.167 27.9387 226.319 27.0637L223.447 29.8483ZM227.61 32.7742C229.224 33.5042 230.946 33.864 232.755 33.864V29.864C231.491 29.864 230.333 29.6158 229.259 29.1298L227.61 32.7742ZM232.806 33.8633C234.283 33.8255 235.702 33.5401 237.05 33.001L235.564 29.287C234.672 29.6439 233.723 29.8385 232.703 29.8647L232.806 33.8633ZM237.032 33.008C238.378 32.4845 239.605 31.7688 240.702 30.8608L238.152 27.7792C237.393 28.4071 236.54 28.9075 235.582 29.28L237.032 33.008ZM240.676 30.8817C241.8 29.9827 242.759 28.9301 243.547 27.7293L240.203 25.5347C239.647 26.3819 238.974 27.1213 238.177 27.7583L240.676 30.8817ZM243.562 27.7058C244.346 26.4746 244.925 25.1479 245.297 23.733L241.429 22.715C241.161 23.7321 240.748 24.6774 240.187 25.5582L243.562 27.7058ZM243.363 21.224H234.003V25.224H243.363V21.224ZM234.003 21.224C234.196 21.224 234.436 21.2646 234.681 21.3871C234.926 21.5097 235.103 21.6772 235.219 21.832L232.019 24.232C232.492 24.8636 233.213 25.224 234.003 25.224V21.224ZM235.476 22.2892C235.554 22.4859 235.599 22.7282 235.573 22.991C235.547 23.2481 235.461 23.4484 235.382 23.581L231.952 21.523C231.565 22.1677 231.444 22.9811 231.762 23.7748L235.476 22.2892ZM235.32 23.6776L238.392 19.1656L235.086 16.9144L232.014 21.4264L235.32 23.6776ZM238.36 19.211C238.389 19.1706 238.408 19.1528 238.413 19.1486C238.415 19.1464 238.415 19.1471 238.411 19.1496C238.408 19.152 238.402 19.1556 238.395 19.1596C238.387 19.1635 238.379 19.1671 238.371 19.1702C238.363 19.1732 238.356 19.1751 238.352 19.1762C238.342 19.1785 238.346 19.176 238.371 19.176V15.176C237.014 15.176 235.884 15.8075 235.117 16.869L238.36 19.211ZM238.371 19.176H249.747V15.176H238.371V19.176ZM247.777 17.5236C247.861 17.9994 247.916 18.4529 247.943 18.8848L251.935 18.6352C251.898 18.0431 251.824 17.4406 251.716 16.8284L247.777 17.5236ZM247.954 19.0081C248.002 19.3923 248.015 19.7977 247.99 20.2266L251.983 20.4614C252.022 19.8023 252.003 19.1517 251.923 18.5119L247.954 19.0081ZM247.987 20.3177C247.958 22.4964 247.53 24.5021 246.716 26.3555L250.378 27.9645C251.419 25.5939 251.951 23.0556 251.987 20.3703L247.987 20.3177ZM246.706 26.3789C245.91 28.2541 244.81 29.8726 243.403 31.2516L246.203 34.1084C247.996 32.3514 249.391 30.2899 250.388 27.9411L246.706 26.3789ZM243.389 31.2658C242.008 32.6458 240.385 33.7356 238.502 34.5348L240.064 38.2172C242.404 37.2244 244.461 35.8502 246.217 34.0942L243.389 31.2658ZM238.525 34.5249C236.669 35.2842 234.656 35.672 232.467 35.672V39.672C235.141 39.672 237.672 39.1958 240.04 38.2271L238.525 34.5249ZM232.467 35.672C230.323 35.672 228.333 35.2732 226.48 34.4868L224.918 38.1692C227.288 39.1748 229.811 39.672 232.467 39.672V35.672ZM226.514 34.5015C224.654 33.6721 223.057 32.5661 221.703 31.1844L218.846 33.9836C220.565 35.7379 222.583 37.1279 224.884 38.1545L226.514 34.5015ZM221.718 31.1989C220.366 29.7909 219.302 28.1377 218.53 26.2204L214.82 27.7156C215.775 30.0863 217.112 32.1771 218.832 33.9691L221.718 31.1989ZM218.53 26.2204C217.768 24.3294 217.379 22.2809 217.379 20.056H213.379C213.379 22.7591 213.854 25.3186 214.82 27.7156L218.53 26.2204ZM255.679 3.592L254.265 2.17779L254.265 2.17779L255.679 3.592ZM261.679 9.496V7.496H259.679V9.496H261.679ZM261.679 17.176H259.679V19.176H261.679V17.176ZM261.679 23.272V21.272H259.679V23.272H261.679ZM261.679 30.904H259.679V32.904H261.679V30.904ZM278.719 31.144L276.862 31.8868L276.922 32.0356L277.004 32.173L278.719 31.144ZM278.671 31.576L277.257 30.1618L277.162 30.2565L277.081 30.3629L278.671 31.576ZM275.119 36.232L276.671 37.4932L276.691 37.4694L276.709 37.4451L275.119 36.232ZM255.679 36.856L254.079 38.056L254.251 38.2846L254.479 38.456L255.679 36.856ZM257.535 3.976C257.535 4.09573 257.517 4.26698 257.444 4.46224C257.368 4.66365 257.249 4.85089 257.093 5.00621L254.265 2.17779C253.728 2.71526 253.535 3.38749 253.535 3.976H257.535ZM257.093 5.00621C257.009 5.09029 256.879 5.19426 256.696 5.27562C256.508 5.35906 256.307 5.4 256.111 5.4V1.4C255.349 1.4 254.714 1.72841 254.265 2.17779L257.093 5.00621ZM256.111 5.4H276.847V1.4H256.111V5.4ZM276.847 5.4C276.731 5.4 276.276 5.36957 275.865 4.95821C275.454 4.54685 275.423 4.09229 275.423 3.976H279.423C279.423 3.47571 279.297 2.73314 278.693 2.12978C278.09 1.52642 277.348 1.4 276.847 1.4V5.4ZM275.423 3.976V8.92H279.423V3.976H275.423ZM275.423 8.92C275.423 8.80371 275.454 8.34914 275.865 7.93779C276.276 7.52643 276.731 7.496 276.847 7.496V11.496C277.348 11.496 278.09 11.3696 278.693 10.7662C279.297 10.1629 279.423 9.42029 279.423 8.92H275.423ZM276.847 7.496H261.679V11.496H276.847V7.496ZM259.679 9.496V17.176H263.679V9.496H259.679ZM261.679 19.176H273.679V15.176H261.679V19.176ZM273.679 19.176C273.563 19.176 273.108 19.1456 272.697 18.7342C272.286 18.3229 272.255 17.8683 272.255 17.752H276.255C276.255 17.2517 276.129 16.5091 275.525 15.9058C274.922 15.3024 274.18 15.176 273.679 15.176V19.176ZM272.255 17.752V22.648H276.255V17.752H272.255ZM272.255 22.648C272.255 22.5857 272.266 22.1661 272.642 21.7594C273.045 21.3226 273.52 21.272 273.679 21.272V25.272C274.222 25.272 274.986 25.1174 275.581 24.4726C276.148 23.8579 276.255 23.1263 276.255 22.648H272.255ZM273.679 21.272H261.679V25.272H273.679V21.272ZM259.679 23.272V30.904H263.679V23.272H259.679ZM261.679 32.904H278.335V28.904H261.679V32.904ZM278.335 32.904C278.157 32.904 277.845 32.8661 277.515 32.66C277.169 32.4439 276.965 32.1429 276.862 31.8868L280.576 30.4012C280.41 29.9851 280.109 29.5641 279.635 29.268C279.177 28.9819 278.705 28.904 278.335 28.904V32.904ZM277.004 32.173C276.892 31.9863 276.739 31.6256 276.791 31.1511C276.845 30.6687 277.082 30.337 277.257 30.1618L280.085 32.9902C280.389 32.687 280.697 32.2193 280.767 31.5929C280.836 30.9744 280.642 30.4617 280.434 30.115L277.004 32.173ZM277.081 30.3629L273.529 35.0189L276.709 37.4451L280.261 32.7891L277.081 30.3629ZM273.567 34.9708C273.542 35.0012 273.527 35.014 273.524 35.0166C273.521 35.0187 273.527 35.0142 273.539 35.0084C273.551 35.0025 273.561 34.9994 273.566 34.9984C273.57 34.9975 273.561 35 273.535 35V39C274.799 39 275.889 38.4559 276.671 37.4932L273.567 34.9708ZM273.535 35H256.111V39H273.535V35ZM256.111 35C256.235 35 256.373 35.0191 256.516 35.0666C256.658 35.1142 256.781 35.182 256.879 35.256L254.479 38.456C254.953 38.8116 255.519 39 256.111 39V35ZM257.279 35.656C257.353 35.7546 257.421 35.8768 257.469 36.0195C257.516 36.1623 257.535 36.3007 257.535 36.424H253.535C253.535 37.0167 253.724 37.5818 254.079 38.056L257.279 35.656ZM257.535 36.424V3.976H253.535V36.424H257.535ZM283.476 3.496L284.89 4.91022L284.89 4.91021L283.476 3.496ZM309.636 3.496L308.036 4.696L308.208 4.92457L308.436 5.096L309.636 3.496ZM309.396 12.136L307.848 10.8695L307.827 10.8957L307.806 10.9225L309.396 12.136ZM301.812 22.072L300.222 20.8585L299.294 22.0742L300.224 23.2883L301.812 22.072ZM312.66 36.232L314.375 35.203L314.317 35.1057L314.248 35.0157L312.66 36.232ZM312.66 36.712L310.945 35.683L310.906 35.7489L310.871 35.8176L312.66 36.712ZM304.644 36.136L303.058 37.3546L303.075 37.3761L303.092 37.3972L304.644 36.136ZM294.132 22.456L295.718 21.2374L295.679 21.1869L295.637 21.139L294.132 22.456ZM294.132 21.736L295.546 23.1502L295.639 23.0572L295.719 22.9527L294.132 21.736ZM303.588 9.4L305.175 10.6167L307.641 7.4H303.588V9.4ZM289.476 9.4V7.4H287.476V9.4H289.476ZM283.476 36.76L281.876 37.96L282.048 38.1886L282.276 38.36L283.476 36.76ZM285.332 3.88C285.332 3.99972 285.314 4.17098 285.241 4.36625C285.165 4.56766 285.046 4.7549 284.89 4.91022L282.062 2.08178C281.524 2.61925 281.332 3.29149 281.332 3.88H285.332ZM284.89 4.91021C284.806 4.99429 284.675 5.09826 284.492 5.17962C284.305 5.26306 284.104 5.304 283.908 5.304V1.304C283.146 1.304 282.511 1.63241 282.062 2.08179L284.89 4.91021ZM283.908 5.304H309.252V1.304H283.908V5.304ZM309.252 5.304C309.059 5.304 308.819 5.26338 308.574 5.14085C308.329 5.01833 308.152 4.85076 308.036 4.696L311.236 2.296C310.762 1.66439 310.042 1.304 309.252 1.304V5.304ZM308.436 5.096C308.281 4.97993 308.114 4.80347 307.991 4.55842C307.869 4.31337 307.828 4.07344 307.828 3.88H311.828C311.828 3.09049 311.468 2.36971 310.836 1.896L308.436 5.096ZM307.828 3.88V10.936H311.828V3.88H307.828ZM307.828 10.936C307.828 10.9404 307.828 10.9373 307.829 10.9282C307.831 10.9189 307.834 10.9072 307.838 10.8946C307.843 10.882 307.848 10.8725 307.851 10.8668C307.854 10.8612 307.854 10.8622 307.848 10.8695L310.944 13.4025C311.52 12.6991 311.828 11.8533 311.828 10.936H307.828ZM307.806 10.9225L300.222 20.8585L303.402 23.2855L310.986 13.3495L307.806 10.9225ZM300.224 23.2883L311.072 37.4483L314.248 35.0157L303.4 20.8557L300.224 23.2883ZM310.945 37.261C310.838 37.0825 310.732 36.811 310.732 36.472C310.732 36.133 310.838 35.8615 310.945 35.683L314.375 37.741C314.578 37.4025 314.732 36.971 314.732 36.472C314.732 35.973 314.578 35.5415 314.375 35.203L310.945 37.261ZM310.871 35.8176C310.996 35.5686 311.212 35.3046 311.536 35.1195C311.847 34.9419 312.139 34.904 312.324 34.904V38.904C312.669 38.904 313.098 38.8341 313.52 38.5925C313.956 38.3434 314.26 37.9834 314.449 37.6064L310.871 35.8176ZM312.324 34.904H306.228V38.904H312.324V34.904ZM306.228 34.904C306.202 34.904 306.193 34.9015 306.197 34.9024C306.202 34.9034 306.212 34.9065 306.225 34.9124C306.237 34.9182 306.242 34.9227 306.239 34.9206C306.236 34.918 306.221 34.9052 306.196 34.8748L303.092 37.3972C303.874 38.3599 304.965 38.904 306.228 38.904V34.904ZM306.23 34.9174L295.718 21.2374L292.546 23.6746L303.058 37.3546L306.23 34.9174ZM295.637 21.139C295.712 21.2248 295.964 21.551 295.964 22.084C295.964 22.6477 295.685 23.0116 295.546 23.1502L292.718 20.3218C292.355 20.6844 291.964 21.2803 291.964 22.084C291.964 22.8569 292.328 23.4312 292.627 23.773L295.637 21.139ZM295.719 22.9527L305.175 10.6167L302.001 8.18326L292.545 20.5193L295.719 22.9527ZM303.588 7.4H289.476V11.4H303.588V7.4ZM287.476 9.4V36.328H291.476V9.4H287.476ZM287.476 36.328C287.476 36.1688 287.527 35.6937 287.964 35.2904C288.37 34.915 288.79 34.904 288.852 34.904V38.904C289.33 38.904 290.062 38.797 290.677 38.2296C291.322 37.6343 291.476 36.8712 291.476 36.328H287.476ZM288.852 34.904H283.908V38.904H288.852V34.904ZM283.908 34.904C284.031 34.904 284.17 34.9231 284.313 34.9706C284.455 35.0182 284.578 35.086 284.676 35.16L282.276 38.36C282.75 38.7156 283.315 38.904 283.908 38.904V34.904ZM285.076 35.56C285.15 35.6586 285.218 35.7808 285.265 35.9235C285.313 36.0663 285.332 36.2047 285.332 36.328H281.332C281.332 36.9207 281.52 37.4858 281.876 37.96L285.076 35.56ZM285.332 36.328V3.88H281.332V36.328H285.332Z" fill="#F6F6F6"/>
</svg>
