<svg width="263" height="40" viewBox="0 0 263 40" fill="none" xmlns="http://www.w3.org/2000/svg">
<path d="M25.688 3.64L23.8311 4.38279L23.9293 4.62838L24.088 4.83999L25.688 3.64ZM25.64 4.072L24.0783 2.82261L24.0639 2.8406L24.0499 2.85892L25.64 4.072ZM22.088 8.728L23.6402 9.98918L23.6595 9.96542L23.6781 9.94107L22.088 8.728ZM8.648 9.496V7.496H6.648V9.496H8.648ZM8.648 17.176H6.648V19.176H8.648V17.176ZM8.648 23.272V21.272H6.648V23.272H8.648ZM2.648 36.856L1.048 38.056L1.21943 38.2846L1.448 38.456L2.648 36.856ZM2.648 3.592L1.23379 2.17779L1.23378 2.17779L2.648 3.592ZM3.08 5.4H25.304V1.4H3.08V5.4ZM25.304 5.4C25.1261 5.4 24.8138 5.36209 24.484 5.156C24.1382 4.93986 23.9335 4.63893 23.8311 4.38279L27.545 2.8972C27.3785 2.48107 27.0778 2.06014 26.604 1.764C26.1462 1.4779 25.674 1.4 25.304 1.4V5.4ZM24.088 4.83999C23.8653 4.54308 23.706 4.11139 23.7602 3.62312C23.808 3.19361 23.9993 2.92134 24.0783 2.82261L27.2017 5.32139C27.4087 5.06266 27.672 4.63839 27.7358 4.06487C27.806 3.43261 27.6067 2.86491 27.288 2.44001L24.088 4.83999ZM24.0499 2.85892L20.4979 7.51492L23.6781 9.94107L27.2301 5.28507L24.0499 2.85892ZM20.5358 7.46681C20.5111 7.49722 20.496 7.51003 20.4928 7.51258C20.4902 7.51468 20.4954 7.51023 20.5075 7.50437C20.5197 7.49845 20.5301 7.49541 20.5348 7.49437C20.5389 7.49347 20.5301 7.496 20.504 7.496V11.496C21.7674 11.496 22.858 10.9519 23.6402 9.98918L20.5358 7.46681ZM20.504 7.496H8.648V11.496H20.504V7.496ZM6.648 9.496V17.176H10.648V9.496H6.648ZM8.648 19.176H20.648V15.176H8.648V19.176ZM20.648 19.176C20.5317 19.176 20.0771 19.1456 19.6658 18.7342C19.2544 18.3229 19.224 17.8683 19.224 17.752H23.224C23.224 17.2517 23.0976 16.5091 22.4942 15.9058C21.8909 15.3024 21.1483 15.176 20.648 15.176V19.176ZM19.224 17.752V22.648H23.224V17.752H19.224ZM19.224 22.648C19.224 22.5857 19.235 22.1661 19.6104 21.7594C20.0137 21.3226 20.4888 21.272 20.648 21.272V25.272C21.1912 25.272 21.9543 25.1174 22.5496 24.4726C23.117 23.8579 23.224 23.1263 23.224 22.648H19.224ZM20.648 21.272H8.648V25.272H20.648V21.272ZM6.648 23.272V36.424H10.648V23.272H6.648ZM6.648 36.424C6.648 36.2648 6.69857 35.7897 7.13544 35.3864C7.54206 35.011 7.96166 35 8.024 35V39C8.50234 39 9.23394 38.893 9.84856 38.3256C10.4934 37.7303 10.648 36.9672 10.648 36.424H6.648ZM8.024 35H3.08V39H8.024V35ZM3.08 35C3.20327 35 3.34171 35.0191 3.48446 35.0666C3.6272 35.1142 3.74939 35.182 3.848 35.256L1.448 38.456C1.92219 38.8116 2.48726 39 3.08 39V35ZM4.248 35.656C4.32196 35.7546 4.38979 35.8768 4.43737 36.0195C4.48495 36.1623 4.504 36.3007 4.504 36.424H0.504C0.504 37.0167 0.692356 37.5818 1.048 38.056L4.248 35.656ZM4.504 36.424V3.976H0.504V36.424H4.504ZM4.504 3.976C4.504 4.09573 4.48588 4.26698 4.41266 4.46224C4.33713 4.66365 4.21754 4.85089 4.06222 5.00621L1.23378 2.17779C0.696316 2.71526 0.504 3.38749 0.504 3.976H4.504ZM4.06222 5.00621C3.97814 5.09029 3.84734 5.19426 3.66428 5.27562C3.47655 5.35906 3.27542 5.4 3.08 5.4V1.4C2.31817 1.4 1.68316 1.72841 1.23379 2.17779L4.06222 5.00621ZM29.6011 3.496L31.0153 4.91022L31.0153 4.91021L29.6011 3.496ZM55.7611 3.496L54.1611 4.696L54.3326 4.92457L54.5611 5.096L55.7611 3.496ZM55.5211 12.136L53.9732 10.8695L53.9518 10.8957L53.9313 10.9225L55.5211 12.136ZM47.9371 22.072L46.3473 20.8585L45.4194 22.0742L46.3495 23.2883L47.9371 22.072ZM58.7851 36.232L60.5001 35.203L60.4418 35.1057L60.3728 35.0157L58.7851 36.232ZM58.7851 36.712L57.0701 35.683L57.0306 35.7489L56.9963 35.8176L58.7851 36.712ZM50.7691 36.136L49.1833 37.3546L49.1998 37.3761L49.2169 37.3972L50.7691 36.136ZM40.2571 22.456L41.843 21.2374L41.8042 21.1869L41.7623 21.139L40.2571 22.456ZM40.2571 21.736L41.6713 23.1502L41.7644 23.0572L41.8444 22.9527L40.2571 21.736ZM49.7131 9.4L51.3004 10.6167L53.7662 7.4H49.7131V9.4ZM35.6011 9.4V7.4H33.6011V9.4H35.6011ZM29.6011 36.76L28.0011 37.96L28.1726 38.1886L28.4011 38.36L29.6011 36.76ZM31.4571 3.88C31.4571 3.99972 31.439 4.17098 31.3658 4.36625C31.2903 4.56766 31.1707 4.7549 31.0153 4.91022L28.1869 2.08178C27.6494 2.61925 27.4571 3.29149 27.4571 3.88H31.4571ZM31.0153 4.91021C30.9313 4.99429 30.8005 5.09826 30.6174 5.17962C30.4297 5.26306 30.2285 5.304 30.0331 5.304V1.304C29.2713 1.304 28.6363 1.63241 28.1869 2.08179L31.0153 4.91021ZM30.0331 5.304H55.3771V1.304H30.0331V5.304ZM55.3771 5.304C55.1837 5.304 54.9437 5.26338 54.6987 5.14085C54.4537 5.01833 54.2772 4.85076 54.1611 4.696L57.3611 2.296C56.8874 1.66439 56.1666 1.304 55.3771 1.304V5.304ZM54.5611 5.096C54.4064 4.97993 54.2388 4.80347 54.1163 4.55842C53.9937 4.31337 53.9531 4.07344 53.9531 3.88H57.9531C57.9531 3.09049 57.5927 2.36971 56.9611 1.896L54.5611 5.096ZM53.9531 3.88V10.936H57.9531V3.88H53.9531ZM53.9531 10.936C53.9531 10.9404 53.9528 10.9373 53.9544 10.9282C53.9559 10.9189 53.9588 10.9072 53.9633 10.8946C53.9679 10.882 53.9726 10.8725 53.9759 10.8668C53.9791 10.8612 53.9792 10.8622 53.9732 10.8695L57.069 13.4025C57.6446 12.6991 57.9531 11.8533 57.9531 10.936H53.9531ZM53.9313 10.9225L46.3473 20.8585L49.5269 23.2855L57.1109 13.3495L53.9313 10.9225ZM46.3495 23.2883L57.1975 37.4483L60.3728 35.0157L49.5248 20.8557L46.3495 23.2883ZM57.0701 37.261C56.963 37.0825 56.8571 36.811 56.8571 36.472C56.8571 36.133 56.963 35.8615 57.0701 35.683L60.5001 37.741C60.7032 37.4025 60.8571 36.971 60.8571 36.472C60.8571 35.973 60.7032 35.5415 60.5001 35.203L57.0701 37.261ZM56.9963 35.8176C57.1208 35.5686 57.337 35.3046 57.6608 35.1195C57.9716 34.9419 58.2639 34.904 58.4491 34.904V38.904C58.7944 38.904 59.2226 38.8341 59.6454 38.5925C60.0812 38.3434 60.3855 37.9834 60.574 37.6064L56.9963 35.8176ZM58.4491 34.904H52.3531V38.904H58.4491V34.904ZM52.3531 34.904C52.3271 34.904 52.3182 34.9015 52.3223 34.9024C52.3271 34.9034 52.3375 34.9065 52.3497 34.9124C52.3618 34.9182 52.3669 34.9227 52.3643 34.9206C52.3612 34.918 52.3461 34.9052 52.3214 34.8748L49.2169 37.3972C49.9991 38.3599 51.0897 38.904 52.3531 38.904V34.904ZM52.355 34.9174L41.843 21.2374L38.6713 23.6746L49.1833 37.3546L52.355 34.9174ZM41.7623 21.139C41.8374 21.2248 42.0891 21.551 42.0891 22.084C42.0891 22.6477 41.81 23.0116 41.6713 23.1502L38.8429 20.3218C38.4803 20.6844 38.0891 21.2803 38.0891 22.084C38.0891 22.8569 38.4529 23.4312 38.752 23.773L41.7623 21.139ZM41.8444 22.9527L51.3004 10.6167L48.1258 8.18326L38.6698 20.5193L41.8444 22.9527ZM49.7131 7.4H35.6011V11.4H49.7131V7.4ZM33.6011 9.4V36.328H37.6011V9.4H33.6011ZM33.6011 36.328C33.6011 36.1688 33.6517 35.6937 34.0886 35.2904C34.4952 34.915 34.9148 34.904 34.9771 34.904V38.904C35.4555 38.904 36.1871 38.797 36.8017 38.2296C37.4466 37.6343 37.6011 36.8712 37.6011 36.328H33.6011ZM34.9771 34.904H30.0331V38.904H34.9771V34.904ZM30.0331 34.904C30.1564 34.904 30.2948 34.9231 30.4376 34.9706C30.5803 35.0182 30.7025 35.086 30.8011 35.16L28.4011 38.36C28.8753 38.7156 29.4404 38.904 30.0331 38.904V34.904ZM31.2011 35.56C31.2751 35.6586 31.3429 35.7808 31.3905 35.9235C31.4381 36.0663 31.4571 36.2047 31.4571 36.328H27.4571C27.4571 36.9207 27.6455 37.4858 28.0011 37.96L31.2011 35.56ZM31.4571 36.328V3.88H27.4571V36.328H31.4571ZM61.004 13.192L59.1686 12.3976L59.1657 12.4042L59.1628 12.4109L61.004 13.192ZM64.7 7.672L66.1142 9.08621L66.1142 9.08621L64.7 7.672ZM70.22 4.024L70.9773 5.87509L70.9892 5.8702L71.0011 5.86516L70.22 4.024ZM77.036 2.728L77.0097 4.72782L77.036 2.728ZM83.852 4.168L83.0475 5.99904L83.0475 5.99904L83.852 4.168ZM89.324 7.96L87.8812 9.34506L87.8884 9.3525L87.8956 9.35986L89.324 7.96ZM93.02 13.576L91.1746 14.3472L91.1788 14.3571L93.02 13.576ZM94.316 20.344L92.3162 20.3173L92.3162 20.3177L94.316 20.344ZM92.876 27.16L94.707 27.9645L94.707 27.9645L92.876 27.16ZM89.084 32.68L87.6841 31.2516L87.6769 31.2586L87.6698 31.2658L89.084 32.68ZM83.564 36.376L84.3213 38.2271L84.3332 38.2222L84.3451 38.2172L83.564 36.376ZM69.98 36.328L69.1651 38.1545L69.1819 38.162L69.1989 38.1692L69.98 36.328ZM64.556 32.584L63.1132 33.9691L63.1202 33.9763L63.1273 33.9836L64.556 32.584ZM60.956 26.968L59.101 27.7156L59.101 27.7156L60.956 26.968ZM66.716 24.76L64.8799 25.5529L64.8799 25.5529L66.716 24.76ZM69.164 28.456L70.5998 27.0637L69.164 28.456ZM72.716 30.952L71.8917 32.7742L71.8917 32.7742L72.716 30.952ZM77.036 31.864V33.864H77.0573L77.0785 33.8635L77.036 31.864ZM81.308 30.856L80.4481 29.0503L80.4481 29.0503L81.308 30.856ZM84.812 28.312L83.3556 26.9413L83.3543 26.9426L84.812 28.312ZM87.212 24.568L89.0631 25.3253L89.0661 25.318L89.069 25.3108L87.212 24.568ZM88.028 20.056H86.028V20.0764L86.0284 20.0968L88.028 20.056ZM84.668 11.944L83.2322 13.3363L83.2429 13.3473L83.2538 13.3582L84.668 11.944ZM81.068 9.448L80.2437 11.2702L80.2517 11.2738L80.2597 11.2774L81.068 9.448ZM76.796 8.536V6.536H76.7747L76.7535 6.53645L76.796 8.536ZM72.524 9.544L73.3483 11.3662L73.3662 11.3581L73.3839 11.3497L72.524 9.544ZM69.02 12.088L70.4777 13.4573L70.4879 13.4465L70.4979 13.4355L69.02 12.088ZM66.668 15.784L68.5191 16.5413L68.5191 16.5413L66.668 15.784ZM61.66 20.056C61.66 17.8403 62.0616 15.8202 62.8452 13.9731L59.1628 12.4109C58.1544 14.7878 57.66 17.3437 57.66 20.056H61.66ZM62.8394 13.9864C63.675 12.0561 64.7695 10.4309 66.1142 9.08621L63.2858 6.25779C61.5585 7.98506 60.189 10.0399 59.1686 12.3976L62.8394 13.9864ZM66.1142 9.08621C67.4889 7.71151 69.1038 6.64152 70.9773 5.87509L69.4627 2.1729C67.1122 3.13448 65.0471 4.49648 63.2858 6.25779L66.1142 9.08621ZM71.0011 5.86516C72.8427 5.08388 74.8379 4.69925 77.0097 4.72782L77.0623 0.728171C74.3701 0.692747 71.8213 1.17212 69.4389 2.18283L71.0011 5.86516ZM77.0097 4.72782C79.1884 4.75649 81.1941 5.1847 83.0475 5.99904L84.6565 2.33696C82.2859 1.2953 79.7476 0.763503 77.0623 0.728171L77.0097 4.72782ZM83.0475 5.99904C84.9294 6.82593 86.534 7.94167 87.8812 9.34506L90.7668 6.57494C89.042 4.77833 86.9986 3.36606 84.6565 2.33696L83.0475 5.99904ZM87.8956 9.35986C89.2794 10.7719 90.3728 12.4284 91.1747 14.3472L94.8653 12.8048C93.8752 10.4356 92.5046 8.34811 90.7524 6.56014L87.8956 9.35986ZM91.1788 14.3571C91.9615 16.202 92.3447 18.1816 92.3162 20.3173L96.3158 20.3707C96.3513 17.7064 95.8705 15.174 94.8612 12.7949L91.1788 14.3571ZM92.3162 20.3177C92.2875 22.4964 91.8593 24.5021 91.045 26.3555L94.707 27.9645C95.7487 25.5939 96.2805 23.0556 96.3158 20.3703L92.3162 20.3177ZM91.045 26.3555C90.2165 28.241 89.0965 29.8675 87.6841 31.2516L90.4839 34.1084C92.2715 32.3565 93.6795 30.303 94.707 27.9645L91.045 26.3555ZM87.6698 31.2658C86.2897 32.6458 84.6667 33.7356 82.7829 34.5348L84.3451 38.2172C86.6853 37.2244 88.7423 35.8502 90.4982 34.0942L87.6698 31.2658ZM82.8067 34.5249C80.9506 35.2842 78.9376 35.672 76.748 35.672V39.672C79.4224 39.672 81.9534 39.1958 84.3213 38.2271L82.8067 34.5249ZM76.748 35.672C74.6038 35.672 72.6147 35.2732 70.7611 34.4868L69.1989 38.1692C71.5693 39.1748 74.0922 39.672 76.748 39.672V35.672ZM70.7949 34.5015C68.9357 33.6721 67.3381 32.5661 65.9847 31.1844L63.1273 33.9836C64.8459 35.7379 66.8643 37.1279 69.1651 38.1545L70.7949 34.5015ZM65.9988 31.1989C64.6471 29.7909 63.5837 28.1377 62.811 26.2204L59.101 27.7156C60.0563 30.0863 61.3929 32.1771 63.1132 33.9691L65.9988 31.1989ZM62.811 26.2204C62.049 24.3294 61.66 22.2809 61.66 20.056H57.66C57.66 22.7591 58.135 25.3186 59.101 27.7156L62.811 26.2204ZM63.804 20.296C63.804 22.1304 64.1613 23.8888 64.8799 25.5529L68.5521 23.9671C68.0547 22.8152 67.804 21.5976 67.804 20.296H63.804ZM64.8799 25.5529C65.5798 27.1737 66.5284 28.611 67.7282 29.8483L70.5998 27.0637C69.7516 26.189 69.0682 25.1623 68.5521 23.9671L64.8799 25.5529ZM67.7282 29.8483C68.9277 31.0853 70.3193 32.0629 71.8917 32.7742L73.5403 29.1298C72.4247 28.6251 71.4483 27.9387 70.5998 27.0637L67.7282 29.8483ZM71.8917 32.7742C73.5054 33.5042 75.2277 33.864 77.036 33.864V29.864C75.7723 29.864 74.6146 29.6158 73.5403 29.1298L71.8917 32.7742ZM77.0785 33.8635C78.8625 33.8256 80.5654 33.4248 82.1679 32.6617L80.4481 29.0503C79.3626 29.5672 78.2175 29.8384 76.9935 29.8645L77.0785 33.8635ZM82.1679 32.6617C83.7303 31.9177 85.1026 30.9237 86.2697 29.6813L83.3543 26.9426C82.5374 27.8123 81.5737 28.5143 80.4481 29.0503L82.1679 32.6617ZM86.2684 29.6827C87.4636 28.4129 88.396 26.956 89.0631 25.3253L85.3609 23.8107C84.876 24.996 84.2084 26.0351 83.3556 26.9413L86.2684 29.6827ZM89.069 25.3108C89.7457 23.6189 90.065 21.8482 90.0276 20.0152L86.0284 20.0968C86.055 21.3998 85.8303 22.6371 85.355 23.8252L89.069 25.3108ZM90.028 20.056C90.028 18.2216 89.6707 16.4632 88.9521 14.7991L85.2799 16.3849C85.7773 17.5368 86.028 18.7544 86.028 20.056H90.028ZM88.9521 14.7991C88.25 13.1731 87.2952 11.7428 86.0822 10.5298L83.2538 13.3582C84.0888 14.1932 84.766 15.1949 85.2799 16.3849L88.9521 14.7991ZM86.1038 10.5517C84.8966 9.30677 83.4822 8.32819 81.8763 7.61863L80.2597 11.2774C81.4058 11.7838 82.3914 12.4692 83.2322 13.3363L86.1038 10.5517ZM81.8923 7.62579C80.2841 6.89827 78.5786 6.536 76.796 6.536V10.536C78.0214 10.536 79.1639 10.7817 80.2437 11.2702L81.8923 7.62579ZM76.7535 6.53645C74.9695 6.57441 73.2666 6.97522 71.6641 7.73828L73.3839 11.3497C74.4694 10.8328 75.6145 10.5616 76.8385 10.5355L76.7535 6.53645ZM71.6997 7.72178C70.1083 8.4417 68.7177 9.45106 67.5421 10.7405L70.4979 13.4355C71.3063 12.5489 72.2517 11.8623 73.3483 11.3662L71.6997 7.72178ZM67.5623 10.7186C66.3946 11.9617 65.4808 13.4038 64.8169 15.0267L68.5191 16.5413C69.0072 15.3482 69.6614 14.3263 70.4777 13.4573L67.5623 10.7186ZM64.8169 15.0267C64.1375 16.6874 63.804 18.45 63.804 20.296H67.804C67.804 18.942 68.0465 17.6966 68.5191 16.5413L64.8169 15.0267ZM99.9605 3.592L98.5463 2.17779L98.5463 2.17779L99.9605 3.592ZM106.537 4.168L108.122 2.94858L108.106 2.92748L108.089 2.90681L106.537 4.168ZM123.817 26.632L122.231 27.8514L125.817 32.5122V26.632H123.817ZM123.193 36.232L121.606 37.4493L121.623 37.4715L121.64 37.4932L123.193 36.232ZM105.961 13.768L107.547 12.5507L103.961 7.87477V13.768H105.961ZM99.9605 36.856L98.3605 38.056L98.5319 38.2846L98.7605 38.456L99.9605 36.856ZM101.817 36.424V3.976H97.8165V36.424H101.817ZM101.817 3.976C101.817 4.09573 101.798 4.26698 101.725 4.46224C101.65 4.66365 101.53 4.85089 101.375 5.00621L98.5463 2.17779C98.0088 2.71526 97.8165 3.38749 97.8165 3.976H101.817ZM101.375 5.00621C101.291 5.09029 101.16 5.19426 100.977 5.27562C100.789 5.35906 100.588 5.4 100.393 5.4V1.4C99.6307 1.4 98.9957 1.72841 98.5463 2.17779L101.375 5.00621ZM100.393 5.4H104.953V1.4H100.393V5.4ZM104.953 5.4C104.979 5.4 104.987 5.40253 104.983 5.40162C104.979 5.40058 104.968 5.39755 104.956 5.39163C104.944 5.38577 104.939 5.38132 104.941 5.38342C104.944 5.38597 104.96 5.39878 104.984 5.42918L108.089 2.90681C107.306 1.94405 106.216 1.4 104.953 1.4V5.4ZM104.951 5.38742L122.231 27.8514L125.402 25.4126L108.122 2.94858L104.951 5.38742ZM125.817 26.632V3.976H121.817V26.632H125.817ZM125.817 3.976C125.817 4.09229 125.786 4.54685 125.375 4.95821C124.963 5.36957 124.509 5.4 124.393 5.4V1.4C123.892 1.4 123.15 1.52642 122.546 2.12978C121.943 2.73314 121.817 3.47571 121.817 3.976H125.817ZM124.393 5.4H129.337V1.4H124.393V5.4ZM129.337 5.4C129.22 5.4 128.766 5.36957 128.354 4.95821C127.943 4.54685 127.913 4.09229 127.913 3.976H131.913C131.913 3.47571 131.786 2.73314 131.183 2.12978C130.579 1.52642 129.837 1.4 129.337 1.4V5.4ZM127.913 3.976V36.424H131.913V3.976H127.913ZM127.913 36.424C127.913 36.3077 127.943 35.8531 128.354 35.4418C128.766 35.0304 129.22 35 129.337 35V39C129.837 39 130.579 38.8736 131.183 38.2702C131.786 37.6669 131.913 36.9243 131.913 36.424H127.913ZM129.337 35H124.777V39H129.337V35ZM124.777 35C124.75 35 124.742 34.9975 124.746 34.9984C124.75 34.9994 124.761 35.0025 124.773 35.0084C124.785 35.0142 124.79 35.0187 124.788 35.0166C124.785 35.014 124.769 35.0012 124.745 34.9708L121.64 37.4932C122.423 38.4559 123.513 39 124.777 39V35ZM124.779 35.0147L107.547 12.5507L104.374 14.9853L121.606 37.4493L124.779 35.0147ZM103.961 13.768V36.424H107.961V13.768H103.961ZM103.961 36.424C103.961 36.2648 104.011 35.7897 104.448 35.3864C104.855 35.011 105.274 35 105.337 35V39C105.815 39 106.546 38.893 107.161 38.3256C107.806 37.7303 107.961 36.9672 107.961 36.424H103.961ZM105.337 35H100.393V39H105.337V35ZM100.393 35C100.516 35 100.654 35.0191 100.797 35.0666C100.94 35.1142 101.062 35.182 101.161 35.256L98.7605 38.456C99.2347 38.8116 99.7998 39 100.393 39V35ZM101.561 35.656C101.634 35.7546 101.702 35.8768 101.75 36.0195C101.797 36.1623 101.817 36.3007 101.817 36.424H97.8165C97.8165 37.0167 98.0049 37.5818 98.3605 38.056L101.561 35.656ZM135.312 3.496L136.726 4.91022L136.726 4.91021L135.312 3.496ZM158.16 4.072L159.75 2.85892L159.731 2.83458L159.712 2.81081L158.16 4.072ZM161.712 8.728L160.122 9.94107L160.136 9.95939L160.15 9.97739L161.712 8.728ZM161.76 9.208L160.045 8.179L160.005 8.24487L159.971 8.31358L161.76 9.208ZM150.672 9.4V7.4H148.672V9.4H150.672ZM144.576 9.4H146.576V7.4H144.576V9.4ZM135.312 9.256L133.712 10.456L133.883 10.6846L134.112 10.856L135.312 9.256ZM137.168 3.88C137.168 3.99972 137.15 4.17098 137.076 4.36625C137.001 4.56766 136.881 4.7549 136.726 4.91022L133.898 2.08178C133.36 2.61925 133.168 3.29149 133.168 3.88H137.168ZM136.726 4.91021C136.642 4.99429 136.511 5.09826 136.328 5.17962C136.14 5.26306 135.939 5.304 135.744 5.304V1.304C134.982 1.304 134.347 1.63241 133.898 2.08179L136.726 4.91021ZM135.744 5.304H156.576V1.304H135.744V5.304ZM156.576 5.304C156.602 5.304 156.611 5.30653 156.607 5.30562C156.602 5.30458 156.591 5.30155 156.579 5.29563C156.567 5.28977 156.562 5.28532 156.565 5.28742C156.568 5.28997 156.583 5.30278 156.608 5.33318L159.712 2.81081C158.93 1.84805 157.839 1.304 156.576 1.304V5.304ZM156.57 5.28507L160.122 9.94107L163.302 7.51492L159.75 2.85892L156.57 5.28507ZM160.15 9.97739C160.039 9.838 159.869 9.56381 159.83 9.167C159.788 8.75251 159.908 8.40661 160.045 8.179L163.475 10.237C163.707 9.84939 163.867 9.34348 163.81 8.76899C163.754 8.21218 163.513 7.778 163.273 7.47861L160.15 9.97739ZM159.971 8.31358C160.132 7.99052 160.398 7.72468 160.721 7.56315C161.013 7.41719 161.262 7.4 161.376 7.4V11.4C162.023 11.4 163.029 11.1415 163.549 10.1024L159.971 8.31358ZM161.376 7.4H150.672V11.4H161.376V7.4ZM148.672 9.4V36.328H152.672V9.4H148.672ZM148.672 36.328C148.672 36.2117 148.702 35.7571 149.114 35.3458C149.525 34.9344 149.979 34.904 150.096 34.904V38.904C150.596 38.904 151.339 38.7776 151.942 38.1742C152.545 37.5709 152.672 36.8283 152.672 36.328H148.672ZM150.096 34.904H145.152V38.904H150.096V34.904ZM145.152 34.904C145.268 34.904 145.723 34.9344 146.134 35.3458C146.545 35.7571 146.576 36.2117 146.576 36.328H142.576C142.576 36.8283 142.702 37.5709 143.306 38.1742C143.909 38.7776 144.651 38.904 145.152 38.904V34.904ZM146.576 36.328V9.4H142.576V36.328H146.576ZM144.576 7.4H135.744V11.4H144.576V7.4ZM135.744 7.4C135.867 7.4 136.005 7.41905 136.148 7.46663C136.291 7.51421 136.413 7.58203 136.512 7.65599L134.112 10.856C134.586 11.2116 135.151 11.4 135.744 11.4V7.4ZM136.912 8.056C136.986 8.15461 137.054 8.2768 137.101 8.41954C137.149 8.56228 137.168 8.70073 137.168 8.824H133.168C133.168 9.41674 133.356 9.98181 133.712 10.456L136.912 8.056ZM137.168 8.824V3.88H133.168V8.824H137.168ZM188.719 3.64L186.862 4.38279L186.961 4.62838L187.119 4.83999L188.719 3.64ZM188.671 4.072L187.11 2.82261L187.095 2.8406L187.081 2.85892L188.671 4.072ZM185.119 8.728L186.671 9.98918L186.691 9.96542L186.709 9.94107L185.119 8.728ZM171.679 9.496V7.496H169.679V9.496H171.679ZM171.679 17.176H169.679V19.176H171.679V17.176ZM171.679 23.272V21.272H169.679V23.272H171.679ZM171.679 30.904H169.679V32.904H171.679V30.904ZM187.231 31.096L185.631 32.296L185.803 32.5246L186.031 32.696L187.231 31.096ZM165.679 36.856L164.079 38.056L164.251 38.2846L164.479 38.456L165.679 36.856ZM165.679 3.592L164.265 2.17779L164.265 2.17779L165.679 3.592ZM166.111 5.4H188.335V1.4H166.111V5.4ZM188.335 5.4C188.157 5.4 187.845 5.36209 187.515 5.156C187.169 4.93986 186.965 4.63893 186.862 4.38279L190.576 2.8972C190.41 2.48107 190.109 2.06014 189.635 1.764C189.177 1.4779 188.705 1.4 188.335 1.4V5.4ZM187.119 4.83999C186.897 4.54308 186.737 4.11139 186.791 3.62312C186.839 3.19361 187.031 2.92134 187.11 2.82261L190.233 5.32139C190.44 5.06266 190.703 4.63839 190.767 4.06487C190.837 3.43261 190.638 2.86491 190.319 2.44001L187.119 4.83999ZM187.081 2.85892L183.529 7.51492L186.709 9.94107L190.261 5.28507L187.081 2.85892ZM183.567 7.46681C183.542 7.49722 183.527 7.51003 183.524 7.51258C183.521 7.51468 183.527 7.51023 183.539 7.50437C183.551 7.49845 183.561 7.49541 183.566 7.49437C183.57 7.49347 183.561 7.496 183.535 7.496V11.496C184.799 11.496 185.889 10.9519 186.671 9.98918L183.567 7.46681ZM183.535 7.496H171.679V11.496H183.535V7.496ZM169.679 9.496V17.176H173.679V9.496H169.679ZM171.679 19.176H183.679V15.176H171.679V19.176ZM183.679 19.176C183.563 19.176 183.108 19.1456 182.697 18.7342C182.286 18.3229 182.255 17.8683 182.255 17.752H186.255C186.255 17.2517 186.129 16.5091 185.525 15.9058C184.922 15.3024 184.18 15.176 183.679 15.176V19.176ZM182.255 17.752V22.648H186.255V17.752H182.255ZM182.255 22.648C182.255 22.5857 182.266 22.1661 182.642 21.7594C183.045 21.3226 183.52 21.272 183.679 21.272V25.272C184.222 25.272 184.986 25.1174 185.581 24.4726C186.148 23.8579 186.255 23.1263 186.255 22.648H182.255ZM183.679 21.272H171.679V25.272H183.679V21.272ZM169.679 23.272V30.904H173.679V23.272H169.679ZM171.679 32.904H186.847V28.904H171.679V32.904ZM186.847 32.904C186.654 32.904 186.414 32.8634 186.169 32.7409C185.924 32.6183 185.747 32.4508 185.631 32.296L188.831 29.896C188.358 29.2644 187.637 28.904 186.847 28.904V32.904ZM186.031 32.696C185.876 32.5799 185.709 32.4035 185.586 32.1584C185.464 31.9134 185.423 31.6734 185.423 31.48H189.423C189.423 30.6905 189.063 29.9697 188.431 29.496L186.031 32.696ZM185.423 31.48V36.424H189.423V31.48H185.423ZM185.423 36.424C185.423 36.3077 185.454 35.8531 185.865 35.4418C186.276 35.0304 186.731 35 186.847 35V39C187.348 39 188.09 38.8736 188.693 38.2702C189.297 37.6669 189.423 36.9243 189.423 36.424H185.423ZM186.847 35H166.111V39H186.847V35ZM166.111 35C166.235 35 166.373 35.0191 166.516 35.0666C166.658 35.1142 166.781 35.182 166.879 35.256L164.479 38.456C164.953 38.8116 165.519 39 166.111 39V35ZM167.279 35.656C167.353 35.7546 167.421 35.8768 167.469 36.0195C167.516 36.1623 167.535 36.3007 167.535 36.424H163.535C163.535 37.0167 163.724 37.5818 164.079 38.056L167.279 35.656ZM167.535 36.424V3.976H163.535V36.424H167.535ZM167.535 3.976C167.535 4.09573 167.517 4.26698 167.444 4.46224C167.368 4.66365 167.249 4.85089 167.093 5.00621L164.265 2.17779C163.728 2.71526 163.535 3.38749 163.535 3.976H167.535ZM167.093 5.00621C167.009 5.09029 166.879 5.19426 166.696 5.27562C166.508 5.35906 166.307 5.4 166.111 5.4V1.4C165.349 1.4 164.714 1.72841 164.265 2.17779L167.093 5.00621ZM195.82 3.592L194.406 2.17779L194.406 2.17779L195.82 3.592ZM202.396 4.168L203.981 2.94858L203.965 2.92748L203.948 2.90681L202.396 4.168ZM219.676 26.632L218.091 27.8514L221.676 32.5122V26.632H219.676ZM219.052 36.232L217.465 37.4493L217.482 37.4715L217.5 37.4932L219.052 36.232ZM201.82 13.768L203.407 12.5507L199.82 7.87477V13.768H201.82ZM195.82 36.856L194.22 38.056L194.391 38.2846L194.62 38.456L195.82 36.856ZM197.676 36.424V3.976H193.676V36.424H197.676ZM197.676 3.976C197.676 4.09573 197.658 4.26698 197.585 4.46224C197.509 4.66365 197.389 4.85089 197.234 5.00621L194.406 2.17779C193.868 2.71526 193.676 3.38749 193.676 3.976H197.676ZM197.234 5.00621C197.15 5.09029 197.019 5.19426 196.836 5.27562C196.648 5.35906 196.447 5.4 196.252 5.4V1.4C195.49 1.4 194.855 1.72841 194.406 2.17779L197.234 5.00621ZM196.252 5.4H200.812V1.4H196.252V5.4ZM200.812 5.4C200.838 5.4 200.847 5.40253 200.843 5.40162C200.838 5.40058 200.828 5.39755 200.815 5.39163C200.803 5.38577 200.798 5.38132 200.801 5.38342C200.804 5.38597 200.819 5.39878 200.844 5.42918L203.948 2.90681C203.166 1.94405 202.075 1.4 200.812 1.4V5.4ZM200.811 5.38742L218.091 27.8514L221.261 25.4126L203.981 2.94858L200.811 5.38742ZM221.676 26.632V3.976H217.676V26.632H221.676ZM221.676 3.976C221.676 4.09229 221.645 4.54685 221.234 4.95821C220.823 5.36957 220.368 5.4 220.252 5.4V1.4C219.752 1.4 219.009 1.52642 218.406 2.12978C217.802 2.73314 217.676 3.47571 217.676 3.976H221.676ZM220.252 5.4H225.196V1.4H220.252V5.4ZM225.196 5.4C225.08 5.4 224.625 5.36957 224.214 4.95821C223.802 4.54685 223.772 4.09229 223.772 3.976H227.772C227.772 3.47571 227.645 2.73314 227.042 2.12978C226.439 1.52642 225.696 1.4 225.196 1.4V5.4ZM223.772 3.976V36.424H227.772V3.976H223.772ZM223.772 36.424C223.772 36.3077 223.802 35.8531 224.214 35.4418C224.625 35.0304 225.08 35 225.196 35V39C225.696 39 226.439 38.8736 227.042 38.2702C227.645 37.6669 227.772 36.9243 227.772 36.424H223.772ZM225.196 35H220.636V39H225.196V35ZM220.636 35C220.61 35 220.601 34.9975 220.605 34.9984C220.61 34.9994 220.62 35.0025 220.632 35.0084C220.644 35.0142 220.65 35.0187 220.647 35.0166C220.644 35.014 220.629 35.0012 220.604 34.9708L217.5 37.4932C218.282 38.4559 219.372 39 220.636 39V35ZM220.639 35.0147L203.407 12.5507L200.233 14.9853L217.465 37.4493L220.639 35.0147ZM199.82 13.768V36.424H203.82V13.768H199.82ZM199.82 36.424C199.82 36.2648 199.87 35.7897 200.307 35.3864C200.714 35.011 201.134 35 201.196 35V39C201.674 39 202.406 38.893 203.02 38.3256C203.665 37.7303 203.82 36.9672 203.82 36.424H199.82ZM201.196 35H196.252V39H201.196V35ZM196.252 35C196.375 35 196.514 35.0191 196.656 35.0666C196.799 35.1142 196.921 35.182 197.02 35.256L194.62 38.456C195.094 38.8116 195.659 39 196.252 39V35ZM197.42 35.656C197.494 35.7546 197.562 35.8768 197.609 36.0195C197.657 36.1623 197.676 36.3007 197.676 36.424H193.676C193.676 37.0167 193.864 37.5818 194.22 38.056L197.42 35.656ZM232.851 3.592L231.437 2.17779L231.437 2.17779L232.851 3.592ZM250.467 4.696L249.679 6.53429L249.679 6.53429L250.467 4.696ZM255.747 8.248L254.333 9.66221L254.341 9.66981L254.348 9.67734L255.747 8.248ZM259.347 13.48L257.52 14.2923L257.527 14.3099L257.536 14.3274L259.347 13.48ZM260.787 19.864L258.787 19.8922L258.788 19.9051L258.788 19.918L260.787 19.864ZM259.491 26.536L257.665 25.7211L257.659 25.7329L257.654 25.7448L259.491 26.536ZM255.795 32.008L257.195 33.4367L257.202 33.4295L257.209 33.4222L255.795 32.008ZM250.275 35.656L249.494 33.8148L249.484 33.8192L250.275 35.656ZM232.851 36.856L231.251 38.056L231.423 38.2846L231.651 38.456L232.851 36.856ZM238.851 30.904H236.851V32.904H238.851V30.904ZM248.115 30.088L248.897 31.9287L248.908 31.924L248.919 31.9193L248.115 30.088ZM251.523 27.784L252.937 29.1982L252.937 29.1982L251.523 27.784ZM253.827 24.376L251.996 23.572L251.991 23.5828L251.986 23.5937L253.827 24.376ZM253.827 16.072L251.98 16.838L251.991 16.8656L252.003 16.8927L253.827 16.072ZM251.523 12.664L250.086 14.0548L250.109 14.0784L250.132 14.1012L251.523 12.664ZM248.115 10.36L247.294 12.1838L247.322 12.1961L247.349 12.2075L248.115 10.36ZM238.851 9.496V7.496H236.851V9.496H238.851ZM234.707 3.976C234.707 4.09573 234.689 4.26698 234.616 4.46224C234.54 4.66365 234.421 4.85089 234.265 5.00621L231.437 2.17779C230.899 2.71526 230.707 3.38749 230.707 3.976H234.707ZM234.265 5.00621C234.181 5.09029 234.05 5.19426 233.867 5.27562C233.68 5.35906 233.479 5.4 233.283 5.4V1.4C232.521 1.4 231.886 1.72841 231.437 2.17779L234.265 5.00621ZM233.283 5.4H243.987V1.4H233.283V5.4ZM243.987 5.4C246.034 5.4 247.925 5.78233 249.679 6.53429L251.255 2.85771C248.978 1.88166 246.548 1.4 243.987 1.4V5.4ZM249.679 6.53429C251.469 7.30125 253.014 8.34376 254.333 9.66221L257.161 6.83378C255.472 5.14423 253.497 3.81875 251.255 2.85771L249.679 6.53429ZM254.348 9.67734C255.663 10.9641 256.721 12.4959 257.52 14.2923L261.175 12.6677C260.181 10.4321 258.839 8.47588 257.146 6.81866L254.348 9.67734ZM257.536 14.3274C258.339 16.0451 258.759 17.8926 258.787 19.8922L262.787 19.8358C262.751 17.2914 262.211 14.8829 261.159 12.6326L257.536 14.3274ZM258.788 19.918C258.844 21.9994 258.466 23.9252 257.665 25.7211L261.318 27.3509C262.372 24.9868 262.858 22.4646 262.786 19.81L258.788 19.918ZM257.654 25.7448C256.856 27.5973 255.766 29.2087 254.381 30.5938L257.209 33.4222C258.96 31.6713 260.334 29.6347 261.328 27.3272L257.654 25.7448ZM254.396 30.5793C253.014 31.9325 251.386 33.012 249.494 33.8148L251.056 37.4972C253.388 36.508 255.44 35.1555 257.195 33.4367L254.396 30.5793ZM249.484 33.8192C247.665 34.6026 245.712 35 243.603 35V39C246.231 39 248.725 38.5014 251.066 37.4928L249.484 33.8192ZM243.603 35H233.283V39H243.603V35ZM233.283 35C233.406 35 233.545 35.0191 233.688 35.0666C233.83 35.1142 233.953 35.182 234.051 35.256L231.651 38.456C232.125 38.8116 232.69 39 233.283 39V35ZM234.451 35.656C234.525 35.7546 234.593 35.8768 234.64 36.0195C234.688 36.1623 234.707 36.3007 234.707 36.424H230.707C230.707 37.0167 230.895 37.5818 231.251 38.056L234.451 35.656ZM234.707 36.424V3.976H230.707V36.424H234.707ZM238.851 32.904H243.987V28.904H238.851V32.904ZM243.987 32.904C245.712 32.904 247.356 32.5839 248.897 31.9287L247.333 28.2473C246.315 28.6801 245.206 28.904 243.987 28.904V32.904ZM248.919 31.9193C250.446 31.249 251.792 30.3435 252.937 29.1982L250.109 26.3698C249.334 27.1445 248.408 27.775 247.311 28.2567L248.919 31.9193ZM252.937 29.1982C254.109 28.0265 255.023 26.6764 255.668 25.1583L251.986 23.5937C251.544 24.6356 250.921 25.5575 250.109 26.3698L252.937 29.1982ZM255.658 25.18C256.349 23.6075 256.691 21.941 256.691 20.2H252.691C252.691 21.403 252.457 22.5205 251.996 23.572L255.658 25.18ZM256.691 20.2C256.691 18.4591 256.349 16.8018 255.651 15.2513L252.003 16.8927C252.458 17.9022 252.691 18.9969 252.691 20.2H256.691ZM255.675 15.306C255.029 13.7489 254.108 12.3825 252.914 11.2268L250.132 14.1012C250.922 14.8655 251.537 15.7711 251.98 16.838L255.675 15.306ZM252.96 11.2732C251.805 10.0789 250.438 9.15815 248.881 8.51251L247.349 12.2075C248.416 12.6498 249.322 13.2651 250.086 14.0548L252.96 11.2732ZM248.936 8.53616C247.385 7.8384 245.728 7.496 243.987 7.496V11.496C245.19 11.496 246.285 11.7296 247.294 12.1838L248.936 8.53616ZM243.987 7.496H238.851V11.496H243.987V7.496ZM236.851 9.496V30.904H240.851V9.496H236.851Z" fill="#F6F6F6"/>
</svg>
