<svg width="231" height="36" viewBox="0 0 231 36" fill="none" xmlns="http://www.w3.org/2000/svg">
<path d="M1.08 1.4H6.024C6.44 1.4 6.648 1.592 6.648 1.976V28.904H20.088C20.28 28.904 20.408 28.984 20.472 29.144C20.568 29.304 20.568 29.448 20.472 29.576L16.872 34.232C16.456 34.744 15.944 35 15.336 35H1.08C0.92 35 0.776 34.952 0.648 34.856C0.552 34.728 0.504 34.584 0.504 34.424V1.976C0.504 1.816 0.552 1.688 0.648 1.592C0.776 1.464 0.92 1.4 1.08 1.4ZM56.7836 1.304H62.8796C63.5196 1.304 64.0476 1.56 64.4636 2.072L81.7436 24.536V1.88C81.7436 1.72 81.7916 1.592 81.8876 1.496C82.0156 1.368 82.1596 1.304 82.3196 1.304H86.8796C87.5196 1.304 88.0476 1.56 88.4636 2.072L105.696 24.536V1.88C105.696 1.72 105.76 1.592 105.888 1.496C106.016 1.368 106.16 1.304 106.32 1.304H111.264C111.424 1.304 111.552 1.368 111.648 1.496C111.776 1.592 111.84 1.72 111.84 1.88V34.328C111.84 34.712 111.648 34.904 111.264 34.904H106.704C106.064 34.904 105.536 34.648 105.12 34.136L87.8396 11.672V34.328C87.8396 34.712 87.6476 34.904 87.2636 34.904H82.7036C82.0636 34.904 81.5356 34.648 81.1196 34.136L56.4476 1.976C56.3196 1.848 56.3036 1.704 56.3996 1.544C56.4956 1.384 56.6236 1.304 56.7836 1.304ZM119.346 1.4H124.29C124.706 1.4 124.914 1.592 124.914 1.976V28.904H138.354C138.546 28.904 138.674 28.984 138.738 29.144C138.834 29.304 138.834 29.448 138.738 29.576L135.138 34.232C134.722 34.744 134.21 35 133.602 35H119.346C119.186 35 119.042 34.952 118.914 34.856C118.818 34.728 118.77 34.584 118.77 34.424V1.976C118.77 1.816 118.818 1.688 118.914 1.592C119.042 1.464 119.186 1.4 119.346 1.4ZM143.111 1.4H165.335C165.527 1.4 165.655 1.48 165.719 1.64C165.815 1.768 165.799 1.912 165.671 2.072L162.119 6.728C161.703 7.24 161.175 7.496 160.535 7.496H148.679V15.176H160.679C161.063 15.176 161.255 15.368 161.255 15.752V20.648C161.255 21.064 161.063 21.272 160.679 21.272H148.679V28.904H163.847C164.007 28.904 164.135 28.968 164.231 29.096C164.359 29.192 164.423 29.32 164.423 29.48V34.424C164.423 34.808 164.231 35 163.847 35H143.111C142.951 35 142.807 34.952 142.679 34.856C142.583 34.728 142.535 34.584 142.535 34.424V1.976C142.535 1.816 142.583 1.688 142.679 1.592C142.807 1.464 142.951 1.4 143.111 1.4ZM171.764 11.24C171.764 9.736 172.068 8.344 172.676 7.064C173.316 5.784 174.164 4.68 175.22 3.752C176.308 2.824 177.556 2.088 178.964 1.544C180.404 0.999998 181.924 0.727998 183.524 0.727998C186.02 0.727998 188.18 1.176 190.004 2.072C191.86 2.936 193.252 3.944 194.18 5.096C194.404 5.384 194.388 5.64 194.132 5.864L190.82 9.32C190.692 9.448 190.532 9.512 190.34 9.512C190.18 9.512 190.036 9.432 189.908 9.272C189.62 8.952 189.252 8.632 188.804 8.312C188.388 7.992 187.892 7.704 187.316 7.448C186.772 7.16 186.18 6.936 185.54 6.776C184.9 6.616 184.244 6.536 183.572 6.536C182.772 6.536 182.036 6.664 181.364 6.92C180.724 7.144 180.18 7.448 179.732 7.832C179.284 8.216 178.932 8.664 178.676 9.176C178.42 9.688 178.292 10.232 178.292 10.808C178.292 11.736 178.596 12.536 179.204 13.208C179.812 13.88 180.724 14.344 181.94 14.6L186.644 15.512C188.18 15.8 189.524 16.264 190.676 16.904C191.86 17.512 192.836 18.248 193.604 19.112C194.404 19.976 195.012 20.952 195.428 22.04C195.844 23.096 196.052 24.216 196.052 25.4C196.052 26.68 195.78 27.944 195.236 29.192C194.724 30.44 193.94 31.56 192.884 32.552C191.86 33.544 190.596 34.344 189.092 34.952C187.588 35.528 185.86 35.816 183.908 35.816C182.532 35.816 181.236 35.672 180.02 35.384C178.836 35.096 177.748 34.728 176.756 34.28C175.796 33.8 174.948 33.288 174.212 32.744C173.476 32.168 172.868 31.608 172.388 31.064C172.164 30.84 172.164 30.584 172.388 30.296L175.412 26.408C175.508 26.248 175.636 26.168 175.796 26.168C175.988 26.136 176.148 26.184 176.276 26.312C176.724 26.728 177.22 27.16 177.764 27.608C178.308 28.024 178.9 28.408 179.54 28.76C180.18 29.112 180.868 29.4 181.604 29.624C182.34 29.848 183.124 29.96 183.956 29.96C185.716 29.96 187.06 29.576 187.988 28.808C188.916 28.04 189.38 27.048 189.38 25.832C189.38 24.872 189.028 24.04 188.324 23.336C187.652 22.6 186.644 22.104 185.3 21.848L180.596 20.888C177.908 20.344 175.764 19.24 174.164 17.576C172.564 15.912 171.764 13.8 171.764 11.24Z" fill="#F6F6F6"/>
<path d="M21.1976 34.328L45.8696 2.168C46.2856 1.656 46.8136 1.4 47.4536 1.4H52.0136C52.3976 1.4 52.5896 1.592 52.5896 1.976V34.424C52.5896 34.808 52.3976 35 52.0136 35H47.4536C46.8136 35 46.2856 34.744 45.8696 34.232L37.5656 23.384L29.2136 34.232C28.7976 34.744 28.2696 35 27.6296 35H21.5336C21.3736 35 21.2456 34.936 21.1496 34.808C21.0536 34.648 21.0696 34.488 21.1976 34.328ZM41.5496 18.2L46.4936 24.632V11.768L41.5496 18.2Z" fill="#4CD964"/>
<path d="M197.87 34.232L210.254 18.104L197.87 1.976C197.742 1.848 197.726 1.704 197.822 1.544C197.918 1.384 198.046 1.304 198.206 1.304H204.302C204.942 1.304 205.47 1.56 205.886 2.072L214.238 12.92L222.542 2.072C222.958 1.56 223.486 1.304 224.126 1.304H230.222C230.414 1.304 230.542 1.384 230.606 1.544C230.702 1.704 230.686 1.848 230.558 1.976L218.174 18.104L230.558 34.232C230.686 34.392 230.702 34.552 230.606 34.712C230.542 34.84 230.414 34.904 230.222 34.904H224.126C223.486 34.904 222.958 34.648 222.542 34.136L214.238 23.288L205.886 34.136C205.47 34.648 204.942 34.904 204.302 34.904H198.206C198.046 34.904 197.918 34.84 197.822 34.712C197.726 34.552 197.742 34.392 197.87 34.232Z" fill="#FF4655"/>
</svg>
