<svg width="338" height="40" viewBox="0 0 338 40" fill="none" xmlns="http://www.w3.org/2000/svg">
<path d="M2.432 36.328L3.99374 37.5774L4.00645 37.5615L4.01883 37.5454L2.432 36.328ZM27.104 4.168L25.5518 2.90681L25.5342 2.92849L25.5172 2.95064L27.104 4.168ZM33.824 26.632H31.824V32.5122L35.4093 27.8514L33.824 26.632ZM51.104 4.168L49.5518 2.90681L49.535 2.92748L49.5188 2.94858L51.104 4.168ZM51.68 13.768H53.68V7.87477L50.0931 12.5507L51.68 13.768ZM34.448 36.232L36.0002 37.4932L36.0179 37.4715L36.0349 37.4493L34.448 36.232ZM27.728 13.768H29.728V7.88775L26.1428 12.5486L27.728 13.768ZM10.448 36.232L12.0002 37.4932L12.017 37.4725L12.0332 37.4514L10.448 36.232ZM2.384 36.808L0.669014 37.837L0.722096 37.9255L0.784 38.008L2.384 36.808ZM4.01883 37.5454L28.6908 5.38536L25.5172 2.95064L0.845169 35.1106L4.01883 37.5454ZM28.6562 5.42918C28.6809 5.39878 28.696 5.38597 28.6992 5.38342C28.7018 5.38132 28.6966 5.38577 28.6845 5.39163C28.6723 5.39755 28.6619 5.40058 28.6572 5.40162C28.6531 5.40253 28.6619 5.4 28.688 5.4V1.4C27.4246 1.4 26.334 1.94405 25.5518 2.90681L28.6562 5.42918ZM28.688 5.4H33.248V1.4H28.688V5.4ZM33.248 5.4C33.1317 5.4 32.6771 5.36957 32.2658 4.95821C31.8544 4.54685 31.824 4.09229 31.824 3.976H35.824C35.824 3.47571 35.6976 2.73314 35.0942 2.12978C34.4909 1.52642 33.7483 1.4 33.248 1.4V5.4ZM31.824 3.976V26.632H35.824V3.976H31.824ZM35.4093 27.8514L52.6892 5.38742L49.5188 2.94858L32.2388 25.4126L35.4093 27.8514ZM52.6562 5.42918C52.6809 5.39878 52.696 5.38597 52.6992 5.38342C52.7018 5.38132 52.6966 5.38577 52.6845 5.39163C52.6723 5.39754 52.6619 5.40058 52.6572 5.40162C52.6531 5.40253 52.6619 5.4 52.688 5.4V1.4C51.4246 1.4 50.334 1.94405 49.5518 2.90681L52.6562 5.42918ZM52.688 5.4H57.248V1.4H52.688V5.4ZM57.248 5.4C57.1317 5.4 56.6772 5.36957 56.2658 4.95822C55.8544 4.54686 55.824 4.09229 55.824 3.976H59.824C59.824 3.47571 59.6976 2.73314 59.0942 2.12978C58.4909 1.52642 57.7483 1.4 57.248 1.4V5.4ZM55.824 3.976V36.424H59.824V3.976H55.824ZM55.824 36.424C55.824 36.3077 55.8544 35.8531 56.2658 35.4418C56.6772 35.0304 57.1317 35 57.248 35V39C57.7483 39 58.4909 38.8736 59.0942 38.2702C59.6976 37.6669 59.824 36.9243 59.824 36.424H55.824ZM57.248 35H52.304V39H57.248V35ZM52.304 35C52.3663 35 52.7859 35.011 53.1926 35.3864C53.6294 35.7897 53.68 36.2648 53.68 36.424H49.68C49.68 36.9672 49.8346 37.7303 50.4794 38.3256C51.0941 38.893 51.8257 39 52.304 39V35ZM53.68 36.424V13.768H49.68V36.424H53.68ZM50.0931 12.5507L32.8611 35.0147L36.0349 37.4493L53.2669 14.9853L50.0931 12.5507ZM32.8958 34.9708C32.8711 35.0012 32.856 35.014 32.8528 35.0166C32.8502 35.0187 32.8554 35.0142 32.8675 35.0084C32.8797 35.0025 32.8901 34.9994 32.8948 34.9984C32.8989 34.9975 32.8901 35 32.864 35V39C34.1274 39 35.218 38.4559 36.0002 37.4932L32.8958 34.9708ZM32.864 35H28.304V39H32.864V35ZM28.304 35C28.4203 35 28.8749 35.0304 29.2862 35.4418C29.6976 35.8531 29.728 36.3077 29.728 36.424H25.728C25.728 36.9243 25.8544 37.6669 26.4578 38.2702C27.0611 38.8736 27.8037 39 28.304 39V35ZM29.728 36.424V13.768H25.728V36.424H29.728ZM26.1428 12.5486L8.86275 35.0126L12.0332 37.4514L29.3132 14.9874L26.1428 12.5486ZM8.89577 34.9708C8.87107 35.0012 8.85596 35.014 8.85283 35.0166C8.85025 35.0187 8.85538 35.0142 8.86745 35.0084C8.87966 35.0025 8.89007 34.9994 8.89481 34.9984C8.89895 34.9975 8.89007 35 8.864 35V39C10.1274 39 11.218 38.4559 12.0002 37.4932L8.89577 34.9708ZM8.864 35H2.768V39H8.864V35ZM2.768 35C2.96144 35 3.20138 35.0406 3.44643 35.1631C3.69148 35.2857 3.86793 35.4532 3.984 35.608L0.784 38.008C1.25771 38.6396 1.97849 39 2.768 39V35ZM4.09899 35.779C4.23555 36.0066 4.35552 36.3525 4.31407 36.767C4.27439 37.1638 4.10525 37.438 3.99374 37.5774L0.870262 35.0786C0.63075 35.378 0.389606 35.8122 0.333926 36.369C0.276477 36.9435 0.43645 37.4494 0.669014 37.837L4.09899 35.779ZM64.754 13.192L62.9186 12.3976L62.9157 12.4042L62.9128 12.4109L64.754 13.192ZM68.45 7.672L69.8642 9.08621L69.8642 9.08621L68.45 7.672ZM73.97 4.024L74.7273 5.87509L74.7392 5.8702L74.7511 5.86516L73.97 4.024ZM80.786 2.728L80.7597 4.72782L80.786 2.728ZM87.602 4.168L86.7975 5.99904L86.7975 5.99904L87.602 4.168ZM93.074 7.96L91.6312 9.34506L91.6384 9.3525L91.6456 9.35986L93.074 7.96ZM96.77 13.576L94.9246 14.3472L94.9288 14.3571L96.77 13.576ZM98.066 20.344L96.0662 20.3173L96.0662 20.3177L98.066 20.344ZM96.626 27.16L98.457 27.9645L98.457 27.9645L96.626 27.16ZM92.834 32.68L91.4341 31.2516L91.4269 31.2586L91.4198 31.2658L92.834 32.68ZM87.314 36.376L88.0713 38.2271L88.0832 38.2222L88.0951 38.2172L87.314 36.376ZM73.73 36.328L72.9151 38.1545L72.9319 38.162L72.9489 38.1692L73.73 36.328ZM68.306 32.584L66.8632 33.9691L66.8702 33.9763L66.8773 33.9836L68.306 32.584ZM64.706 26.968L62.851 27.7156L62.851 27.7156L64.706 26.968ZM70.466 24.76L68.6299 25.5529L68.6299 25.5529L70.466 24.76ZM72.914 28.456L74.3498 27.0637L72.914 28.456ZM76.466 30.952L75.6417 32.7742L75.6417 32.7742L76.466 30.952ZM80.786 31.864V33.864H80.8073L80.8285 33.8635L80.786 31.864ZM85.058 30.856L84.1981 29.0503L84.1981 29.0503L85.058 30.856ZM88.562 28.312L87.1056 26.9413L87.1043 26.9426L88.562 28.312ZM90.962 24.568L92.8131 25.3253L92.8161 25.318L92.819 25.3108L90.962 24.568ZM91.778 20.056H89.778V20.0764L89.7784 20.0968L91.778 20.056ZM88.418 11.944L86.9822 13.3363L86.9929 13.3473L87.0038 13.3582L88.418 11.944ZM84.818 9.448L83.9937 11.2702L84.0017 11.2738L84.0097 11.2774L84.818 9.448ZM80.546 8.536V6.536H80.5247L80.5035 6.53645L80.546 8.536ZM76.274 9.544L77.0983 11.3662L77.1162 11.3581L77.1339 11.3497L76.274 9.544ZM72.77 12.088L74.2277 13.4573L74.2379 13.4465L74.2479 13.4355L72.77 12.088ZM70.418 15.784L72.2691 16.5413L72.2691 16.5413L70.418 15.784ZM65.41 20.056C65.41 17.8403 65.8116 15.8202 66.5952 13.9731L62.9128 12.4109C61.9044 14.7878 61.41 17.3437 61.41 20.056H65.41ZM66.5894 13.9864C67.425 12.0561 68.5195 10.4309 69.8642 9.08621L67.0358 6.25779C65.3085 7.98506 63.939 10.0399 62.9186 12.3976L66.5894 13.9864ZM69.8642 9.08621C71.2389 7.71151 72.8538 6.64152 74.7273 5.87509L73.2127 2.1729C70.8622 3.13448 68.7971 4.49648 67.0358 6.25779L69.8642 9.08621ZM74.7511 5.86516C76.5927 5.08388 78.5879 4.69925 80.7597 4.72782L80.8123 0.728171C78.1201 0.692747 75.5713 1.17212 73.1889 2.18283L74.7511 5.86516ZM80.7597 4.72782C82.9384 4.75649 84.9441 5.1847 86.7975 5.99904L88.4065 2.33696C86.0359 1.2953 83.4976 0.763503 80.8123 0.728171L80.7597 4.72782ZM86.7975 5.99904C88.6794 6.82593 90.284 7.94167 91.6312 9.34506L94.5168 6.57494C92.792 4.77833 90.7486 3.36606 88.4065 2.33696L86.7975 5.99904ZM91.6456 9.35986C93.0294 10.7719 94.1228 12.4284 94.9247 14.3472L98.6153 12.8048C97.6252 10.4356 96.2546 8.34811 94.5024 6.56014L91.6456 9.35986ZM94.9288 14.3571C95.7115 16.202 96.0947 18.1816 96.0662 20.3173L100.066 20.3707C100.101 17.7064 99.6205 15.174 98.6112 12.7949L94.9288 14.3571ZM96.0662 20.3177C96.0375 22.4964 95.6093 24.5021 94.795 26.3555L98.457 27.9645C99.4987 25.5939 100.03 23.0556 100.066 20.3703L96.0662 20.3177ZM94.795 26.3555C93.9665 28.241 92.8465 29.8675 91.4341 31.2516L94.2339 34.1084C96.0215 32.3565 97.4295 30.303 98.457 27.9645L94.795 26.3555ZM91.4198 31.2658C90.0397 32.6458 88.4167 33.7356 86.5329 34.5348L88.0951 38.2172C90.4353 37.2244 92.4923 35.8502 94.2482 34.0942L91.4198 31.2658ZM86.5567 34.5249C84.7006 35.2842 82.6876 35.672 80.498 35.672V39.672C83.1724 39.672 85.7034 39.1958 88.0713 38.2271L86.5567 34.5249ZM80.498 35.672C78.3538 35.672 76.3647 35.2732 74.5111 34.4868L72.9489 38.1692C75.3193 39.1748 77.8422 39.672 80.498 39.672V35.672ZM74.5449 34.5015C72.6857 33.6721 71.0881 32.5661 69.7347 31.1844L66.8773 33.9836C68.5959 35.7379 70.6143 37.1279 72.9151 38.1545L74.5449 34.5015ZM69.7488 31.1989C68.3971 29.7909 67.3337 28.1377 66.561 26.2204L62.851 27.7156C63.8063 30.0863 65.1429 32.1771 66.8632 33.9691L69.7488 31.1989ZM66.561 26.2204C65.799 24.3294 65.41 22.2809 65.41 20.056H61.41C61.41 22.7591 61.885 25.3186 62.851 27.7156L66.561 26.2204ZM67.554 20.296C67.554 22.1304 67.9113 23.8888 68.6299 25.5529L72.3021 23.9671C71.8047 22.8152 71.554 21.5976 71.554 20.296H67.554ZM68.6299 25.5529C69.3298 27.1737 70.2784 28.611 71.4782 29.8483L74.3498 27.0637C73.5016 26.189 72.8182 25.1623 72.3021 23.9671L68.6299 25.5529ZM71.4782 29.8483C72.6777 31.0853 74.0693 32.0629 75.6417 32.7742L77.2903 29.1298C76.1747 28.6251 75.1983 27.9387 74.3498 27.0637L71.4782 29.8483ZM75.6417 32.7742C77.2554 33.5042 78.9777 33.864 80.786 33.864V29.864C79.5223 29.864 78.3646 29.6158 77.2903 29.1298L75.6417 32.7742ZM80.8285 33.8635C82.6125 33.8256 84.3154 33.4248 85.9179 32.6617L84.1981 29.0503C83.1126 29.5672 81.9675 29.8384 80.7435 29.8645L80.8285 33.8635ZM85.9179 32.6617C87.4803 31.9177 88.8526 30.9237 90.0197 29.6813L87.1043 26.9426C86.2874 27.8123 85.3237 28.5143 84.1981 29.0503L85.9179 32.6617ZM90.0184 29.6827C91.2136 28.4129 92.146 26.956 92.8131 25.3253L89.1109 23.8107C88.626 24.996 87.9584 26.0351 87.1056 26.9413L90.0184 29.6827ZM92.819 25.3108C93.4957 23.6189 93.815 21.8482 93.7776 20.0152L89.7784 20.0968C89.805 21.3998 89.5803 22.6371 89.105 23.8252L92.819 25.3108ZM93.778 20.056C93.778 18.2216 93.4207 16.4632 92.7021 14.7991L89.0299 16.3849C89.5273 17.5368 89.778 18.7544 89.778 20.056H93.778ZM92.7021 14.7991C92 13.1731 91.0452 11.7428 89.8322 10.5298L87.0038 13.3582C87.8388 14.1932 88.516 15.1949 89.0299 16.3849L92.7021 14.7991ZM89.8538 10.5517C88.6466 9.30677 87.2322 8.32819 85.6263 7.61863L84.0097 11.2774C85.1558 11.7838 86.1414 12.4692 86.9822 13.3363L89.8538 10.5517ZM85.6423 7.62579C84.0341 6.89827 82.3286 6.536 80.546 6.536V10.536C81.7714 10.536 82.9139 10.7817 83.9937 11.2702L85.6423 7.62579ZM80.5035 6.53645C78.7195 6.57441 77.0166 6.97522 75.4141 7.73828L77.1339 11.3497C78.2194 10.8328 79.3645 10.5616 80.5885 10.5355L80.5035 6.53645ZM75.4497 7.72178C73.8583 8.4417 72.4677 9.45106 71.2921 10.7405L74.2479 13.4355C75.0563 12.5489 76.0017 11.8623 77.0983 11.3662L75.4497 7.72178ZM71.3123 10.7186C70.1446 11.9617 69.2308 13.4038 68.5669 15.0267L72.2691 16.5413C72.7572 15.3482 73.4114 14.3263 74.2277 13.4573L71.3123 10.7186ZM68.5669 15.0267C67.8875 16.6874 67.554 18.45 67.554 20.296H71.554C71.554 18.942 71.7965 17.6966 72.2691 16.5413L68.5669 15.0267ZM129.679 12.232L131.262 13.4533L131.279 13.431L131.296 13.4083L129.679 12.232ZM123.535 20.2L121.951 18.9787L121.009 20.2L121.951 21.4213L123.535 20.2ZM129.679 28.168L131.296 26.9917L131.279 26.969L131.262 26.9467L129.679 28.168ZM103.711 36.856L102.11 38.056L102.282 38.2846L102.511 38.456L103.711 36.856ZM103.711 3.592L102.296 2.17779L102.296 2.17779L103.711 3.592ZM123.775 30.904V32.904H127.83L125.361 29.6864L123.775 30.904ZM115.855 20.584L114.159 21.644L114.209 21.7254L114.268 21.8016L115.855 20.584ZM115.855 19.864L114.265 18.6499L114.246 18.6754L114.227 18.7015L115.855 19.864ZM123.775 9.496L125.364 10.7101L127.819 7.496H123.775V9.496ZM109.711 9.496V7.496H107.711V9.496H109.711ZM109.711 30.904H107.711V32.904H109.711V30.904ZM104.143 5.4H129.487V1.4H104.143V5.4ZM129.487 5.4C129.37 5.4 128.916 5.36957 128.504 4.95821C128.093 4.54685 128.062 4.09229 128.062 3.976H132.062C132.062 3.47571 131.936 2.73315 131.333 2.12979C130.729 1.52643 129.987 1.4 129.487 1.4V5.4ZM128.062 3.976V11.032H132.062V3.976H128.062ZM128.062 11.032C128.062 11.0485 128.061 11.0576 128.061 11.0605C128.06 11.0633 128.06 11.0621 128.062 11.0585C128.063 11.0547 128.064 11.0514 128.065 11.0494C128.066 11.0475 128.065 11.0496 128.061 11.0557L131.296 13.4083C131.808 12.7039 132.062 11.8894 132.062 11.032H128.062ZM128.095 11.0107L121.951 18.9787L125.118 21.4213L131.262 13.4533L128.095 11.0107ZM121.951 21.4213L128.095 29.3893L131.262 26.9467L125.118 18.9787L121.951 21.4213ZM128.061 29.3443C128.065 29.3504 128.066 29.3524 128.065 29.3505C128.064 29.3486 128.063 29.3453 128.062 29.3415C128.06 29.3379 128.06 29.3367 128.061 29.3395C128.061 29.3424 128.062 29.3515 128.062 29.368H132.062C132.062 28.5106 131.808 27.6961 131.296 26.9917L128.061 29.3443ZM128.062 29.368V36.424H132.062V29.368H128.062ZM128.062 36.424C128.062 36.3077 128.093 35.8531 128.504 35.4418C128.916 35.0304 129.37 35 129.487 35V39C129.987 39 130.729 38.8736 131.333 38.2702C131.936 37.6669 132.062 36.9243 132.062 36.424H128.062ZM129.487 35H104.143V39H129.487V35ZM104.143 35C104.266 35 104.404 35.0191 104.547 35.0666C104.69 35.1142 104.812 35.182 104.911 35.256L102.511 38.456C102.985 38.8116 103.55 39 104.143 39V35ZM105.311 35.656C105.384 35.7546 105.452 35.8768 105.5 36.0195C105.547 36.1623 105.567 36.3007 105.567 36.424H101.567C101.567 37.0167 101.755 37.5818 102.11 38.056L105.311 35.656ZM105.567 36.424V3.976H101.567V36.424H105.567ZM105.567 3.976C105.567 4.09573 105.548 4.26698 105.475 4.46224C105.4 4.66365 105.28 4.85089 105.125 5.00621L102.296 2.17779C101.759 2.71526 101.567 3.38749 101.567 3.976H105.567ZM105.125 5.00621C105.041 5.09029 104.91 5.19426 104.727 5.27562C104.539 5.35906 104.338 5.4 104.143 5.4V1.4C103.381 1.4 102.746 1.72841 102.296 2.17779L105.125 5.00621ZM125.361 29.6864L117.441 19.3664L114.268 21.8016L122.188 32.1216L125.361 29.6864ZM117.55 19.524C117.618 19.6325 117.735 19.8715 117.735 20.212C117.735 20.5682 117.607 20.851 117.482 21.0265L114.227 18.7015C113.942 19.101 113.735 19.6158 113.735 20.212C113.735 20.7925 113.931 21.2795 114.159 21.644L117.55 19.524ZM117.444 21.0781L125.364 10.7101L122.185 8.28192L114.265 18.6499L117.444 21.0781ZM123.775 7.496H109.711V11.496H123.775V7.496ZM107.711 9.496V30.904H111.711V9.496H107.711ZM109.711 32.904H123.775V28.904H109.711V32.904ZM137.132 36.856L135.532 38.056L135.704 38.2846L135.932 38.456L137.132 36.856ZM137.132 3.592L135.718 2.17779L135.718 2.17779L137.132 3.592ZM137.564 5.4H142.508V1.4H137.564V5.4ZM142.508 5.4C142.446 5.4 142.026 5.38895 141.62 5.0136C141.183 4.61034 141.132 4.13523 141.132 3.976H145.132C145.132 3.43277 144.978 2.66966 144.333 2.07439C143.718 1.50705 142.987 1.4 142.508 1.4V5.4ZM141.132 3.976V36.424H145.132V3.976H141.132ZM141.132 36.424C141.132 36.2648 141.183 35.7897 141.62 35.3864C142.026 35.011 142.446 35 142.508 35V39C142.987 39 143.718 38.893 144.333 38.3256C144.978 37.7303 145.132 36.9672 145.132 36.424H141.132ZM142.508 35H137.564V39H142.508V35ZM137.564 35C137.688 35 137.826 35.0191 137.969 35.0666C138.112 35.1142 138.234 35.182 138.332 35.256L135.932 38.456C136.407 38.8116 136.972 39 137.564 39V35ZM138.732 35.656C138.806 35.7546 138.874 35.8768 138.922 36.0195C138.969 36.1623 138.988 36.3007 138.988 36.424H134.988C134.988 37.0167 135.177 37.5818 135.532 38.056L138.732 35.656ZM138.988 36.424V3.976H134.988V36.424H138.988ZM138.988 3.976C138.988 4.09573 138.97 4.26698 138.897 4.46224C138.822 4.66365 138.702 4.85089 138.547 5.00621L135.718 2.17779C135.181 2.71526 134.988 3.38749 134.988 3.976H138.988ZM138.547 5.00621C138.463 5.09029 138.332 5.19426 138.149 5.27562C137.961 5.35906 137.76 5.4 137.564 5.4V1.4C136.803 1.4 136.168 1.72841 135.718 2.17779L138.547 5.00621ZM156.211 30.904H154.211V32.904H156.211V30.904ZM170.035 31.144L168.178 31.8868L168.237 32.0356L168.32 32.173L170.035 31.144ZM170.035 31.576L171.617 32.7994L171.626 32.7877L171.635 32.776L170.035 31.576ZM166.435 36.232L167.987 37.4932L168.002 37.4745L168.017 37.4554L166.435 36.232ZM150.211 36.856L148.61 38.056L148.782 38.2846L149.011 38.456L150.211 36.856ZM150.211 3.592L148.796 2.17779L148.796 2.17779L150.211 3.592ZM150.643 5.4H155.587V1.4H150.643V5.4ZM155.587 5.4C155.524 5.4 155.105 5.38895 154.698 5.0136C154.261 4.61034 154.211 4.13523 154.211 3.976H158.211C158.211 3.43277 158.056 2.66966 157.411 2.07439C156.796 1.50705 156.065 1.4 155.587 1.4V5.4ZM154.211 3.976V30.904H158.211V3.976H154.211ZM156.211 32.904H169.651V28.904H156.211V32.904ZM169.651 32.904C169.473 32.904 169.16 32.8661 168.831 32.66C168.485 32.4439 168.28 32.1429 168.178 31.8868L171.891 30.4012C171.725 29.9851 171.424 29.5641 170.95 29.268C170.493 28.9819 170.02 28.904 169.651 28.904V32.904ZM168.32 32.173C168.235 32.0322 168.107 31.7548 168.107 31.372C168.107 30.9633 168.253 30.6177 168.434 30.376L171.635 32.776C171.912 32.4063 172.107 31.9247 172.107 31.372C172.107 30.8452 171.93 30.4158 171.749 30.115L168.32 32.173ZM168.452 30.3526L164.852 35.0086L168.017 37.4554L171.617 32.7994L168.452 30.3526ZM164.882 34.9708C164.853 35.0063 164.835 35.0226 164.829 35.0272C164.824 35.0314 164.829 35.0265 164.844 35.0191C164.851 35.0156 164.859 35.0122 164.868 35.0092C164.876 35.0061 164.884 35.0038 164.891 35.0023C164.905 34.999 164.909 35 164.899 35V39C166.165 39 167.228 38.4272 167.987 37.4932L164.882 34.9708ZM164.899 35H150.643V39H164.899V35ZM150.643 35C150.766 35 150.904 35.0191 151.047 35.0666C151.19 35.1142 151.312 35.182 151.411 35.256L149.011 38.456C149.485 38.8116 150.05 39 150.643 39V35ZM151.811 35.656C151.884 35.7546 151.952 35.8768 152 36.0195C152.047 36.1623 152.067 36.3007 152.067 36.424H148.067C148.067 37.0167 148.255 37.5818 148.61 38.056L151.811 35.656ZM152.067 36.424V3.976H148.067V36.424H152.067ZM152.067 3.976C152.067 4.09573 152.048 4.26698 151.975 4.46224C151.9 4.66365 151.78 4.85089 151.625 5.00621L148.796 2.17779C148.259 2.71526 148.067 3.38749 148.067 3.976H152.067ZM151.625 5.00621C151.541 5.09029 151.41 5.19426 151.227 5.27562C151.039 5.35906 150.838 5.4 150.643 5.4V1.4C149.881 1.4 149.246 1.72841 148.796 2.17779L151.625 5.00621ZM173.976 3.592L172.562 2.17779L172.562 2.17779L173.976 3.592ZM179.976 9.496V7.496H177.976V9.496H179.976ZM179.976 17.176H177.976V19.176H179.976V17.176ZM179.976 23.272V21.272H177.976V23.272H179.976ZM179.976 30.904H177.976V32.904H179.976V30.904ZM197.016 31.144L195.159 31.8868L195.219 32.0356L195.301 32.173L197.016 31.144ZM196.968 31.576L195.554 30.1618L195.459 30.2565L195.378 30.3629L196.968 31.576ZM193.416 36.232L194.968 37.4932L194.988 37.4694L195.006 37.4451L193.416 36.232ZM173.976 36.856L172.376 38.056L172.548 38.2846L172.776 38.456L173.976 36.856ZM175.832 3.976C175.832 4.09573 175.814 4.26698 175.741 4.46224C175.665 4.66365 175.546 4.85089 175.39 5.00621L172.562 2.17779C172.024 2.71526 171.832 3.38749 171.832 3.976H175.832ZM175.39 5.00621C175.306 5.09029 175.175 5.19426 174.992 5.27562C174.805 5.35906 174.604 5.4 174.408 5.4V1.4C173.646 1.4 173.011 1.72841 172.562 2.17779L175.39 5.00621ZM174.408 5.4H195.144V1.4H174.408V5.4ZM195.144 5.4C195.028 5.4 194.573 5.36957 194.162 4.95821C193.751 4.54685 193.72 4.09229 193.72 3.976H197.72C197.72 3.47571 197.594 2.73314 196.99 2.12978C196.387 1.52642 195.644 1.4 195.144 1.4V5.4ZM193.72 3.976V8.92H197.72V3.976H193.72ZM193.72 8.92C193.72 8.80371 193.751 8.34914 194.162 7.93779C194.573 7.52643 195.028 7.496 195.144 7.496V11.496C195.644 11.496 196.387 11.3696 196.99 10.7662C197.594 10.1629 197.72 9.42029 197.72 8.92H193.72ZM195.144 7.496H179.976V11.496H195.144V7.496ZM177.976 9.496V17.176H181.976V9.496H177.976ZM179.976 19.176H191.976V15.176H179.976V19.176ZM191.976 19.176C191.86 19.176 191.405 19.1456 190.994 18.7342C190.583 18.3229 190.552 17.8683 190.552 17.752H194.552C194.552 17.2517 194.426 16.5091 193.822 15.9058C193.219 15.3024 192.476 15.176 191.976 15.176V19.176ZM190.552 17.752V22.648H194.552V17.752H190.552ZM190.552 22.648C190.552 22.5857 190.563 22.1661 190.939 21.7594C191.342 21.3226 191.817 21.272 191.976 21.272V25.272C192.519 25.272 193.282 25.1174 193.878 24.4726C194.445 23.8579 194.552 23.1263 194.552 22.648H190.552ZM191.976 21.272H179.976V25.272H191.976V21.272ZM177.976 23.272V30.904H181.976V23.272H177.976ZM179.976 32.904H196.632V28.904H179.976V32.904ZM196.632 32.904C196.454 32.904 196.142 32.8661 195.812 32.66C195.466 32.4439 195.262 32.1429 195.159 31.8868L198.873 30.4012C198.707 29.9851 198.406 29.5641 197.932 29.268C197.474 28.9819 197.002 28.904 196.632 28.904V32.904ZM195.301 32.173C195.189 31.9863 195.036 31.6256 195.088 31.1511C195.142 30.6687 195.379 30.337 195.554 30.1618L198.382 32.9902C198.686 32.687 198.994 32.2193 199.064 31.5929C199.133 30.9744 198.939 30.4617 198.731 30.115L195.301 32.173ZM195.378 30.3629L191.826 35.0189L195.006 37.4451L198.558 32.7891L195.378 30.3629ZM191.864 34.9708C191.839 35.0012 191.824 35.014 191.821 35.0166C191.818 35.0187 191.824 35.0142 191.836 35.0084C191.848 35.0025 191.858 34.9994 191.863 34.9984C191.867 34.9975 191.858 35 191.832 35V39C193.096 39 194.186 38.4559 194.968 37.4932L191.864 34.9708ZM191.832 35H174.408V39H191.832V35ZM174.408 35C174.531 35 174.67 35.0191 174.813 35.0666C174.955 35.1142 175.078 35.182 175.176 35.256L172.776 38.456C173.25 38.8116 173.815 39 174.408 39V35ZM175.576 35.656C175.65 35.7546 175.718 35.8768 175.765 36.0195C175.813 36.1623 175.832 36.3007 175.832 36.424H171.832C171.832 37.0167 172.02 37.5818 172.376 38.056L175.576 35.656ZM175.832 36.424V3.976H171.832V36.424H175.832ZM211.166 36.328L212.728 37.5774L212.741 37.5615L212.753 37.5454L211.166 36.328ZM235.838 4.168L234.286 2.90681L234.269 2.92849L234.252 2.95064L235.838 4.168ZM235.838 36.232L234.25 37.4477L234.268 37.4707L234.286 37.4932L235.838 36.232ZM227.534 25.384L229.122 24.1683L227.539 22.0996L225.95 24.1639L227.534 25.384ZM219.182 36.232L220.735 37.4932L220.751 37.4729L220.767 37.4521L219.182 36.232ZM211.118 36.808L209.403 37.837L209.456 37.9255L209.518 38.008L211.118 36.808ZM231.518 20.2L229.933 18.9811L228.996 20.2L229.933 21.4188L231.518 20.2ZM236.462 26.632L234.877 27.8508L238.462 32.5157V26.632H236.462ZM236.462 13.768H238.462V7.88427L234.877 12.5491L236.462 13.768ZM212.753 37.5454L237.425 5.38536L234.252 2.95064L209.58 35.1106L212.753 37.5454ZM237.391 5.42918C237.415 5.39878 237.43 5.38597 237.434 5.38342C237.436 5.38132 237.431 5.38577 237.419 5.39163C237.407 5.39755 237.396 5.40058 237.392 5.40162C237.387 5.40253 237.396 5.4 237.422 5.4V1.4C236.159 1.4 235.068 1.94405 234.286 2.90681L237.391 5.42918ZM237.422 5.4H241.982V1.4H237.422V5.4ZM241.982 5.4C241.866 5.4 241.412 5.36957 241 4.95821C240.589 4.54685 240.558 4.09229 240.558 3.976H244.558C244.558 3.47571 244.432 2.73314 243.829 2.12978C243.225 1.52642 242.483 1.4 241.982 1.4V5.4ZM240.558 3.976V36.424H244.558V3.976H240.558ZM240.558 36.424C240.558 36.3077 240.589 35.8531 241 35.4418C241.412 35.0304 241.866 35 241.982 35V39C242.483 39 243.225 38.8736 243.829 38.2702C244.432 37.6669 244.558 36.9243 244.558 36.424H240.558ZM241.982 35H237.422V39H241.982V35ZM237.422 35C237.396 35 237.387 34.9975 237.392 34.9984C237.396 34.9994 237.407 35.0025 237.419 35.0084C237.431 35.0142 237.436 35.0187 237.434 35.0166C237.43 35.014 237.415 35.0012 237.391 34.9708L234.286 37.4932C235.068 38.4559 236.159 39 237.422 39V35ZM237.426 35.0163L229.122 24.1683L225.946 26.5997L234.25 37.4477L237.426 35.0163ZM225.95 24.1639L217.598 35.0119L220.767 37.4521L229.119 26.6041L225.95 24.1639ZM217.63 34.9708C217.605 35.0012 217.59 35.014 217.587 35.0166C217.585 35.0187 217.59 35.0142 217.602 35.0084C217.614 35.0025 217.624 34.9994 217.629 34.9984C217.633 34.9975 217.624 35 217.598 35V39C218.862 39 219.952 38.4559 220.735 37.4932L217.63 34.9708ZM217.598 35H211.502V39H217.598V35ZM211.502 35C211.696 35 211.936 35.0406 212.181 35.1631C212.426 35.2857 212.602 35.4532 212.718 35.608L209.518 38.008C209.992 38.6396 210.713 39 211.502 39V35ZM212.833 35.779C212.97 36.0066 213.09 36.3525 213.048 36.767C213.009 37.1638 212.84 37.438 212.728 37.5774L209.605 35.0786C209.365 35.378 209.124 35.8122 209.068 36.369C209.011 36.9435 209.171 37.4494 209.403 37.837L212.833 35.779ZM229.933 21.4188L234.877 27.8508L238.048 25.4132L233.104 18.9811L229.933 21.4188ZM238.462 26.632V13.768H234.462V26.632H238.462ZM234.877 12.5491L229.933 18.9811L233.104 21.4188L238.048 14.9868L234.877 12.5491ZM249.632 3.496L251.047 4.91022L251.047 4.91021L249.632 3.496ZM275.792 3.496L274.192 4.696L274.364 4.92457L274.592 5.096L275.792 3.496ZM275.552 12.136L274.004 10.8695L273.984 10.8951L273.963 10.9214L275.552 12.136ZM268.544 21.304L270.097 22.5652L270.115 22.5422L270.133 22.5186L268.544 21.304ZM260.432 21.88L258.575 22.6228L258.674 22.8684L258.832 23.08L260.432 21.88ZM260.528 21.4L262.09 22.6494L262.102 22.6339L262.115 22.6182L260.528 21.4ZM269.744 9.4L271.331 10.6182L273.802 7.4H269.744V9.4ZM255.632 9.4V7.4H253.632V9.4H255.632ZM249.632 36.76L248.032 37.96L248.204 38.1886L248.432 38.36L249.632 36.76ZM251.488 36.328V3.88H247.488V36.328H251.488ZM251.488 3.88C251.488 3.99972 251.47 4.17098 251.397 4.36625C251.322 4.56766 251.202 4.7549 251.047 4.91022L248.218 2.08178C247.681 2.61925 247.488 3.29149 247.488 3.88H251.488ZM251.047 4.91021C250.963 4.99429 250.832 5.09826 250.649 5.17962C250.461 5.26306 250.26 5.304 250.064 5.304V1.304C249.303 1.304 248.668 1.63241 248.218 2.08179L251.047 4.91021ZM250.064 5.304H275.408V1.304H250.064V5.304ZM275.408 5.304C275.215 5.304 274.975 5.26338 274.73 5.14085C274.485 5.01833 274.308 4.85076 274.192 4.696L277.392 2.296C276.919 1.66439 276.198 1.304 275.408 1.304V5.304ZM274.592 5.096C274.438 4.97993 274.27 4.80347 274.148 4.55842C274.025 4.31337 273.984 4.07344 273.984 3.88H277.984C277.984 3.09049 277.624 2.36971 276.992 1.896L274.592 5.096ZM273.984 3.88V10.936H277.984V3.88H273.984ZM273.984 10.936C273.984 10.9404 273.984 10.9373 273.986 10.9282C273.987 10.9189 273.99 10.9072 273.995 10.8946C273.999 10.882 274.004 10.8725 274.007 10.8668C274.01 10.8612 274.01 10.8622 274.004 10.8695L277.1 13.4025C277.676 12.6991 277.984 11.8533 277.984 10.936H273.984ZM273.963 10.9214L266.955 20.0894L270.133 22.5186L277.141 13.3506L273.963 10.9214ZM266.992 20.0428C266.967 20.0732 266.952 20.086 266.949 20.0886C266.947 20.0907 266.952 20.0862 266.964 20.0804C266.976 20.0745 266.986 20.0714 266.991 20.0704C266.995 20.0695 266.986 20.072 266.96 20.072V24.072C268.224 24.072 269.314 23.5279 270.097 22.5652L266.992 20.0428ZM266.96 20.072H260.864V24.072H266.96V20.072ZM260.864 20.072C260.988 20.072 261.191 20.0927 261.425 20.1964C261.669 20.3052 261.879 20.4754 262.032 20.68L258.832 23.08C259.384 23.815 260.184 24.072 260.864 24.072V20.072ZM262.289 21.1372C262.393 21.3962 262.434 21.71 262.37 22.0322C262.309 22.3358 262.176 22.5421 262.09 22.6494L258.967 20.1506C258.49 20.7467 258.189 21.6562 258.575 22.6228L262.289 21.1372ZM262.115 22.6182L271.331 10.6182L268.158 8.1818L258.942 20.1818L262.115 22.6182ZM269.744 7.4H255.632V11.4H269.744V7.4ZM253.632 9.4V36.328H257.632V9.4H253.632ZM253.632 36.328C253.632 36.1688 253.683 35.6937 254.12 35.2904C254.526 34.915 254.946 34.904 255.008 34.904V38.904C255.487 38.904 256.218 38.797 256.833 38.2296C257.478 37.6343 257.632 36.8712 257.632 36.328H253.632ZM255.008 34.904H250.064V38.904H255.008V34.904ZM250.064 34.904C250.188 34.904 250.326 34.9231 250.469 34.9706C250.612 35.0182 250.734 35.086 250.832 35.16L248.432 38.36C248.907 38.7156 249.472 38.904 250.064 38.904V34.904ZM251.232 35.56C251.306 35.6586 251.374 35.7808 251.422 35.9235C251.469 36.0663 251.488 36.2047 251.488 36.328H247.488C247.488 36.9207 247.677 37.4858 248.032 37.96L251.232 35.56ZM281.132 3.496L282.547 4.91022L282.547 4.91021L281.132 3.496ZM307.292 3.496L305.692 4.696L305.864 4.92457L306.092 5.096L307.292 3.496ZM307.052 12.136L305.504 10.8695L305.484 10.8951L305.463 10.9214L307.052 12.136ZM300.044 21.304L301.597 22.5652L301.615 22.5422L301.633 22.5186L300.044 21.304ZM291.932 21.88L290.075 22.6228L290.174 22.8684L290.332 23.08L291.932 21.88ZM292.028 21.4L293.59 22.6494L293.602 22.6339L293.615 22.6182L292.028 21.4ZM301.244 9.4L302.831 10.6182L305.302 7.4H301.244V9.4ZM287.132 9.4V7.4H285.132V9.4H287.132ZM281.132 36.76L279.532 37.96L279.704 38.1886L279.932 38.36L281.132 36.76ZM282.988 36.328V3.88H278.988V36.328H282.988ZM282.988 3.88C282.988 3.99972 282.97 4.17098 282.897 4.36625C282.822 4.56766 282.702 4.7549 282.547 4.91022L279.718 2.08178C279.181 2.61925 278.988 3.29149 278.988 3.88H282.988ZM282.547 4.91021C282.463 4.99429 282.332 5.09826 282.149 5.17962C281.961 5.26306 281.76 5.304 281.564 5.304V1.304C280.803 1.304 280.168 1.63241 279.718 2.08179L282.547 4.91021ZM281.564 5.304H306.908V1.304H281.564V5.304ZM306.908 5.304C306.715 5.304 306.475 5.26338 306.23 5.14085C305.985 5.01833 305.808 4.85076 305.692 4.696L308.892 2.296C308.419 1.66439 307.698 1.304 306.908 1.304V5.304ZM306.092 5.096C305.938 4.97993 305.77 4.80347 305.648 4.55842C305.525 4.31337 305.484 4.07344 305.484 3.88H309.484C309.484 3.09049 309.124 2.36971 308.492 1.896L306.092 5.096ZM305.484 3.88V10.936H309.484V3.88H305.484ZM305.484 10.936C305.484 10.9404 305.484 10.9373 305.486 10.9282C305.487 10.9189 305.49 10.9072 305.495 10.8946C305.499 10.882 305.504 10.8725 305.507 10.8668C305.51 10.8612 305.51 10.8622 305.504 10.8695L308.6 13.4025C309.176 12.6991 309.484 11.8533 309.484 10.936H305.484ZM305.463 10.9214L298.455 20.0894L301.633 22.5186L308.641 13.3506L305.463 10.9214ZM298.492 20.0428C298.467 20.0732 298.452 20.086 298.449 20.0886C298.447 20.0907 298.452 20.0862 298.464 20.0804C298.476 20.0745 298.486 20.0714 298.491 20.0704C298.495 20.0695 298.486 20.072 298.46 20.072V24.072C299.724 24.072 300.814 23.5279 301.597 22.5652L298.492 20.0428ZM298.46 20.072H292.364V24.072H298.46V20.072ZM292.364 20.072C292.488 20.072 292.691 20.0927 292.925 20.1964C293.169 20.3052 293.379 20.4754 293.532 20.68L290.332 23.08C290.884 23.815 291.684 24.072 292.364 24.072V20.072ZM293.789 21.1372C293.893 21.3962 293.934 21.71 293.87 22.0322C293.809 22.3358 293.676 22.5421 293.59 22.6494L290.467 20.1506C289.99 20.7467 289.689 21.6562 290.075 22.6228L293.789 21.1372ZM293.615 22.6182L302.831 10.6182L299.658 8.1818L290.442 20.1818L293.615 22.6182ZM301.244 7.4H287.132V11.4H301.244V7.4ZM285.132 9.4V36.328H289.132V9.4H285.132ZM285.132 36.328C285.132 36.1688 285.183 35.6937 285.62 35.2904C286.026 34.915 286.446 34.904 286.508 34.904V38.904C286.987 38.904 287.718 38.797 288.333 38.2296C288.978 37.6343 289.132 36.8712 289.132 36.328H285.132ZM286.508 34.904H281.564V38.904H286.508V34.904ZM281.564 34.904C281.688 34.904 281.826 34.9231 281.969 34.9706C282.112 35.0182 282.234 35.086 282.332 35.16L279.932 38.36C280.407 38.7156 280.972 38.904 281.564 38.904V34.904ZM282.732 35.56C282.806 35.6586 282.874 35.7808 282.922 35.9235C282.969 36.0663 282.988 36.2047 282.988 36.328H278.988C278.988 36.9207 279.177 37.4858 279.532 37.96L282.732 35.56ZM312.488 9.064L310.7 8.16957L310.69 8.18764L310.682 8.20588L312.488 9.064ZM315.032 5.752L313.734 4.23033L313.723 4.23992L313.712 4.24967L315.032 5.752ZM318.776 3.544L318.07 1.67305L318.063 1.6757L318.056 1.6784L318.776 3.544ZM329.816 4.072L328.935 5.86711L328.953 5.87633L328.972 5.88516L329.816 4.072ZM333.992 7.096L335.571 5.86812L335.561 5.85464L335.55 5.84134L333.992 7.096ZM333.944 7.864L332.627 6.35884L332.561 6.41673L332.5 6.48019L333.944 7.864ZM330.632 11.32L332.047 12.7342L332.062 12.7192L332.076 12.7038L330.632 11.32ZM329.72 11.272L331.282 10.0226L331.246 9.97725L331.207 9.93407L329.72 11.272ZM328.616 10.312L327.397 11.8972L327.425 11.9189L327.454 11.9395L328.616 10.312ZM327.128 9.448L326.193 11.2156L326.253 11.2477L326.316 11.2756L327.128 9.448ZM325.352 8.776L324.867 10.7163L324.867 10.7163L325.352 8.776ZM321.176 8.92L321.837 10.8077L321.863 10.7987L321.888 10.789L321.176 8.92ZM319.544 9.832L318.243 8.31348L318.243 8.31349L319.544 9.832ZM318.488 11.176L316.7 10.2816L316.7 10.2816L318.488 11.176ZM319.016 15.208L317.533 16.5498L317.533 16.5498L319.016 15.208ZM321.752 16.6L321.34 18.5571L321.356 18.5604L321.372 18.5634L321.752 16.6ZM326.456 17.512L326.076 19.4755L326.088 19.4777L326.456 17.512ZM330.488 18.904L329.517 20.6523L329.546 20.6682L329.575 20.6831L330.488 18.904ZM333.416 21.112L331.922 22.4407L331.935 22.4559L331.949 22.4708L333.416 21.112ZM335.24 24.04L333.372 24.7543L333.376 24.7637L333.38 24.773L335.24 24.04ZM335.048 31.192L333.215 30.3928L333.206 30.4128L333.198 30.4329L335.048 31.192ZM332.696 34.552L331.327 33.0943L331.316 33.1048L331.305 33.1155L332.696 34.552ZM328.904 36.952L329.62 38.8197L329.637 38.8131L329.654 38.8062L328.904 36.952ZM319.832 37.384L319.36 39.3274L319.371 39.3302L319.832 37.384ZM316.568 36.28L315.674 38.0689L315.709 38.0865L315.745 38.1027L316.568 36.28ZM314.024 34.744L312.792 36.319L312.813 36.336L312.836 36.3524L314.024 34.744ZM312.2 33.064L313.7 31.7408L313.659 31.6939L313.615 31.6498L312.2 33.064ZM312.2 32.296L310.622 31.0681L310.622 31.0681L312.2 32.296ZM315.224 28.408L316.803 29.6359L316.877 29.5405L316.939 29.437L315.224 28.408ZM315.608 28.168V30.168H315.774L315.937 30.1408L315.608 28.168ZM316.088 28.312L314.674 29.7262L314.7 29.7524L314.727 29.7776L316.088 28.312ZM317.576 29.608L316.305 31.1519L316.333 31.1748L316.361 31.1967L317.576 29.608ZM319.352 30.76L320.316 29.0076L320.316 29.0076L319.352 30.76ZM321.416 31.624L320.834 33.5373L320.834 33.5373L321.416 31.624ZM328.136 25.336L326.659 26.6845L326.69 26.7181L326.722 26.7502L328.136 25.336ZM325.112 23.848L324.712 25.8076L324.725 25.8102L324.738 25.8127L325.112 23.848ZM320.408 22.888L320.808 20.9284L320.805 20.9277L320.408 22.888ZM313.976 19.576L312.535 20.9622L312.535 20.9622L313.976 19.576ZM313.576 13.24C313.576 12.0142 313.822 10.9177 314.295 9.92211L310.682 8.20588C309.939 9.77034 309.576 11.4578 309.576 13.24H313.576ZM314.277 9.95843C314.804 8.90516 315.494 8.00874 316.353 7.25433L313.712 4.24967C312.459 5.35126 311.453 6.66283 310.7 8.16957L314.277 9.95843ZM316.33 7.27367C317.237 6.5 318.288 5.87686 319.497 5.40959L318.056 1.6784C316.449 2.29914 315.003 3.148 313.734 4.23033L316.33 7.27367ZM319.483 5.41494C320.688 4.95962 321.968 4.728 323.336 4.728V0.727998C321.505 0.727998 319.744 1.04037 318.07 1.67305L319.483 5.41494ZM323.336 4.728C325.595 4.728 327.44 5.13315 328.935 5.86711L330.698 2.27689C328.544 1.21884 326.07 0.727998 323.336 0.727998V4.728ZM328.972 5.88516C330.651 6.66675 331.758 7.51033 332.435 8.35066L335.55 5.84134C334.371 4.37767 332.693 3.20525 330.66 2.25883L328.972 5.88516ZM332.414 8.32388C332.352 8.24405 332.119 7.90897 332.152 7.37924C332.187 6.81859 332.49 6.47931 332.627 6.35884L335.261 9.36915C335.655 9.02468 336.093 8.4454 336.144 7.62875C336.194 6.84303 335.857 6.23595 335.571 5.86812L332.414 8.32388ZM332.5 6.48019L329.188 9.93619L332.076 12.7038L335.388 9.24781L332.5 6.48019ZM329.218 9.90579C329.336 9.7881 329.49 9.68068 329.674 9.60705C329.855 9.53434 330.023 9.512 330.152 9.512V13.512C330.839 13.512 331.519 13.2618 332.047 12.7342L329.218 9.90579ZM330.152 9.512C330.423 9.512 330.68 9.58371 330.896 9.70368C331.099 9.81672 331.222 9.94737 331.282 10.0226L328.159 12.5214C328.55 13.011 329.221 13.512 330.152 13.512V9.512ZM331.207 9.93407C330.799 9.48104 330.314 9.06686 329.779 8.68453L327.454 11.9395C327.815 12.1971 328.066 12.423 328.234 12.6099L331.207 9.93407ZM329.836 8.72675C329.272 8.29309 328.634 7.92832 327.941 7.62038L326.316 11.2756C326.775 11.4797 327.129 11.6909 327.397 11.8972L329.836 8.72675ZM328.064 7.68042C327.368 7.31167 326.623 7.03209 325.837 6.83571L324.867 10.7163C325.362 10.8399 325.801 11.0083 326.193 11.2156L328.064 7.68042ZM325.837 6.83572C325.036 6.63532 324.217 6.536 323.384 6.536V10.536C323.896 10.536 324.389 10.5967 324.867 10.7163L325.837 6.83572ZM323.384 6.536C322.368 6.536 321.388 6.69919 320.464 7.05102L321.888 10.789C322.309 10.6288 322.8 10.536 323.384 10.536V6.536ZM320.516 7.03228C319.676 7.32632 318.906 7.74538 318.243 8.31348L320.846 11.3505C321.079 11.1506 321.397 10.9617 321.837 10.8077L320.516 7.03228ZM318.243 8.31349C317.599 8.8655 317.078 9.52376 316.7 10.2816L320.277 12.0704C320.41 11.8042 320.594 11.5665 320.846 11.3505L318.243 8.31349ZM316.7 10.2816C316.304 11.0731 316.104 11.9235 316.104 12.808H320.104C320.104 12.5405 320.161 12.3029 320.277 12.0704L316.7 10.2816ZM316.104 12.808C316.104 14.2187 316.584 15.5005 317.533 16.5498L320.499 13.8662C320.233 13.5715 320.104 13.2533 320.104 12.808H316.104ZM317.533 16.5498C318.512 17.6321 319.862 18.2458 321.34 18.5571L322.164 14.6429C321.211 14.4422 320.736 14.1279 320.499 13.8662L317.533 16.5498ZM321.372 18.5634L326.076 19.4754L326.837 15.5486L322.133 14.6366L321.372 18.5634ZM326.088 19.4777C327.451 19.7333 328.584 20.134 329.517 20.6523L331.46 17.1557C330.089 16.394 328.534 15.8667 326.825 15.5463L326.088 19.4777ZM329.575 20.6831C330.572 21.1951 331.341 21.7872 331.922 22.4407L334.911 19.7833C333.956 18.7088 332.773 17.8289 331.402 17.1249L329.575 20.6831ZM331.949 22.4708C332.577 23.1496 333.048 23.9074 333.372 24.7543L337.108 23.3257C336.6 21.9966 335.855 20.8024 334.884 19.7532L331.949 22.4708ZM333.38 24.773C333.7 25.5856 333.864 26.4559 333.864 27.4H337.864C337.864 25.9761 337.613 24.6064 337.101 23.307L333.38 24.773ZM333.864 27.4C333.864 28.3878 333.656 29.3806 333.215 30.3928L336.882 31.9912C337.529 30.5074 337.864 28.9722 337.864 27.4H333.864ZM333.198 30.4329C332.802 31.3971 332.19 32.2834 331.327 33.0943L334.066 36.0097C335.314 34.8366 336.27 33.4829 336.899 31.9511L333.198 30.4329ZM331.305 33.1155C330.49 33.9052 329.453 34.5731 328.155 35.0978L329.654 38.8062C331.364 38.1149 332.855 37.1828 334.088 35.9885L331.305 33.1155ZM328.189 35.0843C326.956 35.5565 325.478 35.816 323.72 35.816V39.816C325.867 39.816 327.845 39.4995 329.62 38.8197L328.189 35.0843ZM323.72 35.816C322.484 35.816 321.344 35.6867 320.293 35.4378L319.371 39.3302C320.753 39.6573 322.205 39.816 323.72 39.816V35.816ZM320.305 35.4407C319.227 35.1785 318.258 34.8487 317.392 34.4573L315.745 38.1027C316.862 38.6073 318.069 39.0135 319.36 39.3273L320.305 35.4407ZM317.463 34.4911C316.589 34.0541 315.842 33.6006 315.213 33.1356L312.836 36.3524C313.679 36.9754 314.628 37.5459 315.674 38.0689L317.463 34.4911ZM315.257 33.169C314.592 32.6482 314.08 32.171 313.7 31.7408L310.701 34.3872C311.281 35.045 311.985 35.6878 312.792 36.319L315.257 33.169ZM313.615 31.6498C313.783 31.8185 314.032 32.1815 314.032 32.704C314.032 33.1752 313.827 33.4622 313.779 33.5239L310.622 31.0681C310.35 31.4178 310.032 31.9768 310.032 32.704C310.032 33.4825 310.393 34.0855 310.786 34.4782L313.615 31.6498ZM313.779 33.5239L316.803 29.6359L313.646 27.1801L310.622 31.0681L313.779 33.5239ZM316.939 29.437C316.862 29.5651 316.712 29.7616 316.452 29.924C316.179 30.0948 315.88 30.168 315.608 30.168V26.168C314.618 26.168 313.896 26.735 313.509 27.379L316.939 29.437ZM315.937 30.1408C315.781 30.1668 315.555 30.1729 315.298 30.0957C315.035 30.0167 314.824 29.8762 314.674 29.7262L317.503 26.8978C316.879 26.2742 316.052 26.0664 315.28 26.1952L315.937 30.1408ZM314.727 29.7776C315.208 30.2243 315.735 30.6824 316.305 31.1519L318.848 28.0641C318.33 27.6376 317.864 27.2317 317.449 26.8464L314.727 29.7776ZM316.361 31.1967C316.99 31.6774 317.667 32.1154 318.389 32.5124L320.316 29.0076C319.758 28.7006 319.251 28.3706 318.791 28.0193L316.361 31.1967ZM318.389 32.5124C319.156 32.9346 319.973 33.2752 320.834 33.5373L321.999 29.7107C321.388 29.5248 320.829 29.2894 320.316 29.0076L318.389 32.5124ZM320.834 33.5373C321.774 33.8233 322.755 33.96 323.768 33.96V29.96C323.118 29.96 322.531 29.8727 321.999 29.7107L320.834 33.5373ZM323.768 33.96C325.785 33.96 327.656 33.5239 329.076 32.3488L326.525 29.2672C326.089 29.6281 325.271 29.96 323.768 29.96V33.96ZM329.076 32.3488C330.468 31.1967 331.192 29.6374 331.192 27.832H327.192C327.192 28.4586 326.989 28.8833 326.525 29.2672L329.076 32.3488ZM331.192 27.832C331.192 26.32 330.614 24.9853 329.551 23.9218L326.722 26.7502C327.067 27.0947 327.192 27.424 327.192 27.832H331.192ZM329.613 23.9875C328.559 22.8325 327.1 22.1906 325.487 21.8833L324.738 25.8127C325.813 26.0174 326.37 26.3675 326.659 26.6845L329.613 23.9875ZM325.512 21.8884L320.808 20.9284L320.008 24.8476L324.712 25.8076L325.512 21.8884ZM320.805 20.9277C318.439 20.4489 316.686 19.509 315.418 18.1898L312.535 20.9622C314.466 22.971 317.002 24.2391 320.012 24.8483L320.805 20.9277ZM315.418 18.1898C314.217 16.9404 313.576 15.3445 313.576 13.24H309.576C309.576 16.2555 310.536 18.8836 312.535 20.9622L315.418 18.1898Z" fill="#F6F6F6"/>
</svg>
