<svg width="400" height="500" viewBox="0 0 400 500" fill="none" xmlns="http://www.w3.org/2000/svg">
<rect width="400" height="500" fill="#1A1A1A"/>
<path d="M317.626 490C320.328 490 322.526 487.816 322.526 485.114C322.526 482.412 320.328 480.2 317.626 480.2H315.834H315.792C315.61 480.2 315.456 480.354 315.456 480.536V489.664C315.456 489.846 315.596 489.986 315.764 490H315.82H317.626ZM316.142 489.314V480.886H317.626C319.95 480.9 321.84 482.776 321.84 485.114C321.84 487.438 319.95 489.314 317.626 489.314H316.142ZM325.365 489.664C325.365 489.86 325.519 490 325.715 490C325.883 490 326.037 489.86 326.037 489.664V486.654C326.037 486.626 326.037 486.598 326.065 486.542C326.163 486.262 326.429 485.562 326.891 484.946C327.367 484.33 327.983 483.826 328.879 483.826C329.061 483.826 329.215 483.672 329.215 483.49C329.215 483.294 329.061 483.154 328.879 483.154C327.562 483.154 326.653 484.022 326.135 484.834C326.093 484.89 326.065 484.946 326.037 485.002V483.49C326.037 483.294 325.883 483.154 325.715 483.154C325.519 483.154 325.365 483.294 325.365 483.49V489.664ZM336.579 483.14C336.397 483.14 336.243 483.28 336.243 483.476V484.484C335.655 483.672 334.717 483.14 333.667 483.14C331.861 483.14 330.419 484.694 330.419 486.57C330.419 488.446 331.861 490 333.667 490C334.717 490 335.655 489.454 336.243 488.642V489.664C336.243 489.846 336.397 490 336.579 490C336.761 490 336.915 489.846 336.915 489.664V483.476C336.915 483.28 336.761 483.14 336.579 483.14ZM333.667 489.328C332.267 489.328 331.091 488.11 331.091 486.57C331.091 485.03 332.267 483.798 333.667 483.798C335.081 483.798 336.243 485.03 336.243 486.57C336.243 488.11 335.081 489.328 333.667 489.328ZM346.314 483.476C346.314 483.294 346.16 483.14 345.992 483.14C345.796 483.14 345.642 483.294 345.642 483.476V484.484C345.068 483.672 344.13 483.14 343.08 483.14C341.288 483.14 339.86 484.694 339.86 486.542C339.86 488.432 341.288 489.958 343.08 489.958C344.13 489.958 345.068 489.44 345.642 488.614V489.454C345.642 490.868 344.508 492.002 343.08 492.002C342.66 492.002 342.31 491.918 341.96 491.75C341.792 491.652 341.596 491.722 341.512 491.904C341.428 492.058 341.512 492.254 341.652 492.352C342.1 492.548 342.576 492.674 343.08 492.674C344.872 492.674 346.314 491.232 346.314 489.454V483.476ZM343.08 489.3C341.68 489.3 340.532 488.082 340.532 486.542C340.532 485.016 341.68 483.812 343.08 483.812C344.494 483.812 345.642 485.016 345.642 486.542C345.642 488.082 344.494 489.3 343.08 489.3ZM349.536 489.986C349.578 490 349.62 490 349.676 490C349.802 490 349.928 489.93 349.984 489.79L353.806 480.718C353.89 480.536 353.806 480.34 353.624 480.27C353.442 480.2 353.26 480.284 353.176 480.452L349.354 489.524C349.284 489.706 349.368 489.902 349.536 489.986ZM354.629 485.058C354.629 487.788 356.911 490 359.725 490C360.929 490 362.035 489.594 362.889 488.936C363.043 488.824 363.071 488.572 362.931 488.446C362.833 488.278 362.609 488.25 362.441 488.362C361.713 488.978 360.761 489.314 359.725 489.314C357.275 489.314 355.315 487.396 355.315 485.058C355.315 482.664 357.275 480.746 359.725 480.746C360.761 480.746 361.713 481.11 362.469 481.698C362.609 481.81 362.833 481.796 362.945 481.628C363.071 481.502 363.043 481.264 362.889 481.138C362.035 480.48 360.929 480.06 359.725 480.06C356.911 480.074 354.629 482.272 354.629 485.058ZM365.357 489.664C365.357 489.846 365.511 490 365.693 490C365.889 490 366.043 489.846 366.043 489.664V480.536C366.043 480.354 365.889 480.2 365.693 480.2C365.511 480.2 365.357 480.354 365.357 480.536V489.664ZM368.759 489.664C368.759 489.846 368.913 490 369.095 490C369.291 490 369.445 489.846 369.445 489.664V483.476C369.445 483.28 369.291 483.14 369.095 483.14C368.913 483.14 368.759 483.28 368.759 483.476V489.664ZM368.759 481.558C368.759 481.754 368.913 481.922 369.095 481.922C369.291 481.922 369.445 481.754 369.445 481.558V481.236C369.445 481.054 369.291 480.9 369.095 480.9C368.913 480.9 368.759 481.054 368.759 481.236V481.558ZM375.721 490C376.533 490 377.303 489.72 377.877 489.272C378.045 489.146 378.073 488.936 377.947 488.782C377.835 488.656 377.639 488.614 377.485 488.726C376.995 489.104 376.379 489.328 375.721 489.328C374.125 489.328 372.865 488.096 372.865 486.556C372.865 485.044 374.125 483.798 375.721 483.798C376.379 483.798 376.995 484.022 377.485 484.414C377.639 484.526 377.835 484.484 377.947 484.358C378.073 484.204 378.045 483.994 377.905 483.896C377.303 483.42 376.533 483.14 375.721 483.14C373.761 483.14 372.193 484.652 372.193 486.556C372.193 488.488 373.761 490 375.721 490ZM380.681 489.664C380.681 489.846 380.835 490 381.017 490C381.213 490 381.367 489.846 381.367 489.664V488.096L382.767 486.696L385.399 489.874C385.455 489.972 385.567 490 385.665 490C385.735 490 385.819 489.986 385.889 489.93C386.029 489.79 386.043 489.594 385.917 489.44L383.257 486.206L385.903 483.56C386.043 483.42 386.043 483.21 385.903 483.084C385.763 482.944 385.567 482.944 385.427 483.084L381.367 487.13V480.536C381.367 480.354 381.213 480.2 381.017 480.2C380.835 480.2 380.681 480.354 380.681 480.536V489.664Z" fill="#4CD964"/>
<path d="M233.646 484.646C233.451 484.842 233.451 485.158 233.646 485.354L236.828 488.536C237.024 488.731 237.34 488.731 237.536 488.536C237.731 488.34 237.731 488.024 237.536 487.828L234.707 485L237.536 482.172C237.731 481.976 237.731 481.66 237.536 481.464C237.34 481.269 237.024 481.269 236.828 481.464L233.646 484.646ZM298 484.5L234 484.5L234 485.5L298 485.5L298 484.5Z" fill="#FF4655"/>
<path d="M0 0H400C201.319 2.56885 135.194 32.4993 98.5 137L0 500V0Z" fill="#FF4655"/>
</svg>
