<svg width="400" height="500" viewBox="0 0 400 500" fill="none" xmlns="http://www.w3.org/2000/svg">
<rect width="400" height="500" fill="#0F1923"/>
<path d="M21.626 489C24.328 489 26.526 486.816 26.526 484.114C26.526 481.412 24.328 479.2 21.626 479.2H19.834H19.792C19.61 479.2 19.456 479.354 19.456 479.536V488.664C19.456 488.846 19.596 488.986 19.764 489H19.82H21.626ZM20.142 488.314V479.886H21.626C23.95 479.9 25.84 481.776 25.84 484.114C25.84 486.438 23.95 488.314 21.626 488.314H20.142ZM29.3645 488.664C29.3645 488.86 29.5185 489 29.7145 489C29.8825 489 30.0365 488.86 30.0365 488.664V485.654C30.0365 485.626 30.0365 485.598 30.0645 485.542C30.1625 485.262 30.4285 484.562 30.8905 483.946C31.3665 483.33 31.9825 482.826 32.8785 482.826C33.0605 482.826 33.2145 482.672 33.2145 482.49C33.2145 482.294 33.0605 482.154 32.8785 482.154C31.5625 482.154 30.6525 483.022 30.1345 483.834C30.0925 483.89 30.0645 483.946 30.0365 484.002V482.49C30.0365 482.294 29.8825 482.154 29.7145 482.154C29.5185 482.154 29.3645 482.294 29.3645 482.49V488.664ZM40.5794 482.14C40.3974 482.14 40.2434 482.28 40.2434 482.476V483.484C39.6554 482.672 38.7174 482.14 37.6674 482.14C35.8614 482.14 34.4194 483.694 34.4194 485.57C34.4194 487.446 35.8614 489 37.6674 489C38.7174 489 39.6554 488.454 40.2434 487.642V488.664C40.2434 488.846 40.3974 489 40.5794 489C40.7614 489 40.9154 488.846 40.9154 488.664V482.476C40.9154 482.28 40.7614 482.14 40.5794 482.14ZM37.6674 488.328C36.2674 488.328 35.0914 487.11 35.0914 485.57C35.0914 484.03 36.2674 482.798 37.6674 482.798C39.0814 482.798 40.2434 484.03 40.2434 485.57C40.2434 487.11 39.0814 488.328 37.6674 488.328ZM50.3135 482.476C50.3135 482.294 50.1595 482.14 49.9915 482.14C49.7955 482.14 49.6415 482.294 49.6415 482.476V483.484C49.0675 482.672 48.1295 482.14 47.0795 482.14C45.2875 482.14 43.8595 483.694 43.8595 485.542C43.8595 487.432 45.2875 488.958 47.0795 488.958C48.1295 488.958 49.0675 488.44 49.6415 487.614V488.454C49.6415 489.868 48.5075 491.002 47.0795 491.002C46.6595 491.002 46.3095 490.918 45.9595 490.75C45.7915 490.652 45.5955 490.722 45.5115 490.904C45.4275 491.058 45.5115 491.254 45.6515 491.352C46.0995 491.548 46.5755 491.674 47.0795 491.674C48.8715 491.674 50.3135 490.232 50.3135 488.454V482.476ZM47.0795 488.3C45.6795 488.3 44.5315 487.082 44.5315 485.542C44.5315 484.016 45.6795 482.812 47.0795 482.812C48.4935 482.812 49.6415 484.016 49.6415 485.542C49.6415 487.082 48.4935 488.3 47.0795 488.3ZM53.5357 488.986C53.5777 489 53.6197 489 53.6757 489C53.8017 489 53.9277 488.93 53.9837 488.79L57.8057 479.718C57.8897 479.536 57.8057 479.34 57.6237 479.27C57.4417 479.2 57.2597 479.284 57.1757 479.452L53.3537 488.524C53.2837 488.706 53.3677 488.902 53.5357 488.986ZM58.6294 484.058C58.6294 486.788 60.9114 489 63.7254 489C64.9294 489 66.0354 488.594 66.8894 487.936C67.0434 487.824 67.0714 487.572 66.9314 487.446C66.8334 487.278 66.6094 487.25 66.4414 487.362C65.7134 487.978 64.7614 488.314 63.7254 488.314C61.2754 488.314 59.3154 486.396 59.3154 484.058C59.3154 481.664 61.2754 479.746 63.7254 479.746C64.7614 479.746 65.7134 480.11 66.4694 480.698C66.6094 480.81 66.8334 480.796 66.9454 480.628C67.0714 480.502 67.0434 480.264 66.8894 480.138C66.0354 479.48 64.9294 479.06 63.7254 479.06C60.9114 479.074 58.6294 481.272 58.6294 484.058ZM69.357 488.664C69.357 488.846 69.511 489 69.693 489C69.889 489 70.043 488.846 70.043 488.664V479.536C70.043 479.354 69.889 479.2 69.693 479.2C69.511 479.2 69.357 479.354 69.357 479.536V488.664ZM72.7594 488.664C72.7594 488.846 72.9134 489 73.0954 489C73.2914 489 73.4454 488.846 73.4454 488.664V482.476C73.4454 482.28 73.2914 482.14 73.0954 482.14C72.9134 482.14 72.7594 482.28 72.7594 482.476V488.664ZM72.7594 480.558C72.7594 480.754 72.9134 480.922 73.0954 480.922C73.2914 480.922 73.4454 480.754 73.4454 480.558V480.236C73.4454 480.054 73.2914 479.9 73.0954 479.9C72.9134 479.9 72.7594 480.054 72.7594 480.236V480.558ZM79.7209 489C80.5329 489 81.3029 488.72 81.8769 488.272C82.0449 488.146 82.0729 487.936 81.9469 487.782C81.8349 487.656 81.6389 487.614 81.4849 487.726C80.9949 488.104 80.3789 488.328 79.7209 488.328C78.1249 488.328 76.8649 487.096 76.8649 485.556C76.8649 484.044 78.1249 482.798 79.7209 482.798C80.3789 482.798 80.9949 483.022 81.4849 483.414C81.6389 483.526 81.8349 483.484 81.9469 483.358C82.0729 483.204 82.0449 482.994 81.9049 482.896C81.3029 482.42 80.5329 482.14 79.7209 482.14C77.7609 482.14 76.1929 483.652 76.1929 485.556C76.1929 487.488 77.7609 489 79.7209 489ZM84.6809 488.664C84.6809 488.846 84.8349 489 85.0169 489C85.2129 489 85.3669 488.846 85.3669 488.664V487.096L86.7669 485.696L89.3989 488.874C89.4549 488.972 89.5669 489 89.6649 489C89.7349 489 89.8189 488.986 89.8889 488.93C90.0289 488.79 90.0429 488.594 89.9169 488.44L87.2569 485.206L89.9029 482.56C90.0429 482.42 90.0429 482.21 89.9029 482.084C89.7629 481.944 89.5669 481.944 89.4269 482.084L85.3669 486.13V479.536C85.3669 479.354 85.2129 479.2 85.0169 479.2C84.8349 479.2 84.6809 479.354 84.6809 479.536V488.664Z" fill="#4CD964"/>
<path d="M170.354 484.354C170.549 484.158 170.549 483.842 170.354 483.646L167.172 480.464C166.976 480.269 166.66 480.269 166.464 480.464C166.269 480.66 166.269 480.976 166.464 481.172L169.293 484L166.464 486.828C166.269 487.024 166.269 487.34 166.464 487.536C166.66 487.731 166.976 487.731 167.172 487.536L170.354 484.354ZM106 484.5H170V483.5H106V484.5Z" fill="#FF4655"/>
<path d="M0 0H400C201.319 2.56885 135.194 32.4993 98.5 137L0 500V0Z" fill="#FF4655"/>
</svg>
