<svg width="398" height="40" viewBox="0 0 398 40" fill="none" xmlns="http://www.w3.org/2000/svg">
<path d="M8.072 3.496L6.472 4.696L6.64343 4.92458L6.87201 5.09601L8.072 3.496ZM8.696 27.16L6.81423 27.8374L6.83091 27.8838L6.84985 27.9292L8.696 27.16ZM9.944 29.272L8.38226 30.5214L8.41673 30.5645L8.45352 30.6056L9.944 29.272ZM11.864 30.76L12.7891 28.9868L12.7891 28.9868L11.864 30.76ZM14.264 31.48L14.0431 33.4678L14.0572 33.4693L14.0714 33.4707L14.264 31.48ZM17.048 31.144L16.3753 29.2605L16.3643 29.2644L16.3534 29.2685L17.048 31.144ZM19.352 29.752L18.0102 28.2689L17.9921 28.2852L17.9745 28.302L19.352 29.752ZM20.936 27.592L22.7519 28.4301L22.7579 28.4172L22.7636 28.4043L20.936 27.592ZM21.704 3.496L22.904 5.09601L23.0177 5.01072L23.1182 4.91021L21.704 3.496ZM27.416 3.496L25.816 4.69599L25.9874 4.92457L26.216 5.09601L27.416 3.496ZM26.6 29.752L24.7677 28.9504L24.7606 28.9665L24.7538 28.9828L26.6 29.752ZM23.96 33.784L25.394 35.1782L25.394 35.1782L23.96 33.784ZM19.976 36.568L20.7919 38.394L20.8006 38.3901L20.8093 38.3861L19.976 36.568ZM15.128 37.624L15.1637 39.6237L15.165 39.6237L15.128 37.624ZM10.088 36.664L9.26882 38.4885L9.28443 38.4955L9.30016 38.5023L10.088 36.664ZM5.96 33.832L4.52706 35.2272L4.53636 35.2368L4.54579 35.2462L5.96 33.832ZM3.176 29.656L1.33204 30.4305L1.33485 30.4372L1.33771 30.4438L3.176 29.656ZM2.312 3.496L3.7262 4.91022L3.72622 4.91021L2.312 3.496ZM2.744 5.304H7.688V1.304H2.744V5.304ZM7.688 5.304C7.49456 5.304 7.25462 5.26338 7.00957 5.14085C6.76452 5.01833 6.58807 4.85075 6.472 4.696L9.672 2.296C9.19829 1.66439 8.47752 1.304 7.688 1.304V5.304ZM6.87201 5.09601C6.71725 4.97994 6.54967 4.80348 6.42715 4.55843C6.30462 4.31338 6.264 4.07344 6.264 3.88H10.264C10.264 3.09048 9.90361 2.3697 9.27199 1.89599L6.87201 5.09601ZM6.264 3.88V24.664H10.264V3.88H6.264ZM6.264 24.664C6.264 25.7551 6.44672 26.8166 6.81423 27.8374L10.5778 26.4826C10.3693 25.9034 10.264 25.3009 10.264 24.664H6.264ZM6.84985 27.9292C7.24065 28.8671 7.75171 29.7332 8.38226 30.5214L11.5057 28.0226C11.1123 27.5308 10.7914 26.9888 10.5422 26.3908L6.84985 27.9292ZM8.45352 30.6056C9.16083 31.3961 9.99332 32.0398 10.9389 32.5332L12.7891 28.9868C12.2627 28.7122 11.8152 28.3639 11.4345 27.9384L8.45352 30.6056ZM10.9389 32.5332C11.9046 33.037 12.9449 33.3457 14.0431 33.4678L14.4849 29.4922C13.8551 29.4223 13.2954 29.251 12.7891 28.9868L10.9389 32.5332ZM14.0714 33.4707C15.339 33.5934 16.5727 33.4528 17.7426 33.0195L16.3534 29.2685C15.7953 29.4752 15.173 29.5586 14.4566 29.4893L14.0714 33.4707ZM17.7207 33.0275C18.8586 32.6211 19.872 32.0166 20.7295 31.202L17.9745 28.302C17.552 28.7034 17.0294 29.0269 16.3753 29.2605L17.7207 33.0275ZM20.6938 31.2351C21.568 30.4442 22.2563 29.504 22.7519 28.4301L19.1201 26.7539C18.8477 27.344 18.48 27.8438 18.0102 28.2689L20.6938 31.2351ZM22.7636 28.4043C23.2631 27.2805 23.512 26.0914 23.512 24.856H19.512C19.512 25.5406 19.3769 26.1755 19.1084 26.7797L22.7636 28.4043ZM23.512 24.856V3.88H19.512V24.856H23.512ZM23.512 3.88C23.512 4.07344 23.4714 4.31338 23.3489 4.55843C23.2263 4.80348 23.0587 4.97994 22.904 5.09601L20.504 1.89599C19.8724 2.3697 19.512 3.09048 19.512 3.88H23.512ZM23.1182 4.91021C23.0341 4.99429 22.9033 5.09826 22.7203 5.17962C22.5326 5.26306 22.3314 5.304 22.136 5.304V1.304C21.3742 1.304 20.7392 1.63241 20.2898 2.08179L23.1182 4.91021ZM22.136 5.304H27.032V1.304H22.136V5.304ZM27.032 5.304C26.8386 5.304 26.5986 5.26338 26.3536 5.14085C26.1085 5.01832 25.9321 4.85075 25.816 4.69599L29.016 2.29601C28.5423 1.66439 27.8215 1.304 27.032 1.304V5.304ZM26.216 5.09601C26.0613 4.97994 25.8937 4.80348 25.7711 4.55843C25.6486 4.31338 25.608 4.07344 25.608 3.88H29.608C29.608 3.09048 29.2476 2.3697 28.616 1.89599L26.216 5.09601ZM25.608 3.88V24.856H29.608V3.88H25.608ZM25.608 24.856C25.608 26.3168 25.3257 27.675 24.7677 28.9504L28.4323 30.5536C29.2183 28.757 29.608 26.8512 29.608 24.856H25.608ZM24.7538 28.9828C24.2072 30.2948 23.4643 31.4248 22.526 32.3898L25.394 35.1782C26.6957 33.8392 27.7128 32.2812 28.4462 30.5212L24.7538 28.9828ZM22.526 32.3898C21.5871 33.3556 20.4657 34.1435 19.1427 34.7499L20.8093 38.3861C22.5583 37.5845 24.0929 36.5164 25.394 35.1782L22.526 32.3898ZM19.1601 34.742C17.9134 35.299 16.5638 35.5971 15.091 35.6243L15.165 39.6237C17.1482 39.5869 19.0306 39.181 20.7919 38.394L19.1601 34.742ZM15.0923 35.6243C13.5685 35.6515 12.1707 35.3807 10.8758 34.8257L9.30016 38.5023C11.1413 39.2913 13.1035 39.6605 15.1637 39.6237L15.0923 35.6243ZM10.9072 34.8395C9.55482 34.2323 8.38186 33.4254 7.37421 32.4178L4.54579 35.2462C5.90614 36.6066 7.48518 37.6877 9.26882 38.4885L10.9072 34.8395ZM7.39294 32.4368C6.38109 31.3976 5.5901 30.2117 5.01429 28.8682L1.33771 30.4438C2.1059 32.2363 3.17091 33.8344 4.52706 35.2272L7.39294 32.4368ZM5.01996 28.8815C4.45433 27.5348 4.168 26.1029 4.168 24.568H0.168C0.168 26.6171 0.553668 28.5772 1.33204 30.4305L5.01996 28.8815ZM4.168 24.568V3.88H0.168V24.568H4.168ZM4.168 3.88C4.168 3.99972 4.14988 4.17099 4.07666 4.36625C4.00113 4.56766 3.88153 4.7549 3.7262 4.91022L0.897797 2.08178C0.360317 2.61925 0.168 3.29149 0.168 3.88H4.168ZM3.72622 4.91021C3.64214 4.99429 3.51134 5.09826 3.32828 5.17962C3.14055 5.26306 2.93942 5.304 2.744 5.304V1.304C1.98217 1.304 1.34716 1.63241 0.897785 2.08179L3.72622 4.91021ZM34.6636 36.856L33.0636 38.056L33.2351 38.2846L33.4636 38.456L34.6636 36.856ZM34.6636 3.592L33.2494 2.17779L33.2494 2.17779L34.6636 3.592ZM35.0956 5.4H40.0396V1.4H35.0956V5.4ZM40.0396 5.4C39.9773 5.4 39.5577 5.38895 39.1511 5.0136C38.7142 4.61034 38.6636 4.13523 38.6636 3.976H42.6636C42.6636 3.43277 42.5091 2.66966 41.8642 2.07439C41.2496 1.50705 40.518 1.4 40.0396 1.4V5.4ZM38.6636 3.976V36.424H42.6636V3.976H38.6636ZM38.6636 36.424C38.6636 36.2648 38.7142 35.7897 39.1511 35.3864C39.5577 35.011 39.9773 35 40.0396 35V39C40.518 39 41.2496 38.893 41.8642 38.3256C42.5091 37.7303 42.6636 36.9672 42.6636 36.424H38.6636ZM40.0396 35H35.0956V39H40.0396V35ZM35.0956 35C35.2189 35 35.3573 35.0191 35.5001 35.0666C35.6428 35.1142 35.765 35.182 35.8636 35.256L33.4636 38.456C33.9378 38.8116 34.5029 39 35.0956 39V35ZM36.2636 35.656C36.3376 35.7546 36.4054 35.8768 36.453 36.0195C36.5006 36.1623 36.5196 36.3007 36.5196 36.424H32.5196C32.5196 37.0167 32.708 37.5818 33.0636 38.056L36.2636 35.656ZM36.5196 36.424V3.976H32.5196V36.424H36.5196ZM36.5196 3.976C36.5196 4.09573 36.5015 4.26698 36.4283 4.46224C36.3528 4.66365 36.2332 4.85089 36.0778 5.00621L33.2494 2.17779C32.7119 2.71526 32.5196 3.38749 32.5196 3.976H36.5196ZM36.0778 5.00621C35.9938 5.09029 35.863 5.19426 35.6799 5.27562C35.4922 5.35906 35.291 5.4 35.0956 5.4V1.4C34.3338 1.4 33.6988 1.72841 33.2494 2.17779L36.0778 5.00621ZM44.5258 36.328L46.0875 37.5774L46.1002 37.5615L46.1126 37.5454L44.5258 36.328ZM69.1978 4.168L67.6455 2.90681L67.6279 2.92849L67.6109 2.95064L69.1978 4.168ZM77.2618 3.64L75.4048 4.38279L75.4643 4.53157L75.5468 4.66898L77.2618 3.64ZM77.2138 4.12L75.652 2.87062L75.6398 2.88594L75.6278 2.90149L77.2138 4.12ZM52.5418 36.232L50.9558 35.0135L50.9311 35.0456L50.9078 35.0786L52.5418 36.232ZM44.4778 36.808L42.7628 37.837L42.7628 37.837L44.4778 36.808ZM46.1126 37.5454L70.7846 5.38536L67.6109 2.95064L42.9389 35.1106L46.1126 37.5454ZM70.75 5.42918C70.7747 5.39878 70.7898 5.38597 70.7929 5.38342C70.7955 5.38132 70.7904 5.38577 70.7783 5.39163C70.7661 5.39755 70.7557 5.40058 70.7509 5.40162C70.7468 5.40253 70.7557 5.4 70.7818 5.4V1.4C69.5184 1.4 68.4278 1.94405 67.6455 2.90681L70.75 5.42918ZM70.7818 5.4H76.8778V1.4H70.7818V5.4ZM76.8778 5.4C76.6998 5.4 76.3875 5.36209 76.0578 5.156C75.7119 4.93986 75.5073 4.63893 75.4048 4.38279L79.1187 2.8972C78.9522 2.48107 78.6516 2.06014 78.1777 1.764C77.72 1.4779 77.2477 1.4 76.8778 1.4V5.4ZM75.5468 4.66898C75.4102 4.44137 75.2902 4.09547 75.3317 3.68099C75.3714 3.28419 75.5405 3.01001 75.652 2.87062L78.7755 5.36938C79.015 5.06999 79.2561 4.6358 79.3118 4.079C79.3693 3.50452 79.2093 2.99862 78.9767 2.61101L75.5468 4.66898ZM75.6278 2.90149L50.9558 35.0135L54.1277 37.4505L78.7997 5.3385L75.6278 2.90149ZM50.9078 35.0786C50.8913 35.102 50.8852 35.1056 50.8932 35.0985C50.9018 35.0908 50.9185 35.0781 50.9418 35.0661C50.9652 35.054 50.984 35.0484 50.9926 35.0465C51.0003 35.0447 50.9905 35.048 50.9578 35.048V39.048C52.2725 39.048 53.4128 38.4661 54.1757 37.3854L50.9078 35.0786ZM50.9578 35.048H44.8618V39.048H50.9578V35.048ZM44.8618 35.048C45.1331 35.048 45.4325 35.1212 45.7057 35.292C45.9656 35.4544 46.1159 35.6509 46.1927 35.779L42.7628 37.837C43.1492 38.481 43.8713 39.048 44.8618 39.048V35.048ZM46.1927 35.779C46.3293 36.0066 46.4493 36.3525 46.4078 36.767C46.3681 37.1638 46.199 37.438 46.0875 37.5774L42.964 35.0786C42.7245 35.378 42.4834 35.8122 42.4277 36.369C42.3702 36.9435 42.5302 37.4494 42.7628 37.837L46.1927 35.779ZM86.6345 3.496L85.0345 4.696L85.2059 4.92458L85.4345 5.09601L86.6345 3.496ZM87.2585 27.16L85.3767 27.8374L85.3934 27.8838L85.4123 27.9292L87.2585 27.16ZM88.5065 29.272L86.9448 30.5214L86.9792 30.5645L87.016 30.6056L88.5065 29.272ZM90.4265 30.76L91.3516 28.9868L91.3516 28.9868L90.4265 30.76ZM92.8265 31.48L92.6056 33.4678L92.6197 33.4693L92.6339 33.4707L92.8265 31.48ZM95.6105 31.144L94.9378 29.2605L94.9268 29.2644L94.9159 29.2685L95.6105 31.144ZM97.9145 29.752L96.5727 28.2689L96.5546 28.2852L96.537 28.302L97.9145 29.752ZM99.4985 27.592L101.314 28.4301L101.32 28.4172L101.326 28.4043L99.4985 27.592ZM100.267 3.496L101.466 5.09601L101.58 5.01072L101.681 4.91021L100.267 3.496ZM105.979 3.496L104.378 4.69599L104.55 4.92457L104.779 5.09601L105.979 3.496ZM105.163 29.752L103.33 28.9504L103.323 28.9665L103.316 28.9828L105.163 29.752ZM102.523 33.784L103.956 35.1782L103.956 35.1782L102.523 33.784ZM98.5385 36.568L99.3544 38.394L99.3631 38.3901L99.3718 38.3861L98.5385 36.568ZM93.6905 37.624L93.7262 39.6237L93.7275 39.6237L93.6905 37.624ZM88.6505 36.664L87.8313 38.4885L87.8469 38.4955L87.8627 38.5023L88.6505 36.664ZM84.5225 33.832L83.0896 35.2272L83.0989 35.2368L83.1083 35.2462L84.5225 33.832ZM81.7385 29.656L79.8945 30.4305L79.8973 30.4372L79.9002 30.4438L81.7385 29.656ZM80.8745 3.496L82.2887 4.91022L82.2887 4.91021L80.8745 3.496ZM81.3065 5.304H86.2505V1.304H81.3065V5.304ZM86.2505 5.304C86.0571 5.304 85.8171 5.26338 85.5721 5.14085C85.327 5.01833 85.1506 4.85075 85.0345 4.696L88.2345 2.296C87.7608 1.66439 87.04 1.304 86.2505 1.304V5.304ZM85.4345 5.09601C85.2798 4.97994 85.1122 4.80348 84.9896 4.55843C84.8671 4.31338 84.8265 4.07344 84.8265 3.88H88.8265C88.8265 3.09048 88.4661 2.3697 87.8345 1.89599L85.4345 5.09601ZM84.8265 3.88V24.664H88.8265V3.88H84.8265ZM84.8265 24.664C84.8265 25.7551 85.0092 26.8166 85.3767 27.8374L89.1403 26.4826C88.9318 25.9034 88.8265 25.3009 88.8265 24.664H84.8265ZM85.4123 27.9292C85.8031 28.8671 86.3142 29.7332 86.9448 30.5214L90.0682 28.0226C89.6748 27.5308 89.3539 26.9888 89.1047 26.3908L85.4123 27.9292ZM87.016 30.6056C87.7233 31.3961 88.5558 32.0398 89.5014 32.5332L91.3516 28.9868C90.8252 28.7122 90.3777 28.3639 89.997 27.9384L87.016 30.6056ZM89.5014 32.5332C90.4671 33.037 91.5074 33.3457 92.6056 33.4678L93.0474 29.4922C92.4176 29.4223 91.8579 29.251 91.3516 28.9868L89.5014 32.5332ZM92.6339 33.4707C93.9015 33.5934 95.1352 33.4528 96.3051 33.0195L94.9159 29.2685C94.3578 29.4752 93.7355 29.5586 93.0191 29.4893L92.6339 33.4707ZM96.2832 33.0275C97.4211 32.6211 98.4345 32.0166 99.292 31.202L96.537 28.302C96.1145 28.7034 95.5919 29.0269 94.9378 29.2605L96.2832 33.0275ZM99.2563 31.2351C100.13 30.4442 100.819 29.504 101.314 28.4301L97.6826 26.7539C97.4102 27.344 97.0425 27.8438 96.5727 28.2689L99.2563 31.2351ZM101.326 28.4043C101.826 27.2805 102.075 26.0914 102.075 24.856H98.0745C98.0745 25.5406 97.9394 26.1755 97.6709 26.7797L101.326 28.4043ZM102.075 24.856V3.88H98.0745V24.856H102.075ZM102.075 3.88C102.075 4.07344 102.034 4.31338 101.911 4.55843C101.789 4.80348 101.621 4.97994 101.466 5.09601L99.0665 1.89599C98.4349 2.3697 98.0745 3.09048 98.0745 3.88H102.075ZM101.681 4.91021C101.597 4.99429 101.466 5.09826 101.283 5.17962C101.095 5.26306 100.894 5.304 100.699 5.304V1.304C99.9367 1.304 99.3017 1.63241 98.8523 2.08179L101.681 4.91021ZM100.699 5.304H105.595V1.304H100.699V5.304ZM105.595 5.304C105.401 5.304 105.161 5.26338 104.916 5.14085C104.671 5.01832 104.495 4.85075 104.378 4.69599L107.579 2.29601C107.105 1.66439 106.384 1.304 105.595 1.304V5.304ZM104.779 5.09601C104.624 4.97994 104.456 4.80348 104.334 4.55843C104.211 4.31338 104.171 4.07344 104.171 3.88H108.171C108.171 3.09048 107.81 2.3697 107.178 1.89599L104.779 5.09601ZM104.171 3.88V24.856H108.171V3.88H104.171ZM104.171 24.856C104.171 26.3168 103.888 27.675 103.33 28.9504L106.995 30.5536C107.781 28.757 108.171 26.8512 108.171 24.856H104.171ZM103.316 28.9828C102.77 30.2948 102.027 31.4248 101.089 32.3898L103.956 35.1782C105.258 33.8392 106.275 32.2812 107.009 30.5212L103.316 28.9828ZM101.089 32.3898C100.15 33.3556 99.0282 34.1435 97.7052 34.7499L99.3718 38.3861C101.121 37.5845 102.655 36.5164 103.956 35.1782L101.089 32.3898ZM97.7226 34.742C96.4759 35.299 95.1263 35.5971 93.6535 35.6243L93.7275 39.6237C95.7107 39.5869 97.5931 39.181 99.3544 38.394L97.7226 34.742ZM93.6548 35.6243C92.131 35.6515 90.7332 35.3807 89.4383 34.8257L87.8627 38.5023C89.7038 39.2913 91.666 39.6605 93.7262 39.6237L93.6548 35.6243ZM89.4697 34.8395C88.1173 34.2323 86.9444 33.4254 85.9367 32.4178L83.1083 35.2462C84.4686 36.6066 86.0477 37.6877 87.8313 38.4885L89.4697 34.8395ZM85.9554 32.4368C84.9436 31.3976 84.1526 30.2117 83.5768 28.8682L79.9002 30.4438C80.6684 32.2363 81.7334 33.8344 83.0896 35.2272L85.9554 32.4368ZM83.5825 28.8815C83.0168 27.5348 82.7305 26.1029 82.7305 24.568H78.7305C78.7305 26.6171 79.1162 28.5772 79.8945 30.4305L83.5825 28.8815ZM82.7305 24.568V3.88H78.7305V24.568H82.7305ZM82.7305 3.88C82.7305 3.99972 82.7124 4.17099 82.6392 4.36625C82.5636 4.56766 82.444 4.7549 82.2887 4.91022L79.4603 2.08178C78.9228 2.61925 78.7305 3.29149 78.7305 3.88H82.7305ZM82.2887 4.91021C82.2046 4.99429 82.0738 5.09826 81.8908 5.17962C81.7031 5.26306 81.5019 5.304 81.3065 5.304V1.304C80.5447 1.304 79.9097 1.63241 79.4603 2.08179L82.2887 4.91021ZM110.01 36.232L111.572 37.4814L111.584 37.4658L111.596 37.4501L110.01 36.232ZM122.394 20.104L123.98 21.3221L124.916 20.104L123.98 18.8859L122.394 20.104ZM110.01 3.976L111.596 2.75795L111.517 2.65424L111.424 2.56179L110.01 3.976ZM109.962 3.544L108.247 2.51501L108.247 2.51501L109.962 3.544ZM118.026 4.072L119.611 2.8519L119.595 2.83114L119.578 2.81081L118.026 4.072ZM126.378 14.92L124.793 16.1401L126.383 18.2044L127.966 16.1357L126.378 14.92ZM134.682 4.072L133.13 2.81081L133.112 2.8333L133.094 2.85632L134.682 4.072ZM142.746 3.544L140.889 4.28679L140.949 4.43557L141.031 4.57298L142.746 3.544ZM142.698 3.976L141.284 2.5618L141.191 2.65425L141.112 2.75795L142.698 3.976ZM130.314 20.104L128.728 18.8859L127.793 20.104L128.728 21.3221L130.314 20.104ZM142.698 36.232L141.112 37.4501L141.124 37.4658L141.136 37.4814L142.698 36.232ZM142.746 36.712L141.031 35.683L140.992 35.7489L140.957 35.8176L142.746 36.712ZM134.682 36.136L133.094 37.3517L133.112 37.3747L133.13 37.3972L134.682 36.136ZM126.378 25.288L127.966 24.0723L126.383 22.0036L124.793 24.0679L126.378 25.288ZM118.026 36.136L119.578 37.3972L119.595 37.3769L119.611 37.3561L118.026 36.136ZM109.962 36.712L108.247 37.741L108.3 37.8295L108.362 37.912L109.962 36.712ZM111.596 37.4501L123.98 21.3221L120.808 18.8859L108.424 35.0139L111.596 37.4501ZM123.98 18.8859L111.596 2.75795L108.424 5.19405L120.808 21.3221L123.98 18.8859ZM111.424 2.56179C111.6 2.73695 111.836 3.06867 111.89 3.55114C111.943 4.02561 111.789 4.38631 111.677 4.57299L108.247 2.51501C108.039 2.86169 107.846 3.37439 107.914 3.99286C107.984 4.61933 108.293 5.08704 108.596 5.39021L111.424 2.56179ZM111.677 4.57299C111.6 4.70112 111.45 4.89759 111.19 5.06C110.917 5.23076 110.617 5.304 110.346 5.304V1.304C109.356 1.304 108.634 1.871 108.247 2.51501L111.677 4.57299ZM110.346 5.304H116.442V1.304H110.346V5.304ZM116.442 5.304C116.468 5.304 116.477 5.30653 116.473 5.30562C116.468 5.30458 116.458 5.30155 116.446 5.29563C116.434 5.28977 116.428 5.28532 116.431 5.28742C116.434 5.28997 116.449 5.30278 116.474 5.33318L119.578 2.81081C118.796 1.84805 117.706 1.304 116.442 1.304V5.304ZM116.441 5.2921L124.793 16.1401L127.963 13.6999L119.611 2.8519L116.441 5.2921ZM127.966 16.1357L136.27 5.28768L133.094 2.85632L124.79 13.7043L127.966 16.1357ZM136.234 5.33318C136.259 5.30278 136.274 5.28997 136.277 5.28742C136.28 5.28532 136.275 5.28977 136.263 5.29563C136.25 5.30155 136.24 5.30459 136.235 5.30562C136.231 5.30653 136.24 5.304 136.266 5.304V1.304C135.003 1.304 133.912 1.84805 133.13 2.81081L136.234 5.33318ZM136.266 5.304H142.362V1.304H136.266V5.304ZM142.362 5.304C142.184 5.304 141.872 5.26609 141.542 5.06C141.196 4.84386 140.992 4.54293 140.889 4.28679L144.603 2.80121C144.437 2.38507 144.136 1.96414 143.662 1.668C143.204 1.3819 142.732 1.304 142.362 1.304V5.304ZM141.031 4.57298C140.919 4.3863 140.766 4.0256 140.818 3.55114C140.872 3.06868 141.109 2.73697 141.284 2.5618L144.112 5.3902C144.416 5.08703 144.724 4.61932 144.794 3.99286C144.863 3.37439 144.669 2.8617 144.461 2.51502L141.031 4.57298ZM141.112 2.75795L128.728 18.8859L131.9 21.3221L144.284 5.19405L141.112 2.75795ZM128.728 21.3221L141.112 37.4501L144.284 35.0139L131.9 18.8859L128.728 21.3221ZM141.136 37.4814C141.025 37.342 140.856 37.0678 140.816 36.671C140.775 36.2565 140.895 35.9106 141.031 35.683L144.461 37.741C144.694 37.3534 144.854 36.8475 144.796 36.273C144.741 35.7162 144.499 35.282 144.26 34.9826L141.136 37.4814ZM140.957 35.8176C141.119 35.4945 141.385 35.2287 141.708 35.0671C142 34.9212 142.249 34.904 142.362 34.904V38.904C143.01 38.904 144.015 38.6455 144.535 37.6064L140.957 35.8176ZM142.362 34.904H136.266V38.904H142.362V34.904ZM136.266 34.904C136.24 34.904 136.231 34.9015 136.235 34.9024C136.24 34.9034 136.25 34.9065 136.263 34.9124C136.275 34.9182 136.28 34.9227 136.277 34.9206C136.274 34.918 136.259 34.9052 136.234 34.8748L133.13 37.3972C133.912 38.3599 135.003 38.904 136.266 38.904V34.904ZM136.27 34.9203L127.966 24.0723L124.79 26.5037L133.094 37.3517L136.27 34.9203ZM124.793 24.0679L116.441 34.9159L119.611 37.3561L127.963 26.5081L124.793 24.0679ZM116.474 34.8748C116.449 34.9052 116.434 34.918 116.431 34.9206C116.428 34.9227 116.434 34.9182 116.446 34.9124C116.458 34.9065 116.468 34.9034 116.473 34.9024C116.477 34.9015 116.468 34.904 116.442 34.904V38.904C117.706 38.904 118.796 38.3599 119.578 37.3972L116.474 34.8748ZM116.442 34.904H110.346V38.904H116.442V34.904ZM110.346 34.904C110.54 34.904 110.78 34.9446 111.025 35.0671C111.27 35.1897 111.446 35.3572 111.562 35.512L108.362 37.912C108.836 38.5436 109.557 38.904 110.346 38.904V34.904ZM111.677 35.683C111.814 35.9106 111.934 36.2565 111.892 36.671C111.853 37.0678 111.683 37.342 111.572 37.4814L108.448 34.9826C108.209 35.282 107.968 35.7162 107.912 36.273C107.855 36.8475 108.015 37.3534 108.247 37.741L111.677 35.683ZM160.148 3.592L158.734 2.17779L158.734 2.17779L160.148 3.592ZM177.764 4.696L176.976 6.53429L176.976 6.53429L177.764 4.696ZM183.044 8.248L181.63 9.66221L181.637 9.66981L181.645 9.67734L183.044 8.248ZM186.644 13.48L184.816 14.2923L184.824 14.3099L184.832 14.3274L186.644 13.48ZM188.084 19.864L186.084 19.8922L186.084 19.9051L186.085 19.918L188.084 19.864ZM186.788 26.536L184.962 25.7211L184.956 25.7329L184.951 25.7448L186.788 26.536ZM183.092 32.008L184.492 33.4367L184.499 33.4295L184.506 33.4222L183.092 32.008ZM177.572 35.656L176.791 33.8148L176.781 33.8192L177.572 35.656ZM160.148 36.856L158.548 38.056L158.719 38.2846L158.948 38.456L160.148 36.856ZM166.148 30.904H164.148V32.904H166.148V30.904ZM175.412 30.088L176.194 31.9287L176.205 31.924L176.216 31.9193L175.412 30.088ZM178.82 27.784L180.234 29.1982L180.234 29.1982L178.82 27.784ZM181.124 24.376L179.293 23.572L179.288 23.5828L179.283 23.5937L181.124 24.376ZM181.124 16.072L179.277 16.838L179.288 16.8656L179.3 16.8927L181.124 16.072ZM178.82 12.664L177.383 14.0548L177.406 14.0784L177.429 14.1012L178.82 12.664ZM175.412 10.36L174.591 12.1838L174.618 12.1961L174.646 12.2075L175.412 10.36ZM166.148 9.496V7.496H164.148V9.496H166.148ZM162.004 3.976C162.004 4.09573 161.986 4.26698 161.913 4.46224C161.837 4.66365 161.718 4.85089 161.562 5.00621L158.734 2.17779C158.196 2.71526 158.004 3.38749 158.004 3.976H162.004ZM161.562 5.00621C161.478 5.09029 161.347 5.19426 161.164 5.27562C160.977 5.35906 160.775 5.4 160.58 5.4V1.4C159.818 1.4 159.183 1.72841 158.734 2.17779L161.562 5.00621ZM160.58 5.4H171.284V1.4H160.58V5.4ZM171.284 5.4C173.331 5.4 175.222 5.78233 176.976 6.53429L178.552 2.85771C176.274 1.88166 173.845 1.4 171.284 1.4V5.4ZM176.976 6.53429C178.766 7.30125 180.311 8.34376 181.63 9.66221L184.458 6.83378C182.769 5.14423 180.794 3.81875 178.552 2.85771L176.976 6.53429ZM181.645 9.67734C182.96 10.9641 184.018 12.4959 184.816 14.2923L188.472 12.6677C187.478 10.4321 186.136 8.47588 184.443 6.81866L181.645 9.67734ZM184.832 14.3274C185.636 16.0451 186.056 17.8926 186.084 19.8922L190.084 19.8358C190.048 17.2914 189.508 14.8829 188.456 12.6326L184.832 14.3274ZM186.085 19.918C186.141 21.9994 185.763 23.9252 184.962 25.7211L188.614 27.3509C189.669 24.9868 190.155 22.4646 190.083 19.81L186.085 19.918ZM184.951 25.7448C184.153 27.5973 183.063 29.2087 181.678 30.5938L184.506 33.4222C186.257 31.6713 187.631 29.6347 188.625 27.3272L184.951 25.7448ZM181.692 30.5793C180.311 31.9325 178.683 33.012 176.791 33.8148L178.353 37.4972C180.685 36.508 182.737 35.1555 184.492 33.4367L181.692 30.5793ZM176.781 33.8192C174.962 34.6026 173.009 35 170.9 35V39C173.527 39 176.022 38.5014 178.363 37.4928L176.781 33.8192ZM170.9 35H160.58V39H170.9V35ZM160.58 35C160.703 35 160.842 35.0191 160.984 35.0666C161.127 35.1142 161.249 35.182 161.348 35.256L158.948 38.456C159.422 38.8116 159.987 39 160.58 39V35ZM161.748 35.656C161.822 35.7546 161.89 35.8768 161.937 36.0195C161.985 36.1623 162.004 36.3007 162.004 36.424H158.004C158.004 37.0167 158.192 37.5818 158.548 38.056L161.748 35.656ZM162.004 36.424V3.976H158.004V36.424H162.004ZM166.148 32.904H171.284V28.904H166.148V32.904ZM171.284 32.904C173.009 32.904 174.653 32.5839 176.194 31.9287L174.63 28.2473C173.611 28.6801 172.503 28.904 171.284 28.904V32.904ZM176.216 31.9193C177.743 31.249 179.089 30.3435 180.234 29.1982L177.406 26.3698C176.631 27.1445 175.705 27.775 174.608 28.2567L176.216 31.9193ZM180.234 29.1982C181.406 28.0265 182.319 26.6764 182.965 25.1583L179.283 23.5937C178.841 24.6356 178.218 25.5575 177.406 26.3698L180.234 29.1982ZM182.955 25.18C183.646 23.6075 183.988 21.941 183.988 20.2H179.988C179.988 21.403 179.754 22.5205 179.293 23.572L182.955 25.18ZM183.988 20.2C183.988 18.4591 183.646 16.8018 182.948 15.2513L179.3 16.8927C179.754 17.9022 179.988 18.9969 179.988 20.2H183.988ZM182.971 15.306C182.326 13.7489 181.405 12.3825 180.211 11.2268L177.429 14.1012C178.219 14.8655 178.834 15.7711 179.277 16.838L182.971 15.306ZM180.257 11.2732C179.102 10.0789 177.735 9.15815 176.178 8.51251L174.646 12.2075C175.713 12.6498 176.618 13.2651 177.383 14.0548L180.257 11.2732ZM176.233 8.53616C174.682 7.8384 173.025 7.496 171.284 7.496V11.496C172.487 11.496 173.582 11.7296 174.591 12.1838L176.233 8.53616ZM171.284 7.496H166.148V11.496H171.284V7.496ZM164.148 9.496V30.904H168.148V9.496H164.148ZM193.804 3.592L192.39 2.17779L192.39 2.17779L193.804 3.592ZM199.804 9.496V7.496H197.804V9.496H199.804ZM199.804 17.176H197.804V19.176H199.804V17.176ZM199.804 23.272V21.272H197.804V23.272H199.804ZM199.804 30.904H197.804V32.904H199.804V30.904ZM216.844 31.144L214.987 31.8868L215.047 32.0356L215.129 32.173L216.844 31.144ZM216.796 31.576L215.382 30.1618L215.287 30.2565L215.206 30.3629L216.796 31.576ZM213.244 36.232L214.796 37.4932L214.816 37.4694L214.834 37.4451L213.244 36.232ZM193.804 36.856L192.204 38.056L192.376 38.2846L192.604 38.456L193.804 36.856ZM195.66 3.976C195.66 4.09573 195.642 4.26698 195.569 4.46224C195.493 4.66365 195.374 4.85089 195.218 5.00621L192.39 2.17779C191.853 2.71526 191.66 3.38749 191.66 3.976H195.66ZM195.218 5.00621C195.134 5.09029 195.004 5.19426 194.821 5.27562C194.633 5.35906 194.432 5.4 194.236 5.4V1.4C193.474 1.4 192.839 1.72841 192.39 2.17779L195.218 5.00621ZM194.236 5.4H214.972V1.4H194.236V5.4ZM214.972 5.4C214.856 5.4 214.401 5.36957 213.99 4.95821C213.579 4.54685 213.548 4.09229 213.548 3.976H217.548C217.548 3.47571 217.422 2.73314 216.818 2.12978C216.215 1.52642 215.473 1.4 214.972 1.4V5.4ZM213.548 3.976V8.92H217.548V3.976H213.548ZM213.548 8.92C213.548 8.80371 213.579 8.34914 213.99 7.93779C214.401 7.52643 214.856 7.496 214.972 7.496V11.496C215.473 11.496 216.215 11.3696 216.818 10.7662C217.422 10.1629 217.548 9.42029 217.548 8.92H213.548ZM214.972 7.496H199.804V11.496H214.972V7.496ZM197.804 9.496V17.176H201.804V9.496H197.804ZM199.804 19.176H211.804V15.176H199.804V19.176ZM211.804 19.176C211.688 19.176 211.233 19.1456 210.822 18.7342C210.411 18.3229 210.38 17.8683 210.38 17.752H214.38C214.38 17.2517 214.254 16.5091 213.65 15.9058C213.047 15.3024 212.305 15.176 211.804 15.176V19.176ZM210.38 17.752V22.648H214.38V17.752H210.38ZM210.38 22.648C210.38 22.5857 210.391 22.1661 210.767 21.7594C211.17 21.3226 211.645 21.272 211.804 21.272V25.272C212.347 25.272 213.111 25.1174 213.706 24.4726C214.273 23.8579 214.38 23.1263 214.38 22.648H210.38ZM211.804 21.272H199.804V25.272H211.804V21.272ZM197.804 23.272V30.904H201.804V23.272H197.804ZM199.804 32.904H216.46V28.904H199.804V32.904ZM216.46 32.904C216.282 32.904 215.97 32.8661 215.64 32.66C215.294 32.4439 215.09 32.1429 214.987 31.8868L218.701 30.4012C218.535 29.9851 218.234 29.5641 217.76 29.268C217.302 28.9819 216.83 28.904 216.46 28.904V32.904ZM215.129 32.173C215.017 31.9863 214.864 31.6256 214.916 31.1511C214.97 30.6687 215.207 30.337 215.382 30.1618L218.21 32.9902C218.514 32.687 218.822 32.2193 218.892 31.5929C218.961 30.9744 218.767 30.4617 218.559 30.115L215.129 32.173ZM215.206 30.3629L211.654 35.0189L214.834 37.4451L218.386 32.7891L215.206 30.3629ZM211.692 34.9708C211.667 35.0012 211.652 35.014 211.649 35.0166C211.646 35.0187 211.652 35.0142 211.664 35.0084C211.676 35.0025 211.686 34.9994 211.691 34.9984C211.695 34.9975 211.686 35 211.66 35V39C212.924 39 214.014 38.4559 214.796 37.4932L211.692 34.9708ZM211.66 35H194.236V39H211.66V35ZM194.236 35C194.36 35 194.498 35.0191 194.641 35.0666C194.783 35.1142 194.906 35.182 195.004 35.256L192.604 38.456C193.078 38.8116 193.644 39 194.236 39V35ZM195.404 35.656C195.478 35.7546 195.546 35.8768 195.594 36.0195C195.641 36.1623 195.66 36.3007 195.66 36.424H191.66C191.66 37.0167 191.849 37.5818 192.204 38.056L195.404 35.656ZM195.66 36.424V3.976H191.66V36.424H195.66ZM221.457 9.064L219.668 8.16957L219.659 8.18764L219.651 8.20588L221.457 9.064ZM224.001 5.752L222.703 4.23033L222.692 4.23992L222.681 4.24967L224.001 5.752ZM227.745 3.544L227.038 1.67305L227.031 1.6757L227.024 1.6784L227.745 3.544ZM238.785 4.072L237.903 5.86711L237.922 5.87633L237.941 5.88516L238.785 4.072ZM242.961 7.096L244.54 5.86812L244.529 5.85464L244.519 5.84134L242.961 7.096ZM242.913 7.864L241.596 6.35884L241.53 6.41673L241.469 6.48019L242.913 7.864ZM239.601 11.32L241.015 12.7342L241.03 12.7192L241.045 12.7038L239.601 11.32ZM238.689 11.272L240.251 10.0226L240.215 9.97725L240.176 9.93407L238.689 11.272ZM237.585 10.312L236.366 11.8972L236.394 11.9189L236.423 11.9395L237.585 10.312ZM236.097 9.448L235.161 11.2156L235.222 11.2477L235.285 11.2756L236.097 9.448ZM234.321 8.776L233.836 10.7163L233.836 10.7163L234.321 8.776ZM230.145 8.92L230.806 10.8077L230.832 10.7987L230.857 10.789L230.145 8.92ZM228.513 9.832L227.212 8.31348L227.212 8.31349L228.513 9.832ZM227.457 11.176L225.668 10.2816L225.668 10.2816L227.457 11.176ZM227.985 15.208L226.502 16.5498L226.502 16.5498L227.985 15.208ZM230.721 16.6L230.309 18.5571L230.325 18.5604L230.34 18.5634L230.721 16.6ZM235.425 17.512L235.044 19.4755L235.057 19.4777L235.425 17.512ZM239.457 18.904L238.486 20.6523L238.514 20.6682L238.544 20.6831L239.457 18.904ZM242.385 21.112L240.89 22.4407L240.904 22.4559L240.918 22.4708L242.385 21.112ZM244.209 24.04L242.341 24.7543L242.345 24.7637L242.348 24.773L244.209 24.04ZM244.017 31.192L242.184 30.3928L242.175 30.4128L242.167 30.4329L244.017 31.192ZM241.665 34.552L240.296 33.0943L240.285 33.1048L240.274 33.1155L241.665 34.552ZM237.873 36.952L238.588 38.8197L238.606 38.8131L238.623 38.8062L237.873 36.952ZM228.801 37.384L228.328 39.3274L228.34 39.3302L228.801 37.384ZM225.537 36.28L224.643 38.0689L224.678 38.0865L224.714 38.1027L225.537 36.28ZM222.993 34.744L221.761 36.319L221.782 36.336L221.804 36.3524L222.993 34.744ZM221.169 33.064L222.669 31.7408L222.627 31.6939L222.583 31.6498L221.169 33.064ZM221.169 32.296L219.59 31.0681L219.59 31.0681L221.169 32.296ZM224.193 28.408L225.772 29.6359L225.846 29.5405L225.908 29.437L224.193 28.408ZM224.577 28.168V30.168H224.743L224.906 30.1408L224.577 28.168ZM225.057 28.312L223.643 29.7262L223.669 29.7524L223.696 29.7776L225.057 28.312ZM226.545 29.608L225.274 31.1519L225.302 31.1748L225.33 31.1967L226.545 29.608ZM228.321 30.76L229.285 29.0076L229.285 29.0076L228.321 30.76ZM230.385 31.624L229.803 33.5373L229.803 33.5373L230.385 31.624ZM237.105 25.336L235.628 26.6845L235.659 26.7181L235.691 26.7502L237.105 25.336ZM234.081 23.848L233.681 25.8076L233.694 25.8102L233.707 25.8127L234.081 23.848ZM229.377 22.888L229.777 20.9284L229.774 20.9277L229.377 22.888ZM222.945 19.576L221.503 20.9622L221.503 20.9622L222.945 19.576ZM222.545 13.24C222.545 12.0142 222.791 10.9177 223.264 9.92211L219.651 8.20588C218.907 9.77034 218.545 11.4578 218.545 13.24H222.545ZM223.246 9.95843C223.773 8.90516 224.463 8.00874 225.321 7.25433L222.681 4.24967C221.427 5.35126 220.422 6.66283 219.668 8.16957L223.246 9.95843ZM225.299 7.27367C226.206 6.5 227.257 5.87686 228.466 5.40959L227.024 1.6784C225.418 2.29914 223.972 3.148 222.703 4.23033L225.299 7.27367ZM228.452 5.41494C229.657 4.95962 230.937 4.728 232.305 4.728V0.727998C230.473 0.727998 228.713 1.04037 227.038 1.67305L228.452 5.41494ZM232.305 4.728C234.564 4.728 236.409 5.13315 237.903 5.86711L239.667 2.27689C237.513 1.21884 235.038 0.727998 232.305 0.727998V4.728ZM237.941 5.88516C239.62 6.66675 240.727 7.51033 241.404 8.35066L244.519 5.84134C243.34 4.37767 241.662 3.20525 239.629 2.25883L237.941 5.88516ZM241.382 8.32388C241.32 8.24405 241.088 7.90897 241.121 7.37924C241.156 6.81859 241.458 6.47931 241.596 6.35884L244.23 9.36915C244.624 9.02468 245.062 8.4454 245.113 7.62875C245.162 6.84303 244.826 6.23595 244.54 5.86812L241.382 8.32388ZM241.469 6.48019L238.157 9.93619L241.045 12.7038L244.357 9.24781L241.469 6.48019ZM238.187 9.90579C238.305 9.7881 238.458 9.68068 238.642 9.60705C238.824 9.53434 238.992 9.512 239.121 9.512V13.512C239.808 13.512 240.488 13.2618 241.015 12.7342L238.187 9.90579ZM239.121 9.512C239.391 9.512 239.648 9.58371 239.864 9.70368C240.068 9.81672 240.191 9.94737 240.251 10.0226L237.127 12.5214C237.519 13.011 238.19 13.512 239.121 13.512V9.512ZM240.176 9.93407C239.768 9.48104 239.283 9.06686 238.748 8.68453L236.423 11.9395C236.783 12.1971 237.034 12.423 237.203 12.6099L240.176 9.93407ZM238.805 8.72675C238.241 8.29309 237.602 7.92832 236.909 7.62038L235.285 11.2756C235.744 11.4797 236.097 11.6909 236.366 11.8972L238.805 8.72675ZM237.033 7.68042C236.336 7.31167 235.592 7.03209 234.806 6.83571L233.836 10.7163C234.331 10.8399 234.77 11.0083 235.161 11.2156L237.033 7.68042ZM234.806 6.83572C234.005 6.63532 233.186 6.536 232.353 6.536V10.536C232.865 10.536 233.358 10.5967 233.836 10.7163L234.806 6.83572ZM232.353 6.536C231.337 6.536 230.357 6.69919 229.433 7.05102L230.857 10.789C231.278 10.6288 231.769 10.536 232.353 10.536V6.536ZM229.484 7.03228C228.644 7.32632 227.874 7.74538 227.212 8.31348L229.815 11.3505C230.048 11.1506 230.366 10.9617 230.806 10.8077L229.484 7.03228ZM227.212 8.31349C226.568 8.8655 226.047 9.52376 225.668 10.2816L229.246 12.0704C229.379 11.8042 229.563 11.5665 229.815 11.3505L227.212 8.31349ZM225.668 10.2816C225.273 11.0731 225.073 11.9235 225.073 12.808H229.073C229.073 12.5405 229.13 12.3029 229.246 12.0704L225.668 10.2816ZM225.073 12.808C225.073 14.2187 225.553 15.5005 226.502 16.5498L229.468 13.8662C229.202 13.5715 229.073 13.2533 229.073 12.808H225.073ZM226.502 16.5498C227.481 17.6321 228.83 18.2458 230.309 18.5571L231.133 14.6429C230.18 14.4422 229.705 14.1279 229.468 13.8662L226.502 16.5498ZM230.34 18.5634L235.044 19.4754L235.806 15.5486L231.102 14.6366L230.34 18.5634ZM235.057 19.4777C236.419 19.7333 237.553 20.134 238.486 20.6523L240.428 17.1557C239.057 16.394 237.503 15.8667 235.794 15.5463L235.057 19.4777ZM238.544 20.6831C239.54 21.1951 240.309 21.7872 240.89 22.4407L243.88 19.7833C242.925 18.7088 241.742 17.8289 240.371 17.1249L238.544 20.6831ZM240.918 22.4708C241.546 23.1496 242.017 23.9074 242.341 24.7543L246.077 23.3257C245.569 21.9966 244.824 20.8024 243.853 19.7532L240.918 22.4708ZM242.348 24.773C242.668 25.5856 242.833 26.4559 242.833 27.4H246.833C246.833 25.9761 246.582 24.6064 246.07 23.307L242.348 24.773ZM242.833 27.4C242.833 28.3878 242.625 29.3806 242.184 30.3928L245.851 31.9912C246.497 30.5074 246.833 28.9722 246.833 27.4H242.833ZM242.167 30.4329C241.771 31.3971 241.159 32.2834 240.296 33.0943L243.034 36.0097C244.283 34.8366 245.239 33.4829 245.867 31.9511L242.167 30.4329ZM240.274 33.1155C239.458 33.9052 238.421 34.5731 237.124 35.0978L238.623 38.8062C240.333 38.1149 241.824 37.1828 243.057 35.9885L240.274 33.1155ZM237.158 35.0843C235.925 35.5565 234.447 35.816 232.689 35.816V39.816C234.835 39.816 236.813 39.4995 238.588 38.8197L237.158 35.0843ZM232.689 35.816C231.453 35.816 230.313 35.6867 229.262 35.4378L228.34 39.3302C229.722 39.6573 231.173 39.816 232.689 39.816V35.816ZM229.274 35.4407C228.196 35.1785 227.227 34.8487 226.36 34.4573L224.714 38.1027C225.831 38.6073 227.038 39.0135 228.328 39.3273L229.274 35.4407ZM226.432 34.4911C225.558 34.0541 224.811 33.6006 224.182 33.1356L221.804 36.3524C222.647 36.9754 223.597 37.5459 224.643 38.0689L226.432 34.4911ZM224.226 33.169C223.56 32.6482 223.048 32.171 222.669 31.7408L219.669 34.3872C220.25 35.045 220.954 35.6878 221.761 36.319L224.226 33.169ZM222.583 31.6498C222.752 31.8185 223.001 32.1815 223.001 32.704C223.001 33.1752 222.796 33.4622 222.748 33.5239L219.59 31.0681C219.318 31.4178 219.001 31.9768 219.001 32.704C219.001 33.4825 219.362 34.0855 219.755 34.4782L222.583 31.6498ZM222.748 33.5239L225.772 29.6359L222.614 27.1801L219.59 31.0681L222.748 33.5239ZM225.908 29.437C225.831 29.5651 225.681 29.7616 225.421 29.924C225.148 30.0948 224.848 30.168 224.577 30.168V26.168C223.587 26.168 222.865 26.735 222.478 27.379L225.908 29.437ZM224.906 30.1408C224.75 30.1668 224.524 30.1729 224.266 30.0957C224.003 30.0167 223.793 29.8762 223.643 29.7262L226.471 26.8978C225.848 26.2742 225.021 26.0664 224.248 26.1952L224.906 30.1408ZM223.696 29.7776C224.177 30.2243 224.704 30.6824 225.274 31.1519L227.817 28.0641C227.299 27.6376 226.833 27.2317 226.418 26.8464L223.696 29.7776ZM225.33 31.1967C225.959 31.6774 226.635 32.1154 227.357 32.5124L229.285 29.0076C228.727 28.7006 228.219 28.3706 227.76 28.0193L225.33 31.1967ZM227.357 32.5124C228.125 32.9346 228.941 33.2752 229.803 33.5373L230.967 29.7107C230.357 29.5248 229.797 29.2894 229.285 29.0076L227.357 32.5124ZM229.803 33.5373C230.742 33.8233 231.724 33.96 232.737 33.96V29.96C232.086 29.96 231.5 29.8727 230.967 29.7107L229.803 33.5373ZM232.737 33.96C234.754 33.96 236.624 33.5239 238.044 32.3488L235.494 29.2672C235.058 29.6281 234.24 29.96 232.737 29.96V33.96ZM238.044 32.3488C239.436 31.1967 240.161 29.6374 240.161 27.832H236.161C236.161 28.4586 235.958 28.8833 235.494 29.2672L238.044 32.3488ZM240.161 27.832C240.161 26.32 239.583 24.9853 238.519 23.9218L235.691 26.7502C236.035 27.0947 236.161 27.424 236.161 27.832H240.161ZM238.582 23.9875C237.528 22.8325 236.068 22.1906 234.455 21.8833L233.707 25.8127C234.782 26.0174 235.339 26.3675 235.628 26.6845L238.582 23.9875ZM234.481 21.8884L229.777 20.9284L228.977 24.8476L233.681 25.8076L234.481 21.8884ZM229.774 20.9277C227.408 20.4489 225.655 19.509 224.387 18.1898L221.503 20.9622C223.435 22.971 225.97 24.2391 228.98 24.8483L229.774 20.9277ZM224.387 18.1898C223.185 16.9404 222.545 15.3445 222.545 13.24H218.545C218.545 16.2555 219.505 18.8836 221.503 20.9622L224.387 18.1898ZM249.867 36.856L248.267 38.056L248.438 38.2846L248.667 38.456L249.867 36.856ZM249.867 3.592L248.453 2.17779L248.453 2.17779L249.867 3.592ZM250.299 5.4H255.243V1.4H250.299V5.4ZM255.243 5.4C255.18 5.4 254.761 5.38895 254.354 5.0136C253.917 4.61034 253.867 4.13523 253.867 3.976H257.867C257.867 3.43277 257.712 2.66966 257.067 2.07439C256.453 1.50705 255.721 1.4 255.243 1.4V5.4ZM253.867 3.976V36.424H257.867V3.976H253.867ZM253.867 36.424C253.867 36.2648 253.917 35.7897 254.354 35.3864C254.761 35.011 255.18 35 255.243 35V39C255.721 39 256.453 38.893 257.067 38.3256C257.712 37.7303 257.867 36.9672 257.867 36.424H253.867ZM255.243 35H250.299V39H255.243V35ZM250.299 35C250.422 35 250.56 35.0191 250.703 35.0666C250.846 35.1142 250.968 35.182 251.067 35.256L248.667 38.456C249.141 38.8116 249.706 39 250.299 39V35ZM251.467 35.656C251.541 35.7546 251.609 35.8768 251.656 36.0195C251.704 36.1623 251.723 36.3007 251.723 36.424H247.723C247.723 37.0167 247.911 37.5818 248.267 38.056L251.467 35.656ZM251.723 36.424V3.976H247.723V36.424H251.723ZM251.723 3.976C251.723 4.09573 251.705 4.26698 251.631 4.46224C251.556 4.66365 251.436 4.85089 251.281 5.00621L248.453 2.17779C247.915 2.71526 247.723 3.38749 247.723 3.976H251.723ZM251.281 5.00621C251.197 5.09029 251.066 5.19426 250.883 5.27562C250.695 5.35906 250.494 5.4 250.299 5.4V1.4C249.537 1.4 248.902 1.72841 248.453 2.17779L251.281 5.00621ZM262.801 13.192L260.965 12.3976L260.963 12.4042L260.96 12.4109L262.801 13.192ZM266.497 7.672L267.911 9.08621L267.911 9.08621L266.497 7.672ZM272.017 4.024L272.774 5.87509L272.786 5.8702L272.798 5.86516L272.017 4.024ZM278.833 2.728L278.86 0.728185L278.859 0.728171L278.833 2.728ZM285.409 4.072L284.631 5.91473L284.644 5.91991L284.656 5.92493L285.409 4.072ZM290.785 7.576L292.199 6.16178L292.192 6.15434L292.184 6.14698L290.785 7.576ZM290.833 8.344L289.328 7.02699L289.287 7.07364L289.249 7.12274L290.833 8.344ZM287.761 12.328L286.177 11.1067L286.106 11.199L286.046 11.299L287.761 12.328ZM287.329 12.616V14.616H287.494L287.658 14.5888L287.329 12.616ZM286.897 12.376L288.459 11.1266L288.435 11.0967L288.41 11.0677L286.897 12.376ZM278.593 8.536V10.536H278.612L278.632 10.5356L278.593 8.536ZM274.321 9.496L275.181 11.3017L275.181 11.3017L274.321 9.496ZM270.817 12.04L269.359 10.6706L269.359 10.6706L270.817 12.04ZM268.465 15.784L270.316 16.5413L270.319 16.534L270.322 16.5268L268.465 15.784ZM268.513 24.76L266.677 25.5529L266.677 25.5529L268.513 24.76ZM270.961 28.456L272.397 27.0637L270.961 28.456ZM274.513 30.952L273.689 32.7742L273.689 32.7742L274.513 30.952ZM278.833 31.864V33.864H278.859L278.884 33.8633L278.833 31.864ZM282.385 31.144L281.66 29.28L281.651 29.2835L281.642 29.287L282.385 31.144ZM285.505 29.32L284.255 27.7583L284.243 27.7686L284.23 27.7792L285.505 29.32ZM287.953 26.632L289.625 27.7293L289.633 27.7176L289.64 27.7058L287.953 26.632ZM289.441 23.224L291.375 23.733L292.035 21.224H289.441V23.224ZM279.697 23.032L277.84 23.7748L277.938 24.0204L278.097 24.232L279.697 23.032ZM279.745 22.552L278.092 21.4264L278.059 21.4738L278.03 21.523L279.745 22.552ZM282.817 18.04L281.196 16.869L281.179 16.8915L281.164 16.9144L282.817 18.04ZM295.825 17.176L297.794 16.8284L297.503 15.176H295.825V17.176ZM296.017 18.76L294.021 18.8848L294.025 18.9466L294.032 19.0081L296.017 18.76ZM296.065 20.344L294.068 20.2266L294.066 20.2721L294.065 20.3177L296.065 20.344ZM294.625 27.16L292.794 26.3555L292.789 26.3671L292.784 26.3789L294.625 27.16ZM290.881 32.68L289.481 31.2516L289.474 31.2586L289.467 31.2658L290.881 32.68ZM285.361 36.376L286.118 38.2271L286.13 38.2222L286.142 38.2172L285.361 36.376ZM271.777 36.328L270.962 38.1545L270.979 38.162L270.996 38.1692L271.777 36.328ZM266.353 32.584L264.91 33.9691L264.917 33.9763L264.924 33.9836L266.353 32.584ZM262.753 26.968L260.898 27.7156L260.898 27.7156L262.753 26.968ZM263.457 20.056C263.457 17.8403 263.858 15.8202 264.642 13.9731L260.96 12.4109C259.951 14.7878 259.457 17.3437 259.457 20.056H263.457ZM264.636 13.9864C265.472 12.0561 266.566 10.4309 267.911 9.08621L265.083 6.25779C263.355 7.98506 261.986 10.0399 260.965 12.3976L264.636 13.9864ZM267.911 9.08621C269.286 7.71151 270.901 6.64152 272.774 5.87509L271.26 2.1729C268.909 3.13448 266.844 4.49648 265.083 6.25779L267.911 9.08621ZM272.798 5.86516C274.64 5.08388 276.635 4.69925 278.807 4.72782L278.859 0.728171C276.167 0.692747 273.618 1.17212 271.236 2.18283L272.798 5.86516ZM278.805 4.72781C280.897 4.75646 282.833 5.156 284.631 5.91473L286.186 2.22927C283.889 1.25999 281.441 0.763533 278.86 0.728185L278.805 4.72781ZM284.656 5.92493C286.47 6.66185 288.041 7.68821 289.386 9.00502L292.184 6.14698C290.457 4.45578 288.444 3.14615 286.162 2.21906L284.656 5.92493ZM289.371 8.99021C289.295 8.91448 289.026 8.61069 288.993 8.08475C288.958 7.53193 289.209 7.16214 289.328 7.02699L292.338 9.66101C292.68 9.26986 293.036 8.64407 292.985 7.83524C292.936 7.05331 292.531 6.49351 292.199 6.16178L289.371 8.99021ZM289.249 7.12274L286.177 11.1067L289.345 13.5493L292.417 9.56526L289.249 7.12274ZM286.046 11.299C286.138 11.1453 286.278 10.9847 286.471 10.8559C286.663 10.7284 286.852 10.6679 287 10.6432L287.658 14.5888C288.399 14.4652 289.064 14.0438 289.476 13.357L286.046 11.299ZM287.329 10.616C287.599 10.616 287.856 10.6877 288.072 10.8077C288.276 10.9207 288.398 11.0514 288.459 11.1266L285.335 13.6254C285.727 14.115 286.397 14.616 287.329 14.616V10.616ZM288.41 11.0677C287.205 9.67484 285.756 8.56673 284.079 7.74723L282.322 11.3408C283.526 11.9293 284.541 12.7092 285.384 13.6843L288.41 11.0677ZM284.079 7.74723C282.348 6.90105 280.497 6.49827 278.554 6.53638L278.632 10.5356C279.952 10.5097 281.173 10.7789 282.322 11.3408L284.079 7.74723ZM278.593 6.536C276.795 6.536 275.076 6.92101 273.461 7.69028L275.181 11.3017C276.253 10.791 277.383 10.536 278.593 10.536V6.536ZM273.461 7.69028C271.899 8.43428 270.526 9.42826 269.359 10.6706L272.275 13.4093C273.091 12.5397 274.055 11.8377 275.181 11.3017L273.461 7.69028ZM269.359 10.6706C268.184 11.9212 267.27 13.3857 266.608 15.0412L270.322 16.5268C270.812 15.3023 271.465 14.2708 272.275 13.4093L269.359 10.6706ZM266.614 15.0267C265.934 16.6874 265.601 18.45 265.601 20.296H269.601C269.601 18.942 269.843 17.6966 270.316 16.5413L266.614 15.0267ZM265.601 20.296C265.601 22.1304 265.958 23.8888 266.677 25.5529L270.349 23.9671C269.852 22.8152 269.601 21.5976 269.601 20.296H265.601ZM266.677 25.5529C267.377 27.1737 268.325 28.611 269.525 29.8483L272.397 27.0637C271.548 26.189 270.865 25.1623 270.349 23.9671L266.677 25.5529ZM269.525 29.8483C270.725 31.0853 272.116 32.0629 273.689 32.7742L275.337 29.1298C274.222 28.6251 273.245 27.9387 272.397 27.0637L269.525 29.8483ZM273.689 32.7742C275.302 33.5042 277.025 33.864 278.833 33.864V29.864C277.569 29.864 276.411 29.6158 275.337 29.1298L273.689 32.7742ZM278.884 33.8633C280.361 33.8255 281.78 33.5401 283.128 33.001L281.642 29.287C280.75 29.6439 279.801 29.8385 278.782 29.8647L278.884 33.8633ZM283.11 33.008C284.456 32.4845 285.683 31.7688 286.78 30.8608L284.23 27.7792C283.471 28.4071 282.618 28.9075 281.66 29.28L283.11 33.008ZM286.754 30.8817C287.878 29.9827 288.837 28.9301 289.625 27.7293L286.281 25.5347C285.725 26.3819 285.052 27.1213 284.255 27.7583L286.754 30.8817ZM289.64 27.7058C290.424 26.4746 291.003 25.1479 291.375 23.733L287.507 22.715C287.239 23.7321 286.826 24.6774 286.266 25.5582L289.64 27.7058ZM289.441 21.224H280.081V25.224H289.441V21.224ZM280.081 21.224C280.274 21.224 280.514 21.2646 280.759 21.3871C281.004 21.5097 281.181 21.6772 281.297 21.832L278.097 24.232C278.571 24.8636 279.291 25.224 280.081 25.224V21.224ZM281.554 22.2892C281.633 22.4859 281.677 22.7282 281.651 22.991C281.625 23.2481 281.539 23.4484 281.46 23.581L278.03 21.523C277.643 22.1677 277.522 22.9811 277.84 23.7748L281.554 22.2892ZM281.398 23.6776L284.47 19.1656L281.164 16.9144L278.092 21.4264L281.398 23.6776ZM284.438 19.211C284.467 19.1706 284.486 19.1528 284.491 19.1486C284.493 19.1464 284.493 19.1471 284.489 19.1496C284.486 19.152 284.48 19.1556 284.473 19.1596C284.465 19.1635 284.457 19.1671 284.449 19.1702C284.441 19.1732 284.434 19.1751 284.43 19.1762C284.42 19.1785 284.424 19.176 284.449 19.176V15.176C283.093 15.176 281.962 15.8075 281.196 16.869L284.438 19.211ZM284.449 19.176H295.825V15.176H284.449V19.176ZM293.855 17.5236C293.939 17.9994 293.994 18.4529 294.021 18.8848L298.013 18.6352C297.976 18.0431 297.902 17.4406 297.794 16.8284L293.855 17.5236ZM294.032 19.0081C294.08 19.3923 294.094 19.7977 294.068 20.2266L298.061 20.4614C298.1 19.8023 298.081 19.1517 298.001 18.5119L294.032 19.0081ZM294.065 20.3177C294.036 22.4964 293.608 24.5021 292.794 26.3555L296.456 27.9645C297.498 25.5939 298.029 23.0556 298.065 20.3703L294.065 20.3177ZM292.784 26.3789C291.988 28.2541 290.888 29.8726 289.481 31.2516L292.281 34.1084C294.074 32.3514 295.47 30.2899 296.466 27.9411L292.784 26.3789ZM289.467 31.2658C288.087 32.6458 286.464 33.7356 284.58 34.5348L286.142 38.2172C288.482 37.2244 290.539 35.8502 292.295 34.0942L289.467 31.2658ZM284.604 34.5249C282.747 35.2842 280.734 35.672 278.545 35.672V39.672C281.219 39.672 283.75 39.1958 286.118 38.2271L284.604 34.5249ZM278.545 35.672C276.401 35.672 274.412 35.2732 272.558 34.4868L270.996 38.1692C273.366 39.1748 275.889 39.672 278.545 39.672V35.672ZM272.592 34.5015C270.733 33.6721 269.135 32.5661 267.782 31.1844L264.924 33.9836C266.643 35.7379 268.661 37.1279 270.962 38.1545L272.592 34.5015ZM267.796 31.1989C266.444 29.7909 265.381 28.1377 264.608 26.2204L260.898 27.7156C261.853 30.0863 263.19 32.1771 264.91 33.9691L267.796 31.1989ZM264.608 26.2204C263.846 24.3294 263.457 22.2809 263.457 20.056H259.457C259.457 22.7591 259.932 25.3186 260.898 27.7156L264.608 26.2204ZM301.757 3.592L300.343 2.17779L300.343 2.17779L301.757 3.592ZM308.333 4.168L309.919 2.94858L309.902 2.92748L309.886 2.90681L308.333 4.168ZM325.613 26.632L324.028 27.8514L327.613 32.5122V26.632H325.613ZM324.989 36.232L323.402 37.4493L323.42 37.4715L323.437 37.4932L324.989 36.232ZM307.757 13.768L309.344 12.5507L305.757 7.87477V13.768H307.757ZM301.757 36.856L300.157 38.056L300.329 38.2846L300.557 38.456L301.757 36.856ZM303.613 36.424V3.976H299.613V36.424H303.613ZM303.613 3.976C303.613 4.09573 303.595 4.26698 303.522 4.46224C303.447 4.66365 303.327 4.85089 303.172 5.00621L300.343 2.17779C299.806 2.71526 299.613 3.38749 299.613 3.976H303.613ZM303.172 5.00621C303.088 5.09029 302.957 5.19426 302.774 5.27562C302.586 5.35906 302.385 5.4 302.189 5.4V1.4C301.428 1.4 300.793 1.72841 300.343 2.17779L303.172 5.00621ZM302.189 5.4H306.749V1.4H302.189V5.4ZM306.749 5.4C306.775 5.4 306.784 5.40253 306.78 5.40162C306.775 5.40058 306.765 5.39755 306.753 5.39163C306.741 5.38577 306.736 5.38132 306.738 5.38342C306.741 5.38597 306.756 5.39878 306.781 5.42918L309.886 2.90681C309.103 1.94405 308.013 1.4 306.749 1.4V5.4ZM306.748 5.38742L324.028 27.8514L327.199 25.4126L309.919 2.94858L306.748 5.38742ZM327.613 26.632V3.976H323.613V26.632H327.613ZM327.613 3.976C327.613 4.09229 327.583 4.54685 327.172 4.95821C326.76 5.36957 326.306 5.4 326.189 5.4V1.4C325.689 1.4 324.947 1.52642 324.343 2.12978C323.74 2.73314 323.613 3.47571 323.613 3.976H327.613ZM326.189 5.4H331.133V1.4H326.189V5.4ZM331.133 5.4C331.017 5.4 330.563 5.36957 330.151 4.95821C329.74 4.54685 329.709 4.09229 329.709 3.976H333.709C333.709 3.47571 333.583 2.73314 332.98 2.12978C332.376 1.52642 331.634 1.4 331.133 1.4V5.4ZM329.709 3.976V36.424H333.709V3.976H329.709ZM329.709 36.424C329.709 36.3077 329.74 35.8531 330.151 35.4418C330.563 35.0304 331.017 35 331.133 35V39C331.634 39 332.376 38.8736 332.98 38.2702C333.583 37.6669 333.709 36.9243 333.709 36.424H329.709ZM331.133 35H326.573V39H331.133V35ZM326.573 35C326.547 35 326.538 34.9975 326.543 34.9984C326.547 34.9994 326.558 35.0025 326.57 35.0084C326.582 35.0142 326.587 35.0187 326.585 35.0166C326.581 35.014 326.566 35.0012 326.542 34.9708L323.437 37.4932C324.219 38.4559 325.31 39 326.573 39V35ZM326.576 35.0147L309.344 12.5507L306.17 14.9853L323.402 37.4493L326.576 35.0147ZM305.757 13.768V36.424H309.757V13.768H305.757ZM305.757 36.424C305.757 36.2648 305.808 35.7897 306.245 35.3864C306.651 35.011 307.071 35 307.133 35V39C307.612 39 308.343 38.893 308.958 38.3256C309.603 37.7303 309.757 36.9672 309.757 36.424H305.757ZM307.133 35H302.189V39H307.133V35ZM302.189 35C302.313 35 302.451 35.0191 302.594 35.0666C302.737 35.1142 302.859 35.182 302.957 35.256L300.557 38.456C301.032 38.8116 301.597 39 302.189 39V35ZM303.357 35.656C303.431 35.7546 303.499 35.8768 303.547 36.0195C303.594 36.1623 303.613 36.3007 303.613 36.424H299.613C299.613 37.0167 299.802 37.5818 300.157 38.056L303.357 35.656ZM338.789 3.592L337.374 2.17779L337.374 2.17779L338.789 3.592ZM344.789 9.496V7.496H342.789V9.496H344.789ZM344.789 17.176H342.789V19.176H344.789V17.176ZM344.789 23.272V21.272H342.789V23.272H344.789ZM344.789 30.904H342.789V32.904H344.789V30.904ZM361.829 31.144L359.972 31.8868L360.031 32.0356L360.114 32.173L361.829 31.144ZM361.781 31.576L360.366 30.1618L360.272 30.2565L360.191 30.3629L361.781 31.576ZM358.229 36.232L359.781 37.4932L359.8 37.4694L359.819 37.4451L358.229 36.232ZM338.789 36.856L337.189 38.056L337.36 38.2846L337.589 38.456L338.789 36.856ZM340.645 3.976C340.645 4.09573 340.627 4.26698 340.553 4.46224C340.478 4.66365 340.358 4.85089 340.203 5.00621L337.374 2.17779C336.837 2.71526 336.645 3.38749 336.645 3.976H340.645ZM340.203 5.00621C340.119 5.09029 339.988 5.19426 339.805 5.27562C339.617 5.35906 339.416 5.4 339.221 5.4V1.4C338.459 1.4 337.824 1.72841 337.374 2.17779L340.203 5.00621ZM339.221 5.4H359.957V1.4H339.221V5.4ZM359.957 5.4C359.84 5.4 359.386 5.36957 358.974 4.95821C358.563 4.54685 358.533 4.09229 358.533 3.976H362.533C362.533 3.47571 362.406 2.73314 361.803 2.12978C361.199 1.52642 360.457 1.4 359.957 1.4V5.4ZM358.533 3.976V8.92H362.533V3.976H358.533ZM358.533 8.92C358.533 8.80371 358.563 8.34914 358.974 7.93779C359.386 7.52643 359.84 7.496 359.957 7.496V11.496C360.457 11.496 361.199 11.3696 361.803 10.7662C362.406 10.1629 362.533 9.42029 362.533 8.92H358.533ZM359.957 7.496H344.789V11.496H359.957V7.496ZM342.789 9.496V17.176H346.789V9.496H342.789ZM344.789 19.176H356.789V15.176H344.789V19.176ZM356.789 19.176C356.672 19.176 356.218 19.1456 355.806 18.7342C355.395 18.3229 355.365 17.8683 355.365 17.752H359.365C359.365 17.2517 359.238 16.5091 358.635 15.9058C358.031 15.3024 357.289 15.176 356.789 15.176V19.176ZM355.365 17.752V22.648H359.365V17.752H355.365ZM355.365 22.648C355.365 22.5857 355.376 22.1661 355.751 21.7594C356.154 21.3226 356.629 21.272 356.789 21.272V25.272C357.332 25.272 358.095 25.1174 358.69 24.4726C359.258 23.8579 359.365 23.1263 359.365 22.648H355.365ZM356.789 21.272H344.789V25.272H356.789V21.272ZM342.789 23.272V30.904H346.789V23.272H342.789ZM344.789 32.904H361.445V28.904H344.789V32.904ZM361.445 32.904C361.267 32.904 360.954 32.8661 360.625 32.66C360.279 32.4439 360.074 32.1429 359.972 31.8868L363.686 30.4012C363.519 29.9851 363.218 29.5641 362.745 29.268C362.287 28.9819 361.815 28.904 361.445 28.904V32.904ZM360.114 32.173C360.002 31.9863 359.848 31.6256 359.901 31.1511C359.954 30.6687 360.191 30.337 360.366 30.1618L363.195 32.9902C363.498 32.687 363.807 32.2193 363.876 31.5929C363.945 30.9744 363.752 30.4617 363.544 30.115L360.114 32.173ZM360.191 30.3629L356.639 35.0189L359.819 37.4451L363.371 32.7891L360.191 30.3629ZM356.676 34.9708C356.652 35.0012 356.637 35.014 356.633 35.0166C356.631 35.0187 356.636 35.0142 356.648 35.0084C356.66 35.0025 356.671 34.9994 356.675 34.9984C356.68 34.9975 356.671 35 356.645 35V39C357.908 39 358.999 38.4559 359.781 37.4932L356.676 34.9708ZM356.645 35H339.221V39H356.645V35ZM339.221 35C339.344 35 339.482 35.0191 339.625 35.0666C339.768 35.1142 339.89 35.182 339.989 35.256L337.589 38.456C338.063 38.8116 338.628 39 339.221 39V35ZM340.389 35.656C340.463 35.7546 340.53 35.8768 340.578 36.0195C340.626 36.1623 340.645 36.3007 340.645 36.424H336.645C336.645 37.0167 336.833 37.5818 337.189 38.056L340.389 35.656ZM340.645 36.424V3.976H336.645V36.424H340.645ZM366.586 3.496L368 4.91022L368 4.91021L366.586 3.496ZM392.746 3.496L391.146 4.696L391.317 4.92457L391.546 5.096L392.746 3.496ZM392.506 12.136L390.958 10.8695L390.936 10.8957L390.916 10.9225L392.506 12.136ZM384.922 22.072L383.332 20.8585L382.404 22.0742L383.334 23.2883L384.922 22.072ZM395.77 36.232L397.484 35.203L397.426 35.1057L397.357 35.0157L395.77 36.232ZM395.77 36.712L394.055 35.683L394.015 35.7489L393.981 35.8176L395.77 36.712ZM387.754 36.136L386.168 37.3546L386.184 37.3761L386.201 37.3972L387.754 36.136ZM377.242 22.456L378.827 21.2374L378.789 21.1869L378.747 21.139L377.242 22.456ZM377.242 21.736L378.656 23.1502L378.749 23.0572L378.829 22.9527L377.242 21.736ZM386.698 9.4L388.285 10.6167L390.751 7.4H386.698V9.4ZM372.586 9.4V7.4H370.586V9.4H372.586ZM366.586 36.76L364.985 37.96L365.157 38.1886L365.386 38.36L366.586 36.76ZM368.442 3.88C368.442 3.99972 368.423 4.17098 368.35 4.36625C368.275 4.56766 368.155 4.7549 368 4.91022L365.171 2.08178C364.634 2.61925 364.442 3.29149 364.442 3.88H368.442ZM368 4.91021C367.916 4.99429 367.785 5.09826 367.602 5.17962C367.414 5.26306 367.213 5.304 367.018 5.304V1.304C366.256 1.304 365.621 1.63241 365.171 2.08179L368 4.91021ZM367.018 5.304H392.362V1.304H367.018V5.304ZM392.362 5.304C392.168 5.304 391.928 5.26338 391.683 5.14085C391.438 5.01833 391.262 4.85076 391.146 4.696L394.345 2.296C393.872 1.66439 393.151 1.304 392.362 1.304V5.304ZM391.546 5.096C391.391 4.97993 391.223 4.80347 391.101 4.55842C390.978 4.31337 390.938 4.07344 390.938 3.88H394.938C394.938 3.09049 394.577 2.36971 393.946 1.896L391.546 5.096ZM390.938 3.88V10.936H394.938V3.88H390.938ZM390.938 10.936C390.938 10.9404 390.937 10.9373 390.939 10.9282C390.94 10.9189 390.943 10.9072 390.948 10.8946C390.952 10.882 390.957 10.8725 390.96 10.8668C390.963 10.8612 390.964 10.8622 390.958 10.8695L394.053 13.4025C394.629 12.6991 394.938 11.8533 394.938 10.936H390.938ZM390.916 10.9225L383.332 20.8585L386.511 23.2855L394.095 13.3495L390.916 10.9225ZM383.334 23.2883L394.182 37.4483L397.357 35.0157L386.509 20.8557L383.334 23.2883ZM394.055 37.261C393.947 37.0825 393.842 36.811 393.842 36.472C393.842 36.133 393.947 35.8615 394.055 35.683L397.484 37.741C397.688 37.4025 397.842 36.971 397.842 36.472C397.842 35.973 397.688 35.5415 397.484 35.203L394.055 37.261ZM393.981 35.8176C394.105 35.5686 394.321 35.3046 394.645 35.1195C394.956 34.9419 395.248 34.904 395.434 34.904V38.904C395.779 38.904 396.207 38.8341 396.63 38.5925C397.066 38.3434 397.37 37.9834 397.558 37.6064L393.981 35.8176ZM395.434 34.904H389.338V38.904H395.434V34.904ZM389.338 34.904C389.311 34.904 389.303 34.9015 389.307 34.9024C389.311 34.9034 389.322 34.9065 389.334 34.9124C389.346 34.9182 389.351 34.9227 389.349 34.9206C389.346 34.918 389.33 34.9052 389.306 34.8748L386.201 37.3972C386.984 38.3599 388.074 38.904 389.338 38.904V34.904ZM389.339 34.9174L378.827 21.2374L375.656 23.6746L386.168 37.3546L389.339 34.9174ZM378.747 21.139C378.822 21.2248 379.074 21.551 379.074 22.084C379.074 22.6477 378.794 23.0116 378.656 23.1502L375.827 20.3218C375.465 20.6844 375.074 21.2803 375.074 22.084C375.074 22.8569 375.437 23.4312 375.736 23.773L378.747 21.139ZM378.829 22.9527L388.285 10.6167L385.11 8.18326L375.654 20.5193L378.829 22.9527ZM386.698 7.4H372.586V11.4H386.698V7.4ZM370.586 9.4V36.328H374.586V9.4H370.586ZM370.586 36.328C370.586 36.1688 370.636 35.6937 371.073 35.2904C371.48 34.915 371.899 34.904 371.962 34.904V38.904C372.44 38.904 373.171 38.797 373.786 38.2296C374.431 37.6343 374.586 36.8712 374.586 36.328H370.586ZM371.962 34.904H367.018V38.904H371.962V34.904ZM367.018 34.904C367.141 34.904 367.279 34.9231 367.422 34.9706C367.565 35.0182 367.687 35.086 367.786 35.16L365.386 38.36C365.86 38.7156 366.425 38.904 367.018 38.904V34.904ZM368.186 35.56C368.259 35.6586 368.327 35.7808 368.375 35.9235C368.422 36.0663 368.442 36.2047 368.442 36.328H364.442C364.442 36.9207 364.63 37.4858 364.985 37.96L368.186 35.56ZM368.442 36.328V3.88H364.442V36.328H368.442Z" fill="#F6F6F6"/>
</svg>
